<svg width="87" height="18" viewBox="0 0 87 18" fill="none" xmlns="http://www.w3.org/2000/svg">
<path d="M54.5497 1.6338V4.25696H52.8856V5.97721H54.5497V11.8223C54.5497 13.8182 55.4636 14.6165 57.7625 14.6165C58.1665 14.6165 58.5513 14.569 58.888 14.512V12.8107C58.5994 12.8392 58.4166 12.8582 58.0992 12.8582C57.07 12.8582 56.6179 12.383 56.6179 11.2996V5.97721H58.888V4.25696H56.6179V1.6338H54.5497Z" fill="white"/>
<path d="M64.7445 14.7591C67.8033 14.7591 69.6791 12.7347 69.6791 9.37971C69.6791 6.04374 67.7937 4.00985 64.7445 4.00985C61.6856 4.00985 59.8002 6.04374 59.8002 9.37971C59.8002 12.7347 61.676 14.7591 64.7445 14.7591ZM64.7445 12.9438C62.9457 12.9438 61.9357 11.6417 61.9357 9.37971C61.9357 7.13672 62.9457 5.82515 64.7445 5.82515C66.5336 5.82515 67.5532 7.13672 67.5532 9.37971C67.5532 11.6322 66.5336 12.9438 64.7445 12.9438Z" fill="white"/>
<path d="M71.2839 14.5595H73.352V8.4483C73.352 6.99416 74.4582 6.01523 76.0261 6.01523C76.3917 6.01523 77.0073 6.08176 77.1804 6.13878V4.1239C76.9592 4.06687 76.5648 4.03836 76.257 4.03836C74.8911 4.03836 73.7272 4.77969 73.429 5.79663H73.2751V4.20944H71.2839V14.5595Z" fill="white"/>
<path d="M82.3155 5.74911C83.8449 5.74911 84.8453 6.80408 84.8934 8.42929H79.6029C79.7183 6.81358 80.7861 5.74911 82.3155 5.74911ZM84.8838 11.7653C84.499 12.5731 83.6429 13.0198 82.3924 13.0198C80.738 13.0198 79.6702 11.8698 79.6029 10.0545V9.94046H87V9.22764C87 5.97721 85.2397 4.00985 82.3251 4.00985C79.372 4.00985 77.4963 6.11027 77.4963 9.41773C77.4963 12.7252 79.3336 14.7591 82.3347 14.7591C84.7299 14.7591 86.4036 13.6186 86.875 11.7653H84.8838Z" fill="white"/>
<path d="M40.9874 10.7374C41.1469 13.2789 43.2905 14.9043 46.4808 14.9043C49.8905 14.9043 52.0241 13.2001 52.0241 10.4813C52.0241 8.34363 50.8078 7.16153 47.8567 6.48183L46.2715 6.09765C44.3971 5.66421 43.6394 5.08301 43.6394 4.06838C43.6394 2.78778 44.8159 1.95046 46.5805 1.95046C48.2555 1.95046 49.412 2.76808 49.6214 4.07823H51.7948C51.6652 1.68449 49.5316 0 46.6104 0C43.4699 0 41.3762 1.68449 41.3762 4.21614C41.3762 6.30451 42.5626 7.54571 45.1648 8.14661L47.0192 8.5899C48.9235 9.03319 49.7609 9.68334 49.7609 10.7669C49.7609 12.0278 48.4449 12.944 46.6503 12.944C44.7261 12.944 43.3901 12.0869 43.2007 10.7374H40.9874Z" fill="white"/>
<path d="M19.5639 4.03836C18.1403 4.03836 16.909 4.74167 16.2742 5.92019H16.1203V4.20944H14.1291V18H16.1972V12.9913H16.3607C16.909 14.0843 18.0922 14.7306 19.5832 14.7306C22.2284 14.7306 23.9117 12.6682 23.9117 9.37971C23.9117 6.09126 22.2284 4.03836 19.5639 4.03836ZM18.9771 12.8963C17.2457 12.8963 16.1587 11.5467 16.1587 9.38921C16.1587 7.22226 17.2457 5.87267 18.9868 5.87267C20.7374 5.87267 21.7859 7.19375 21.7859 9.37971C21.7859 11.5752 20.7374 12.8963 18.9771 12.8963Z" fill="white"/>
<path d="M31.1484 4.03836C29.7248 4.03836 28.4935 4.74167 27.8587 5.92019H27.7048V4.20944H25.7136V18H27.7817V12.9913H27.9452C28.4935 14.0843 29.6767 14.7306 31.1676 14.7306C33.8129 14.7306 35.4962 12.6682 35.4962 9.37971C35.4962 6.09126 33.8129 4.03836 31.1484 4.03836ZM30.5616 12.8963C28.8302 12.8963 27.7432 11.5467 27.7432 9.38921C27.7432 7.22226 28.8302 5.87267 30.5713 5.87267C32.3219 5.87267 33.3704 7.19375 33.3704 9.37971C33.3704 11.5752 32.3219 12.8963 30.5616 12.8963Z" fill="white"/>
<path d="M10.4186 14.5595H12.7914L7.59708 0.344778H5.19433L0 14.5595H2.29308L3.61908 10.7866H9.10254L10.4186 14.5595ZM6.28105 2.92569H6.45054L8.53426 8.93468H4.18737L6.28105 2.92569Z" fill="white"/>
</svg>
