<svg width="23" height="29" viewBox="0 0 23 29" fill="none" xmlns="http://www.w3.org/2000/svg">
<path d="M19.2102 15.4221C19.2383 13.1834 20.4103 11.0652 22.2695 9.89261C21.0966 8.17423 19.132 7.08473 17.0881 7.01913C14.9081 6.7844 12.7946 8.35731 11.6837 8.35731C10.5513 8.35731 8.84094 7.04243 6.99911 7.08131C4.59838 7.16087 2.36029 8.56105 1.19228 10.7141C-1.31848 15.1734 0.554317 21.727 2.95941 25.3315C4.16274 27.0965 5.56907 29.0681 7.40924 28.9982C9.20995 28.9216 9.88248 27.8203 12.0561 27.8203C14.2095 27.8203 14.8405 28.9982 16.718 28.9537C18.6502 28.9216 19.8677 27.1809 21.0288 25.3991C21.8933 24.1415 22.5586 22.7515 23 21.2807C20.7293 20.2955 19.2128 17.9513 19.2102 15.4221Z" fill="white"/>
<path d="M15.6639 4.64862C16.7174 3.35122 17.2365 1.68364 17.1108 0C15.5012 0.173421 14.0144 0.962559 12.9466 2.21018C11.9025 3.42917 11.3591 5.06741 11.4618 6.6867C13.072 6.70371 14.6549 5.93596 15.6639 4.64862Z" fill="white"/>
</svg>
