<svg width="15" height="16" viewBox="0 0 15 16" fill="none" xmlns="http://www.w3.org/2000/svg">
<path d="M10.9562 5.48125C10.9124 5.475 10.8687 5.475 10.8249 5.48125C9.85615 5.45 9.0874 4.65625 9.0874 3.68125C9.0874 2.6875 9.89365 1.875 10.8937 1.875C11.8874 1.875 12.6999 2.68125 12.6999 3.68125C12.6937 4.65625 11.9249 5.45 10.9562 5.48125Z" fill="#006D33"/>
<path d="M12.9938 9.81251C12.2938 10.2813 11.3125 10.4563 10.4062 10.3375C10.6437 9.82501 10.7687 9.25626 10.775 8.65626C10.775 8.03126 10.6375 7.43751 10.375 6.91876C11.3 6.79376 12.2813 6.96876 12.9875 7.43751C13.975 8.08751 13.975 9.15626 12.9938 9.81251Z" fill="#006D33"/>
<path d="M4.0251 5.48125C4.06885 5.475 4.1126 5.475 4.15635 5.48125C5.1251 5.45 5.89385 4.65625 5.89385 3.68125C5.89385 2.68125 5.0876 1.875 4.0876 1.875C3.09385 1.875 2.2876 2.68125 2.2876 3.68125C2.2876 4.65625 3.05635 5.45 4.0251 5.48125Z" fill="#006D33"/>
<path d="M4.09395 8.65625C4.09395 9.2625 4.2252 9.8375 4.4627 10.3563C3.58145 10.45 2.6627 10.2625 1.9877 9.81875C1.0002 9.1625 1.0002 8.09375 1.9877 7.4375C2.65645 6.9875 3.6002 6.80625 4.4877 6.90625C4.23145 7.43125 4.09395 8.025 4.09395 8.65625Z" fill="#006D33"/>
<path d="M7.575 10.5437C7.525 10.5375 7.46875 10.5375 7.4125 10.5437C6.2625 10.5062 5.34375 9.5625 5.34375 8.4C5.35 7.2125 6.30625 6.25 7.5 6.25C8.6875 6.25 9.65 7.2125 9.65 8.4C9.64375 9.5625 8.73125 10.5062 7.575 10.5437Z" fill="#006D33"/>
<path d="M5.54375 11.8375C4.6 12.4688 4.6 13.5063 5.54375 14.1313C6.61875 14.85 8.38125 14.85 9.45625 14.1313C10.4 13.5 10.4 12.4625 9.45625 11.8375C8.3875 11.1188 6.625 11.1188 5.54375 11.8375Z" fill="#006D33"/>
</svg>
