<svg width="65" height="6" viewBox="0 0 65 6" fill="none" xmlns="http://www.w3.org/2000/svg">
<path d="M0 0.277524V5.91792H2.03254C3.71007 5.91792 4.68148 4.88208 4.68148 3.08013C4.68148 1.30554 3.70227 0.277524 2.03254 0.277524H0ZM0.873876 1.07492H1.93501C3.10148 1.07492 3.792 1.81759 3.792 3.09186C3.792 4.38567 3.11318 5.12052 1.93501 5.12052H0.873876V1.07492Z" fill="white"/>
<path d="M7.65656 6C8.89715 6 9.65789 5.16743 9.65789 3.78762C9.65789 2.41564 8.89325 1.57915 7.65656 1.57915C6.41597 1.57915 5.65133 2.41564 5.65133 3.78762C5.65133 5.16743 6.41207 6 7.65656 6ZM7.65656 5.25342C6.92703 5.25342 6.5174 4.71792 6.5174 3.78762C6.5174 2.86515 6.92703 2.32573 7.65656 2.32573C8.38219 2.32573 8.79572 2.86515 8.79572 3.78762C8.79572 4.71401 8.38219 5.25342 7.65656 5.25342Z" fill="white"/>
<path d="M16.1363 1.66124H15.2975L14.5407 4.90945H14.4744L13.6005 1.66124H12.7968L11.9229 4.90945H11.8605L11.0998 1.66124H10.2493L11.4197 5.91792H12.2819L13.1557 2.78306H13.2221L14.0998 5.91792H14.9698L16.1363 1.66124Z" fill="white"/>
<path d="M17.1022 5.91792H17.941V3.42801C17.941 2.76352 18.335 2.34919 18.9553 2.34919C19.5756 2.34919 19.8721 2.68925 19.8721 3.37329V5.91792H20.7109V3.16222C20.7109 2.14984 20.1881 1.57915 19.2401 1.57915C18.6003 1.57915 18.179 1.8645 17.9722 2.33746H17.9098V1.66124H17.1022V5.91792Z" fill="white"/>
<path d="M22.0318 5.91792H22.8706V0H22.0318V5.91792Z" fill="white"/>
<path d="M26.0251 6C27.2657 6 28.0265 5.16743 28.0265 3.78762C28.0265 2.41564 27.2618 1.57915 26.0251 1.57915C24.7845 1.57915 24.0199 2.41564 24.0199 3.78762C24.0199 5.16743 24.7806 6 26.0251 6ZM26.0251 5.25342C25.2956 5.25342 24.886 4.71792 24.886 3.78762C24.886 2.86515 25.2956 2.32573 26.0251 2.32573C26.7508 2.32573 27.1643 2.86515 27.1643 3.78762C27.1643 4.71401 26.7508 5.25342 26.0251 5.25342Z" fill="white"/>
<path d="M30.5256 5.28078C30.0691 5.28078 29.7375 5.05798 29.7375 4.67492C29.7375 4.29967 30.0028 4.10033 30.588 4.06124L31.6257 3.99479V4.35049C31.6257 4.87818 31.1576 5.28078 30.5256 5.28078ZM30.311 5.98827C30.8689 5.98827 31.3331 5.74593 31.5867 5.31987H31.653V5.91792H32.4606V3.00977C32.4606 2.11075 31.8598 1.57915 30.7948 1.57915C29.8312 1.57915 29.1446 2.04821 29.0587 2.77915H29.8702C29.9638 2.47818 30.2876 2.30619 30.7558 2.30619C31.3292 2.30619 31.6257 2.56026 31.6257 3.00977V3.3772L30.4749 3.44365C29.4645 3.50619 28.8949 3.94788 28.8949 4.71401C28.8949 5.49186 29.4918 5.98827 30.311 5.98827Z" fill="white"/>
<path d="M35.3069 5.98827C35.8921 5.98827 36.3876 5.71075 36.6412 5.2456H36.7075V5.91792H37.5111V0H36.6724V2.33746H36.6099C36.3798 1.8684 35.8882 1.59088 35.3069 1.59088C34.2341 1.59088 33.5436 2.443 33.5436 3.78762C33.5436 5.13616 34.2263 5.98827 35.3069 5.98827ZM35.5449 2.34528C36.2471 2.34528 36.688 2.90423 36.688 3.79153C36.688 4.68274 36.251 5.23388 35.5449 5.23388C34.8349 5.23388 34.4097 4.69055 34.4097 3.78762C34.4097 2.89251 34.8388 2.34528 35.5449 2.34528Z" fill="white"/>
<path d="M42.9502 6C44.1908 6 44.9516 5.16743 44.9516 3.78762C44.9516 2.41564 44.1869 1.57915 42.9502 1.57915C41.7096 1.57915 40.945 2.41564 40.945 3.78762C40.945 5.16743 41.7057 6 42.9502 6ZM42.9502 5.25342C42.2207 5.25342 41.8111 4.71792 41.8111 3.78762C41.8111 2.86515 42.2207 2.32573 42.9502 2.32573C43.6759 2.32573 44.0894 2.86515 44.0894 3.78762C44.0894 4.71401 43.6759 5.25342 42.9502 5.25342Z" fill="white"/>
<path d="M46.0619 5.91792H46.9006V3.42801C46.9006 2.76352 47.2946 2.34919 47.9149 2.34919C48.5352 2.34919 48.8317 2.68925 48.8317 3.37329V5.91792H49.6705V3.16222C49.6705 2.14984 49.1477 1.57915 48.1997 1.57915C47.5599 1.57915 47.1386 1.8645 46.9318 2.33746H46.8694V1.66124H46.0619V5.91792Z" fill="white"/>
<path d="M53.5335 0.601954V1.68078H52.8586V2.38827H53.5335V4.79218C53.5335 5.61303 53.9041 5.94137 54.8365 5.94137C55.0004 5.94137 55.1564 5.92182 55.293 5.89837V5.1987C55.1759 5.21042 55.1018 5.21824 54.9731 5.21824C54.5556 5.21824 54.3723 5.0228 54.3723 4.5772V2.38827H55.293V1.68078H54.3723V0.601954H53.5335Z" fill="white"/>
<path d="M56.4189 5.91792H57.2576V3.43192C57.2576 2.78697 57.6399 2.35309 58.3266 2.35309C58.9195 2.35309 59.2355 2.69707 59.2355 3.3772V5.91792H60.0743V3.17003C60.0743 2.15765 59.5164 1.58306 58.6113 1.58306C57.9715 1.58306 57.5229 1.8684 57.3161 2.34528H57.2498V0H56.4189V5.91792Z" fill="white"/>
<path d="M63.1001 2.29446C63.7204 2.29446 64.1261 2.72834 64.1456 3.39674H62C62.0468 2.73225 62.4798 2.29446 63.1001 2.29446ZM64.1417 4.76873C63.9857 5.10098 63.6385 5.28469 63.1313 5.28469C62.4603 5.28469 62.0273 4.81173 62 4.06515V4.01824H65V3.72508C65 2.38827 64.2861 1.57915 63.104 1.57915C61.9063 1.57915 61.1456 2.443 61.1456 3.80326C61.1456 5.16352 61.8907 6 63.1079 6C64.0793 6 64.7581 5.53094 64.9493 4.76873H64.1417Z" fill="white"/>
</svg>
