<svg width="15" height="16" viewBox="0 0 15 16" fill="none" xmlns="http://www.w3.org/2000/svg">
<path d="M7.92353 13.3482C8.09524 13.3881 8.11097 13.613 7.94372 13.6688L6.95622 13.9938C4.47497 14.7938 3.16872 14.125 2.36247 11.6438L1.56247 9.17501C0.762469 6.69376 1.42497 5.38126 3.90622 4.58126L4.23372 4.4728C4.48551 4.38942 4.73055 4.64196 4.65905 4.89738C4.62361 5.02399 4.58952 5.15611 4.55622 5.29376L3.94372 7.91251C3.25622 10.8563 4.26247 12.4813 7.20622 13.1813L7.92353 13.3482Z" fill="#006D33"/>
<path d="M10.7314 2.88126L9.68761 2.63751C7.60011 2.14376 6.35636 2.55 5.62511 4.06251C5.43761 4.44375 5.28761 4.90626 5.16261 5.43751L4.55011 8.05626C3.93761 10.6688 4.74386 11.9563 7.35011 12.575L8.40011 12.825C8.76261 12.9125 9.10011 12.9688 9.41261 12.9938C11.3626 13.1813 12.4001 12.2688 12.9251 10.0125L13.5376 7.4C14.1501 4.7875 13.3501 3.49376 10.7314 2.88126ZM9.55636 9.20626C9.50011 9.41876 9.31261 9.55626 9.10011 9.55626C9.06261 9.55626 9.02511 9.55001 8.98136 9.54376L7.16261 9.08126C6.91261 9.01876 6.76261 8.76251 6.82511 8.51251C6.88761 8.26251 7.14386 8.11251 7.39386 8.17501L9.21261 8.63751C9.46886 8.70001 9.61886 8.95626 9.55636 9.20626ZM11.3876 7.09375C11.3314 7.30625 11.1439 7.44376 10.9314 7.44376C10.8939 7.44376 10.8564 7.4375 10.8126 7.43125L7.78136 6.66251C7.53136 6.60001 7.38136 6.34376 7.44386 6.09376C7.50636 5.84376 7.76261 5.69375 8.01261 5.75626L11.0439 6.525C11.3001 6.58125 11.4501 6.8375 11.3876 7.09375Z" fill="#006D33"/>
</svg>
