<svg width="15" height="16" viewBox="0 0 15 16" fill="none" xmlns="http://www.w3.org/2000/svg">
<path d="M5.625 1.375C3.9875 1.375 2.65625 2.70625 2.65625 4.34375C2.65625 5.95 3.9125 7.25 5.55 7.30625C5.6 7.3 5.65 7.3 5.6875 7.30625C5.7 7.30625 5.70625 7.30625 5.71875 7.30625C5.725 7.30625 5.725 7.30625 5.73125 7.30625C7.33125 7.25 8.5875 5.95 8.59375 4.34375C8.59375 2.70625 7.2625 1.375 5.625 1.375Z" fill="#006D33"/>
<path d="M8.8001 8.96874C7.05635 7.80624 4.2126 7.80624 2.45635 8.96874C1.6626 9.49999 1.2251 10.2187 1.2251 10.9875C1.2251 11.7562 1.6626 12.4687 2.4501 12.9937C3.3251 13.5812 4.4751 13.875 5.6251 13.875C6.7751 13.875 7.9251 13.5812 8.8001 12.9937C9.5876 12.4625 10.0251 11.75 10.0251 10.975C10.0188 10.2062 9.5876 9.49374 8.8001 8.96874Z" fill="#006D33"/>
<path d="M12.4938 4.7125C12.5938 5.925 11.7313 6.9875 10.5376 7.13125C10.5313 7.13125 10.5313 7.13125 10.5251 7.13125H10.5063C10.4688 7.13125 10.4313 7.13125 10.4001 7.14375C9.79385 7.175 9.2376 6.98125 8.81885 6.625C9.4626 6.05 9.83135 5.1875 9.75635 4.25C9.7126 3.74375 9.5376 3.28125 9.2751 2.8875C9.5126 2.76875 9.7876 2.69375 10.0688 2.66875C11.2938 2.5625 12.3876 3.475 12.4938 4.7125Z" fill="#006D33"/>
<path d="M13.7441 10.4938C13.6941 11.1 13.3066 11.625 12.6566 11.9813C12.0316 12.325 11.2441 12.4875 10.4629 12.4688C10.9129 12.0625 11.1754 11.5563 11.2254 11.0188C11.2879 10.2438 10.9191 9.5 10.1816 8.90625C9.76289 8.575 9.27539 8.3125 8.74414 8.11875C10.1254 7.71875 11.8629 7.9875 12.9316 8.85C13.5066 9.3125 13.8004 9.89375 13.7441 10.4938Z" fill="#006D33"/>
</svg>
