<svg width="15" height="16" viewBox="0 0 15 16" fill="none" xmlns="http://www.w3.org/2000/svg">
<path d="M13.7501 8.6375V9.925C13.7501 10.275 13.4626 10.5625 13.1064 10.5625H11.9001C11.2251 10.5625 10.6064 10.0687 10.5501 9.39375C10.5126 9 10.6626 8.63125 10.9251 8.375C11.1564 8.1375 11.4751 8 11.8251 8H13.1064C13.4626 8 13.7501 8.2875 13.7501 8.6375Z" fill="#006D33"/>
<path d="M9.6125 9.475C9.55625 8.81875 9.79375 8.175 10.2688 7.70625C10.6688 7.3 11.225 7.0625 11.825 7.0625H12.1812C12.3562 7.0625 12.5 6.91875 12.475 6.74375C12.3062 5.53125 11.2562 4.59375 10 4.59375H3.75C2.36875 4.59375 1.25 5.7125 1.25 7.09375V11.4688C1.25 12.85 2.36875 13.9688 3.75 13.9688H10C11.2625 13.9688 12.3062 13.0312 12.475 11.8187C12.5 11.6437 12.3562 11.5 12.1812 11.5H11.9C10.7125 11.5 9.7125 10.6125 9.6125 9.475ZM8.125 8.1875H4.375C4.11875 8.1875 3.90625 7.98125 3.90625 7.71875C3.90625 7.45625 4.11875 7.25 4.375 7.25H8.125C8.38125 7.25 8.59375 7.4625 8.59375 7.71875C8.59375 7.975 8.38125 8.1875 8.125 8.1875Z" fill="#006D33"/>
<path d="M8.88116 3.2375C9.04366 3.40625 8.89991 3.65625 8.66241 3.65625H3.76866C3.08741 3.65625 2.44991 3.85625 1.91866 4.2C1.67491 4.35625 1.34366 4.1875 1.46241 3.91875C1.81241 3.1 2.63116 2.53125 3.57491 2.53125H7.08741C7.81241 2.53125 8.45616 2.7875 8.88116 3.2375Z" fill="#006D33"/>
</svg>
