<svg width="40" height="8" viewBox="0 0 40 8" fill="none" xmlns="http://www.w3.org/2000/svg">
<path d="M6.9336 4.23301C6.9336 5.03505 6.69101 5.67343 6.20486 6.15006C5.65317 6.71666 4.93324 6.99996 4.04897 6.99996C3.20187 6.99996 2.48096 6.71283 1.88916 6.13857C1.29639 5.56336 1 4.85129 1 4.00139C1 3.15054 1.29639 2.43846 1.88916 1.86421C2.48096 1.289 3.20187 1.00187 4.04897 1.00187C4.46958 1.00187 4.87161 1.08227 5.2531 1.2421C5.63557 1.40289 5.94173 1.61632 6.17063 1.88335L5.65513 2.38869C5.26679 1.93408 4.73173 1.70725 4.04799 1.70725C3.42978 1.70725 2.8957 1.91972 2.44476 2.34467C1.99382 2.76962 1.76884 3.32186 1.76884 4.00043C1.76884 4.67901 1.99382 5.23125 2.44476 5.6562C2.8957 6.08115 3.42978 6.29362 4.04799 6.29362C4.70336 6.29362 5.25017 6.08019 5.68741 5.65237C5.97108 5.37386 6.13541 4.98624 6.17943 4.48951H4.04799V3.79945H6.89154C6.92089 3.94971 6.9336 4.09423 6.9336 4.23301Z" fill="white"/>
<path d="M11.4431 1.83459H8.77071V3.65498H11.1809V4.34504H8.77071V6.16542H11.4431V6.87176H8.01654V1.12922H11.4431V1.83459Z" fill="white"/>
<path d="M14.623 6.87176H13.8688V1.83459H12.2294V1.12922H16.2624V1.83459H14.623V6.87176Z" fill="white"/>
<path d="M19.1803 6.87176V1.12922H19.9345V6.87176H19.1803Z" fill="white"/>
<path d="M23.279 6.87176H22.5248V1.83459H20.8854V1.12922H24.9184V1.83459H23.279V6.87176Z" fill="white"/>
<path d="M32.5528 6.13C31.9757 6.71 31.2587 7 30.4009 7C29.543 7 28.826 6.71 28.2498 6.13C27.6727 5.55001 27.3851 4.83985 27.3851 4.00048C27.3851 3.16111 27.6727 2.45095 28.2498 1.87095C28.826 1.29096 29.543 1 30.4009 1C31.2538 1 31.9698 1.29191 32.5489 1.87478C33.128 2.45765 33.4175 3.1659 33.4175 4.00048C33.4175 4.83985 33.129 5.55001 32.5528 6.13ZM28.8064 5.64859C29.2407 6.07928 29.7719 6.29367 30.4009 6.29367C31.0298 6.29367 31.5619 6.07832 31.9953 5.64859C32.4296 5.2179 32.6477 4.66853 32.6477 4.00048C32.6477 3.33243 32.4296 2.78306 31.9953 2.35237C31.5619 1.92168 31.0298 1.70729 30.4009 1.70729C29.7719 1.70729 29.2407 1.92264 28.8064 2.35237C28.3731 2.78306 28.155 3.33243 28.155 4.00048C28.155 4.66853 28.3731 5.2179 28.8064 5.64859Z" fill="white"/>
<path d="M34.4759 6.87176V1.12922H35.3935L38.2458 5.59596H38.2781L38.2458 4.48956V1.12922H39V6.87176H38.2126L35.2282 2.18776H35.1959L35.2282 3.29415V6.87176H34.4759Z" fill="white"/>
<path d="M6.9336 4.23301C6.9336 5.03505 6.69101 5.67343 6.20486 6.15006C5.65317 6.71666 4.93324 6.99996 4.04897 6.99996C3.20187 6.99996 2.48096 6.71283 1.88916 6.13857C1.29639 5.56336 1 4.85129 1 4.00139C1 3.15054 1.29639 2.43846 1.88916 1.86421C2.48096 1.289 3.20187 1.00187 4.04897 1.00187C4.46958 1.00187 4.87161 1.08227 5.2531 1.2421C5.63557 1.40289 5.94173 1.61632 6.17063 1.88335L5.65513 2.38869C5.26679 1.93408 4.73173 1.70725 4.04799 1.70725C3.42978 1.70725 2.8957 1.91972 2.44476 2.34467C1.99382 2.76962 1.76884 3.32186 1.76884 4.00043C1.76884 4.67901 1.99382 5.23125 2.44476 5.6562C2.8957 6.08115 3.42978 6.29362 4.04799 6.29362C4.70336 6.29362 5.25017 6.08019 5.68741 5.65237C5.97108 5.37386 6.13541 4.98624 6.17943 4.48951H4.04799V3.79945H6.89154C6.92089 3.94971 6.9336 4.09423 6.9336 4.23301Z" stroke="white" stroke-width="0.0401305" stroke-miterlimit="10"/>
<path d="M11.4431 1.83459H8.77071V3.65498H11.1809V4.34504H8.77071V6.16542H11.4431V6.87176H8.01654V1.12922H11.4431V1.83459Z" stroke="white" stroke-width="0.0401305" stroke-miterlimit="10"/>
<path d="M14.623 6.87176H13.8688V1.83459H12.2294V1.12922H16.2624V1.83459H14.623V6.87176Z" stroke="white" stroke-width="0.0401305" stroke-miterlimit="10"/>
<path d="M19.1803 6.87176V1.12922H19.9345V6.87176H19.1803Z" stroke="white" stroke-width="0.0401305" stroke-miterlimit="10"/>
<path d="M23.279 6.87176H22.5248V1.83459H20.8854V1.12922H24.9184V1.83459H23.279V6.87176Z" stroke="white" stroke-width="0.0401305" stroke-miterlimit="10"/>
<path d="M32.5528 6.13C31.9757 6.71 31.2587 7 30.4009 7C29.543 7 28.826 6.71 28.2498 6.13C27.6727 5.55001 27.3851 4.83985 27.3851 4.00048C27.3851 3.16111 27.6727 2.45095 28.2498 1.87095C28.826 1.29096 29.543 1 30.4009 1C31.2538 1 31.9698 1.29191 32.5489 1.87478C33.128 2.45765 33.4175 3.1659 33.4175 4.00048C33.4175 4.83985 33.129 5.55001 32.5528 6.13ZM28.8064 5.64859C29.2407 6.07928 29.7719 6.29367 30.4009 6.29367C31.0298 6.29367 31.5619 6.07832 31.9953 5.64859C32.4296 5.2179 32.6477 4.66853 32.6477 4.00048C32.6477 3.33243 32.4296 2.78306 31.9953 2.35237C31.5619 1.92168 31.0298 1.70729 30.4009 1.70729C29.7719 1.70729 29.2407 1.92264 28.8064 2.35237C28.3731 2.78306 28.155 3.33243 28.155 4.00048C28.155 4.66853 28.3731 5.2179 28.8064 5.64859Z" stroke="white" stroke-width="0.0401305" stroke-miterlimit="10"/>
<path d="M34.4759 6.87176V1.12922H35.3935L38.2458 5.59596H38.2781L38.2458 4.48956V1.12922H39V6.87176H38.2126L35.2282 2.18776H35.1959L35.2282 3.29415V6.87176H34.4759Z" stroke="white" stroke-width="0.0401305" stroke-miterlimit="10"/>
</svg>
