<svg width="83" height="17" viewBox="0 0 83 17" fill="none" xmlns="http://www.w3.org/2000/svg">
<path d="M26.5264 4.69571C24.2237 4.69571 22.3468 6.48156 22.3468 8.94122C22.3468 11.3859 24.2237 13.1867 26.5264 13.1867C28.8301 13.1867 30.7069 11.3859 30.7069 8.94122C30.706 6.48156 28.8291 4.69571 26.5264 4.69571ZM26.5264 11.5157C25.2644 11.5157 24.1767 10.4546 24.1767 8.94222C24.1767 7.41392 25.2654 6.36876 26.5264 6.36876C27.7884 6.36876 28.8761 7.41392 28.8761 8.94222C28.8761 10.4536 27.7884 11.5157 26.5264 11.5157ZM17.4075 4.69571C15.1048 4.69571 13.228 6.48156 13.228 8.94122C13.228 11.3859 15.1048 13.1867 17.4075 13.1867C19.7112 13.1867 21.5881 11.3859 21.5881 8.94122C21.5881 6.48156 19.7112 4.69571 17.4075 4.69571ZM17.4075 11.5157C16.1455 11.5157 15.0578 10.4546 15.0578 8.94222C15.0578 7.41392 16.1465 6.36876 17.4075 6.36876C18.6695 6.36876 19.7572 7.41392 19.7572 8.94222C19.7582 10.4536 18.6695 11.5157 17.4075 11.5157ZM6.5616 5.99941V7.80023H10.7891C10.6628 8.81345 10.3319 9.55314 9.82673 10.0672C9.21189 10.6941 8.24948 11.3859 6.5616 11.3859C3.95928 11.3859 1.92481 9.24668 1.92481 6.59337C1.92481 3.94005 3.95928 1.80082 6.5616 1.80082C7.96556 1.80082 8.99062 2.36383 9.74743 3.08755L10.9938 1.81679C9.93639 0.787611 8.53341 8.83451e-07 6.5616 8.83451e-07C2.99687 8.83451e-07 -1.7927e-07 2.95878 -1.7927e-07 6.59337C-1.7927e-07 10.228 2.99687 13.1867 6.5616 13.1867C8.48543 13.1867 9.93737 12.5429 11.0721 11.337C12.2391 10.1471 12.6023 8.47404 12.6023 7.12343C12.6023 6.70616 12.571 6.31985 12.5074 5.99841L6.5616 5.99941ZM50.9204 7.39794C50.5738 6.44962 49.5165 4.69571 47.3557 4.69571C45.2106 4.69571 43.4277 6.41668 43.4277 8.94122C43.4277 11.321 45.1949 13.1867 47.5603 13.1867C49.4685 13.1867 50.5729 11.9968 51.0311 11.3051L49.6114 10.3398C49.1385 11.0475 48.4914 11.5137 47.5603 11.5137C46.6302 11.5137 45.9674 11.0794 45.5415 10.227L51.1094 7.87909L50.9204 7.39794ZM45.2419 8.81345C45.1949 7.17234 46.4883 6.33682 47.4193 6.33682C48.1448 6.33682 48.7597 6.70716 48.9653 7.23723L45.2419 8.81345ZM40.7158 12.9302H42.5446V0.451204H40.7158V12.9302ZM37.7179 5.64504H37.6553C37.245 5.14592 36.4559 4.69571 35.4632 4.69571C33.3807 4.69571 31.4726 6.56142 31.4726 8.95819C31.4726 11.338 33.3807 13.1877 35.4632 13.1877C36.4569 13.1877 37.245 12.7375 37.6553 12.2234H37.7179V12.8344C37.7179 14.4585 36.8661 15.327 35.4945 15.327C34.3745 15.327 33.6803 14.5074 33.3964 13.8156L31.8035 14.4914C32.2607 15.6164 33.4747 17 35.4945 17C37.6396 17 39.4538 15.7133 39.4538 12.5768V4.95426H37.7189L37.7179 5.64504ZM35.6208 11.5157C34.3588 11.5157 33.3024 10.4376 33.3024 8.95819C33.3024 7.46183 34.3588 6.36876 35.6208 6.36876C36.8662 6.36876 37.8442 7.46183 37.8442 8.95819C37.8442 10.4376 36.8662 11.5157 35.6208 11.5157ZM59.491 0.451204H55.1137V12.9302H56.9396V8.20253H59.4901C61.5147 8.20253 63.5061 6.70816 63.5061 4.32736C63.5061 1.94656 61.5157 0.451204 59.491 0.451204ZM59.538 6.46559H56.9396V2.18814H59.538C60.9038 2.18814 61.6792 3.3411 61.6792 4.32736C61.6792 5.29366 60.9038 6.46559 59.538 6.46559ZM70.8284 4.67375C69.5057 4.67375 68.136 5.26771 67.5692 6.58438L69.1905 7.27416C69.5371 6.58438 70.1832 6.35878 70.8598 6.35878C71.8046 6.35878 72.765 6.93676 72.7807 7.96395V8.09272C72.4497 7.90006 71.7409 7.61157 70.8754 7.61157C69.1278 7.61157 67.3479 8.59084 67.3479 10.4206C67.3479 12.0907 68.7812 13.1658 70.3869 13.1658C71.6146 13.1658 72.2921 12.6038 72.717 11.9449H72.7797V12.9082H74.5439V8.12367C74.5449 5.90957 72.9217 4.67375 70.8284 4.67375ZM70.6072 11.5127C70.01 11.5127 69.1748 11.2072 69.1748 10.4526C69.1748 9.48926 70.2146 9.1199 71.1124 9.1199C71.9142 9.1199 72.2931 9.2966 72.7807 9.53717C72.6387 10.6941 71.6626 11.5127 70.6072 11.5127ZM80.9685 4.94627L78.8743 10.3567H78.8116L76.6381 4.94627H74.6702L77.9295 12.5079L76.0713 16.7145H77.9765L83 4.94627H80.9685ZM64.5145 12.9302H66.3405V0.451204H64.5145V12.9302Z" fill="white"/>
</svg>
