<svg width="690" height="659" viewBox="0 0 690 659" fill="none" xmlns="http://www.w3.org/2000/svg">
<rect opacity="0.04" x="215" y="150" width="298" height="281" rx="19" fill="#4732BA"/>
<g filter="url(#filter0_d_129_3018)">
<rect x="151" y="307" width="354" height="328" rx="21.7101" fill="white"/>
<line opacity="0.2" x1="169.881" y1="430.485" x2="486.121" y2="430.485" stroke="#141F39" stroke-width="0.566701" stroke-dasharray="2.27 3.4"/>
<line opacity="0.2" x1="169.881" y1="457.163" x2="486.121" y2="457.163" stroke="#141F39" stroke-width="0.566701" stroke-dasharray="2.27 3.4"/>
<line opacity="0.2" x1="169.881" y1="483.839" x2="486.121" y2="483.839" stroke="#141F39" stroke-width="0.566701" stroke-dasharray="2.27 3.4"/>
<line opacity="0.2" x1="169.881" y1="510.517" x2="486.121" y2="510.517" stroke="#141F39" stroke-width="0.566701" stroke-dasharray="2.27 3.4"/>
<line opacity="0.2" x1="169.881" y1="537.194" x2="486.121" y2="537.194" stroke="#141F39" stroke-width="0.566701" stroke-dasharray="2.27 3.4"/>
<line opacity="0.2" x1="169.881" y1="563.872" x2="486.121" y2="563.872" stroke="#141F39" stroke-width="0.566701" stroke-dasharray="2.27 3.4"/>
<line opacity="0.2" x1="169.881" y1="590.547" x2="486.121" y2="590.547" stroke="#141F39" stroke-width="0.566701" stroke-dasharray="2.27 3.4"/>
<line opacity="0.2" x1="169.881" y1="617.225" x2="486.121" y2="617.225" stroke="#141F39" stroke-width="0.566701" stroke-dasharray="2.27 3.4"/>
<path opacity="0.5" d="M169.878 542.554C177.745 538.107 185.415 533.965 193.509 533.965C199.824 533.965 205.88 536.486 211.975 539.023C216.53 540.92 221.107 542.825 225.828 543.692C236.076 545.718 247.112 541.665 257.359 535.992C268.395 530.318 279.431 522.618 289.679 511.27C292.128 508.751 294.539 506.053 296.928 503.378C305.303 494.004 313.412 484.927 321.998 484.927C328.206 484.927 334.704 490.431 341.316 496.032C345.618 499.675 349.968 503.36 354.317 505.596C360.689 509.124 367.365 509.048 373.968 508.973C377.984 508.928 381.973 508.883 385.849 509.649C396.035 511.145 391.917 512.426 402 519.5C402.841 520.09 417.5 526.67 418.168 526.67C428.416 533.965 444.964 511.947 456 516C466.248 519.647 473.752 508.727 484 499M484 499C479.5 503.372 485.054 498 484 499Z" stroke="#27D692" stroke-width="2.83175" stroke-linecap="round"/>
<path opacity="0.5" d="M169.878 541.167C170.566 541.069 171.251 540.95 171.934 540.811C178.163 539.627 184.202 537.026 190.213 534.438C198.254 530.974 206.245 527.533 214.577 527.533C225.748 527.533 236.306 533.719 247.192 540.097C250.496 542.033 253.83 543.986 257.221 545.79C270.741 553.535 285.303 559.068 298.824 553.535C312.112 548.991 324.534 535.693 337.671 521.629C338.929 520.282 340.194 518.928 341.467 517.574C342.55 516.421 343.628 515.269 344.701 514.121C358.046 499.848 370.632 486.387 384.11 483.826C390.341 482.551 396.793 484.097 403.263 485.646C410.831 487.459 418.423 489.277 425.713 486.592C433.231 483.736 440.75 476.896 448.126 470.187C455.034 463.903 461.817 457.733 468.356 455.057C474.397 452.992 480.258 453.592 486.089 455.713" stroke="#D4767F" stroke-width="2.83175" stroke-linecap="round"/>
<path opacity="0.5" d="M486 456L471.5 468.124C457.5 480.624 448.39 493.545 433 485C416.686 474.821 400.754 474.696 384.44 478.514C366.871 482.755 349.301 490.814 332.987 498.448C331.635 499.069 330.29 499.689 328.951 500.306C312.899 507.71 297.752 514.697 281.535 516.262C275.364 517.065 269.014 517.017 262.62 516.97C252.11 516.891 241.481 516.812 231.337 520.504C224.412 522.844 217.487 526.701 210.639 530.514C200.113 536.375 189.769 542.135 179.885 542.135C176.509 542.135 173.179 541.556 169.878 540.535" stroke="#4830E2" stroke-width="2.83175" stroke-linecap="round"/>
<path opacity="0.3" d="M170.831 364V357.135H174.948V357.873H171.663V360.192H174.639V360.93H171.663V364H170.831ZM177.978 364.107C177.513 364.107 177.105 363.997 176.754 363.775C176.406 363.554 176.133 363.245 175.936 362.847C175.742 362.449 175.645 361.984 175.645 361.452C175.645 360.916 175.742 360.448 175.936 360.048C176.133 359.648 176.406 359.337 176.754 359.116C177.105 358.895 177.513 358.784 177.978 358.784C178.443 358.784 178.849 358.895 179.198 359.116C179.549 359.337 179.821 359.648 180.016 360.048C180.212 360.448 180.311 360.916 180.311 361.452C180.311 361.984 180.212 362.449 180.016 362.847C179.821 363.245 179.549 363.554 179.198 363.775C178.849 363.997 178.443 364.107 177.978 364.107ZM177.978 363.397C178.331 363.397 178.621 363.306 178.849 363.125C179.077 362.944 179.246 362.706 179.355 362.411C179.465 362.116 179.52 361.797 179.52 361.452C179.52 361.108 179.465 360.788 179.355 360.49C179.246 360.193 179.077 359.953 178.849 359.77C178.621 359.587 178.331 359.495 177.978 359.495C177.625 359.495 177.334 359.587 177.106 359.77C176.878 359.953 176.71 360.193 176.6 360.49C176.491 360.788 176.436 361.108 176.436 361.452C176.436 361.797 176.491 362.116 176.6 362.411C176.71 362.706 176.878 362.944 177.106 363.125C177.334 363.306 177.625 363.397 177.978 363.397ZM182.309 357.135V364H181.518V357.135H182.309ZM184.549 357.135V364H183.758V357.135H184.549ZM188.09 364.107C187.625 364.107 187.217 363.997 186.866 363.775C186.518 363.554 186.245 363.245 186.048 362.847C185.854 362.449 185.757 361.984 185.757 361.452C185.757 360.916 185.854 360.448 186.048 360.048C186.245 359.648 186.518 359.337 186.866 359.116C187.217 358.895 187.625 358.784 188.09 358.784C188.555 358.784 188.961 358.895 189.31 359.116C189.661 359.337 189.933 359.648 190.128 360.048C190.324 360.448 190.423 360.916 190.423 361.452C190.423 361.984 190.324 362.449 190.128 362.847C189.933 363.245 189.661 363.554 189.31 363.775C188.961 363.997 188.555 364.107 188.09 364.107ZM188.09 363.397C188.443 363.397 188.733 363.306 188.961 363.125C189.189 362.944 189.358 362.706 189.467 362.411C189.577 362.116 189.632 361.797 189.632 361.452C189.632 361.108 189.577 360.788 189.467 360.49C189.358 360.193 189.189 359.953 188.961 359.77C188.733 359.587 188.443 359.495 188.09 359.495C187.737 359.495 187.446 359.587 187.218 359.77C186.99 359.953 186.822 360.193 186.712 360.49C186.603 360.788 186.548 361.108 186.548 361.452C186.548 361.797 186.603 362.116 186.712 362.411C186.822 362.706 186.99 362.944 187.218 363.125C187.446 363.306 187.737 363.397 188.09 363.397ZM192.622 364L191.053 358.851H191.884L192.997 362.793H193.051L194.15 358.851H194.995L196.081 362.78H196.135L197.247 358.851H198.079L196.51 364H195.732L194.606 360.045H194.526L193.399 364H192.622ZM204.018 358.851V359.522H201.35V358.851H204.018ZM202.128 357.618H202.919V362.525C202.919 362.749 202.951 362.916 203.016 363.028C203.083 363.137 203.168 363.211 203.271 363.249C203.376 363.285 203.487 363.303 203.603 363.303C203.69 363.303 203.761 363.298 203.817 363.289C203.873 363.278 203.918 363.269 203.951 363.263L204.112 363.973C204.059 363.993 203.984 364.013 203.888 364.034C203.792 364.056 203.67 364.067 203.522 364.067C203.299 364.067 203.08 364.019 202.865 363.923C202.653 363.827 202.476 363.68 202.336 363.484C202.197 363.287 202.128 363.039 202.128 362.74V357.618ZM206.11 360.903V364H205.319V357.135H206.11V359.656H206.177C206.298 359.39 206.479 359.179 206.72 359.022C206.964 358.864 207.288 358.784 207.692 358.784C208.043 358.784 208.35 358.855 208.614 358.996C208.878 359.134 209.082 359.347 209.227 359.636C209.375 359.922 209.449 360.286 209.449 360.728V364H208.657V360.782C208.657 360.373 208.551 360.057 208.339 359.833C208.129 359.608 207.837 359.495 207.464 359.495C207.205 359.495 206.973 359.55 206.767 359.659C206.564 359.769 206.403 359.928 206.284 360.139C206.168 360.349 206.11 360.603 206.11 360.903ZM213.054 364.107C212.558 364.107 212.13 363.998 211.771 363.779C211.413 363.558 211.137 363.249 210.943 362.854C210.751 362.456 210.654 361.993 210.654 361.466C210.654 360.939 210.751 360.474 210.943 360.071C211.137 359.667 211.408 359.352 211.754 359.126C212.102 358.898 212.509 358.784 212.974 358.784C213.242 358.784 213.507 358.829 213.768 358.918C214.03 359.008 214.268 359.153 214.482 359.354C214.697 359.553 214.868 359.817 214.995 360.145C215.123 360.474 215.186 360.878 215.186 361.359V361.694H211.218V361.01H214.382C214.382 360.72 214.324 360.46 214.208 360.232C214.094 360.004 213.93 359.825 213.718 359.693C213.508 359.561 213.26 359.495 212.974 359.495C212.659 359.495 212.386 359.573 212.156 359.73C211.928 359.884 211.753 360.085 211.63 360.333C211.507 360.581 211.445 360.847 211.445 361.131V361.587C211.445 361.975 211.513 362.305 211.647 362.575C211.783 362.844 211.972 363.048 212.213 363.189C212.454 363.327 212.735 363.397 213.054 363.397C213.262 363.397 213.45 363.368 213.618 363.309C213.787 363.249 213.934 363.16 214.057 363.041C214.18 362.921 214.275 362.771 214.342 362.592L215.106 362.807C215.025 363.066 214.89 363.294 214.7 363.49C214.51 363.685 214.276 363.837 213.996 363.946C213.717 364.054 213.403 364.107 213.054 364.107ZM219.152 364V357.135H221.471C222.01 357.135 222.45 357.232 222.792 357.427C223.136 357.619 223.391 357.879 223.556 358.208C223.722 358.536 223.804 358.903 223.804 359.307C223.804 359.712 223.722 360.079 223.556 360.41C223.393 360.741 223.141 361.004 222.799 361.201C222.457 361.396 222.019 361.493 221.485 361.493H219.822V360.755H221.458C221.827 360.755 222.123 360.692 222.346 360.564C222.57 360.437 222.732 360.265 222.832 360.048C222.935 359.829 222.986 359.582 222.986 359.307C222.986 359.032 222.935 358.787 222.832 358.57C222.732 358.353 222.568 358.183 222.343 358.06C222.117 357.935 221.818 357.873 221.444 357.873H219.983V364H219.152ZM225.036 364V358.851H225.8V359.629H225.854C225.948 359.374 226.118 359.168 226.363 359.009C226.609 358.85 226.886 358.771 227.195 358.771C227.253 358.771 227.325 358.772 227.413 358.774C227.5 358.777 227.566 358.78 227.61 358.784V359.589C227.584 359.582 227.522 359.572 227.426 359.559C227.332 359.543 227.233 359.535 227.128 359.535C226.877 359.535 226.654 359.588 226.457 359.693C226.263 359.796 226.109 359.939 225.995 360.122C225.883 360.303 225.827 360.509 225.827 360.742V364H225.036ZM228.548 364V358.851H229.339V364H228.548ZM228.95 357.993C228.796 357.993 228.663 357.941 228.551 357.836C228.442 357.731 228.387 357.604 228.387 357.457C228.387 357.309 228.442 357.183 228.551 357.078C228.663 356.973 228.796 356.921 228.95 356.921C229.105 356.921 229.236 356.973 229.346 357.078C229.458 357.183 229.513 357.309 229.513 357.457C229.513 357.604 229.458 357.731 229.346 357.836C229.236 357.941 229.105 357.993 228.95 357.993ZM232.88 364.107C232.397 364.107 231.981 363.993 231.633 363.765C231.284 363.537 231.016 363.223 230.828 362.823C230.641 362.423 230.547 361.966 230.547 361.452C230.547 360.93 230.643 360.468 230.835 360.068C231.029 359.666 231.3 359.352 231.646 359.126C231.995 358.898 232.401 358.784 232.866 358.784C233.228 358.784 233.555 358.851 233.845 358.985C234.136 359.12 234.374 359.307 234.559 359.549C234.745 359.79 234.86 360.071 234.904 360.393H234.113C234.053 360.159 233.919 359.951 233.711 359.77C233.505 359.587 233.228 359.495 232.88 359.495C232.571 359.495 232.301 359.575 232.069 359.736C231.838 359.895 231.658 360.12 231.529 360.41C231.401 360.698 231.338 361.037 231.338 361.426C231.338 361.823 231.4 362.17 231.525 362.465C231.653 362.76 231.832 362.989 232.062 363.152C232.294 363.315 232.567 363.397 232.88 363.397C233.085 363.397 233.272 363.361 233.439 363.289C233.607 363.218 233.749 363.115 233.865 362.981C233.981 362.847 234.064 362.686 234.113 362.498H234.904C234.86 362.802 234.749 363.076 234.572 363.32C234.398 363.561 234.167 363.753 233.879 363.896C233.593 364.037 233.26 364.107 232.88 364.107ZM238.219 364.107C237.723 364.107 237.295 363.998 236.936 363.779C236.578 363.558 236.302 363.249 236.108 362.854C235.915 362.456 235.819 361.993 235.819 361.466C235.819 360.939 235.915 360.474 236.108 360.071C236.302 359.667 236.572 359.352 236.919 359.126C237.267 358.898 237.674 358.784 238.139 358.784C238.407 358.784 238.672 358.829 238.933 358.918C239.195 359.008 239.433 359.153 239.647 359.354C239.862 359.553 240.033 359.817 240.16 360.145C240.288 360.474 240.351 360.878 240.351 361.359V361.694H236.383V361.01H239.547C239.547 360.72 239.489 360.46 239.372 360.232C239.259 360.004 239.095 359.825 238.883 359.693C238.673 359.561 238.425 359.495 238.139 359.495C237.824 359.495 237.551 359.573 237.321 359.73C237.093 359.884 236.918 360.085 236.795 360.333C236.672 360.581 236.61 360.847 236.61 361.131V361.587C236.61 361.975 236.677 362.305 236.812 362.575C236.948 362.844 237.137 363.048 237.378 363.189C237.619 363.327 237.9 363.397 238.219 363.397C238.427 363.397 238.615 363.368 238.783 363.309C238.952 363.249 239.099 363.16 239.222 363.041C239.345 362.921 239.44 362.771 239.507 362.592L240.271 362.807C240.19 363.066 240.055 363.294 239.865 363.49C239.675 363.685 239.441 363.837 239.161 363.946C238.882 364.054 238.568 364.107 238.219 364.107ZM245.202 360.004L244.491 360.206C244.446 360.087 244.38 359.972 244.293 359.86C244.208 359.746 244.092 359.652 243.945 359.579C243.797 359.505 243.608 359.468 243.378 359.468C243.063 359.468 242.8 359.541 242.59 359.686C242.383 359.829 242.279 360.011 242.279 360.232C242.279 360.429 242.35 360.584 242.493 360.698C242.636 360.812 242.86 360.907 243.164 360.983L243.928 361.171C244.388 361.283 244.731 361.454 244.957 361.684C245.183 361.912 245.295 362.206 245.295 362.565C245.295 362.86 245.21 363.124 245.041 363.356C244.873 363.589 244.638 363.772 244.337 363.906C244.035 364.04 243.684 364.107 243.284 364.107C242.759 364.107 242.324 363.993 241.98 363.765C241.636 363.537 241.418 363.204 241.327 362.766L242.078 362.579C242.149 362.856 242.284 363.064 242.483 363.202C242.684 363.341 242.947 363.41 243.271 363.41C243.64 363.41 243.932 363.332 244.149 363.175C244.368 363.017 244.478 362.827 244.478 362.606C244.478 362.427 244.415 362.277 244.29 362.156C244.165 362.034 243.972 361.942 243.713 361.882L242.855 361.68C242.384 361.569 242.037 361.396 241.816 361.161C241.597 360.924 241.488 360.628 241.488 360.273C241.488 359.982 241.569 359.725 241.732 359.502C241.898 359.278 242.122 359.103 242.406 358.975C242.692 358.848 243.016 358.784 243.378 358.784C243.888 358.784 244.288 358.896 244.578 359.12C244.871 359.343 245.079 359.638 245.202 360.004ZM250.656 364.121C250.33 364.121 250.034 364.059 249.768 363.936C249.502 363.811 249.291 363.631 249.134 363.397C248.978 363.16 248.9 362.874 248.9 362.539C248.9 362.244 248.958 362.004 249.074 361.821C249.19 361.636 249.345 361.49 249.54 361.385C249.734 361.28 249.949 361.202 250.183 361.151C250.42 361.097 250.658 361.055 250.897 361.023C251.21 360.983 251.464 360.953 251.658 360.933C251.855 360.911 251.998 360.874 252.087 360.822C252.179 360.771 252.225 360.682 252.225 360.554V360.527C252.225 360.197 252.134 359.94 251.953 359.756C251.775 359.573 251.503 359.482 251.139 359.482C250.761 359.482 250.465 359.564 250.25 359.73C250.036 359.895 249.885 360.071 249.798 360.259L249.047 359.991C249.181 359.678 249.36 359.435 249.583 359.26C249.809 359.084 250.055 358.961 250.321 358.892C250.589 358.82 250.853 358.784 251.112 358.784C251.277 358.784 251.467 358.804 251.682 358.845C251.899 358.883 252.107 358.962 252.309 359.083C252.512 359.203 252.681 359.385 252.815 359.629C252.949 359.873 253.016 360.199 253.016 360.608V364H252.225V363.303H252.185C252.131 363.415 252.042 363.534 251.916 363.661C251.791 363.789 251.625 363.897 251.417 363.987C251.209 364.076 250.956 364.121 250.656 364.121ZM250.777 363.41C251.09 363.41 251.353 363.349 251.568 363.226C251.785 363.103 251.948 362.944 252.057 362.75C252.169 362.555 252.225 362.351 252.225 362.136V361.412C252.191 361.452 252.118 361.489 252.004 361.523C251.892 361.554 251.762 361.582 251.615 361.607C251.469 361.629 251.328 361.649 251.189 361.667C251.053 361.683 250.942 361.696 250.857 361.707C250.652 361.734 250.459 361.778 250.281 361.838C250.104 361.896 249.961 361.984 249.852 362.103C249.744 362.219 249.691 362.378 249.691 362.579C249.691 362.854 249.792 363.061 249.996 363.202C250.201 363.341 250.462 363.41 250.777 363.41ZM255.251 360.903V364H254.46V358.851H255.224V359.656H255.291C255.412 359.394 255.595 359.184 255.841 359.026C256.087 358.865 256.404 358.784 256.793 358.784C257.141 358.784 257.446 358.856 257.708 358.999C257.969 359.14 258.173 359.354 258.318 359.642C258.463 359.928 258.536 360.29 258.536 360.728V364H257.745V360.782C257.745 360.378 257.64 360.063 257.43 359.837C257.22 359.609 256.931 359.495 256.565 359.495C256.312 359.495 256.087 359.55 255.888 359.659C255.691 359.769 255.536 359.928 255.422 360.139C255.308 360.349 255.251 360.603 255.251 360.903ZM261.925 364.107C261.496 364.107 261.118 363.999 260.789 363.782C260.461 363.563 260.204 363.255 260.018 362.857C259.833 362.457 259.74 361.984 259.74 361.439C259.74 360.898 259.833 360.429 260.018 360.031C260.204 359.633 260.462 359.326 260.792 359.109C261.123 358.893 261.505 358.784 261.939 358.784C262.274 358.784 262.539 358.84 262.733 358.952C262.93 359.061 263.08 359.187 263.182 359.327C263.287 359.466 263.369 359.58 263.427 359.669H263.494V357.135H264.285V364H263.521V363.209H263.427C263.369 363.303 263.286 363.421 263.179 363.564C263.072 363.705 262.919 363.831 262.72 363.943C262.521 364.053 262.256 364.107 261.925 364.107ZM262.033 363.397C262.35 363.397 262.618 363.314 262.837 363.149C263.056 362.981 263.223 362.75 263.337 362.455C263.451 362.158 263.508 361.815 263.508 361.426C263.508 361.041 263.452 360.705 263.34 360.417C263.228 360.126 263.063 359.901 262.844 359.74C262.625 359.577 262.354 359.495 262.033 359.495C261.697 359.495 261.418 359.581 261.195 359.753C260.973 359.923 260.807 360.154 260.695 360.447C260.586 360.737 260.531 361.064 260.531 361.426C260.531 361.792 260.587 362.125 260.699 362.425C260.813 362.722 260.98 362.959 261.201 363.135C261.425 363.309 261.702 363.397 262.033 363.397ZM268.23 357.873V357.135H273.379V357.873H271.22V364H270.389V357.873H268.23ZM274.02 364V358.851H274.784V359.629H274.838C274.932 359.374 275.102 359.168 275.348 359.009C275.593 358.85 275.87 358.771 276.179 358.771C276.237 358.771 276.31 358.772 276.397 358.774C276.484 358.777 276.55 358.78 276.594 358.784V359.589C276.568 359.582 276.506 359.572 276.41 359.559C276.316 359.543 276.217 359.535 276.112 359.535C275.862 359.535 275.638 359.588 275.441 359.693C275.247 359.796 275.093 359.939 274.979 360.122C274.867 360.303 274.811 360.509 274.811 360.742V364H274.02ZM279.534 364.107C279.038 364.107 278.61 363.998 278.25 363.779C277.893 363.558 277.617 363.249 277.422 362.854C277.23 362.456 277.134 361.993 277.134 361.466C277.134 360.939 277.23 360.474 277.422 360.071C277.617 359.667 277.887 359.352 278.234 359.126C278.582 358.898 278.989 358.784 279.454 358.784C279.722 358.784 279.987 358.829 280.248 358.918C280.51 359.008 280.748 359.153 280.962 359.354C281.177 359.553 281.348 359.817 281.475 360.145C281.602 360.474 281.666 360.878 281.666 361.359V361.694H277.697V361.01H280.862C280.862 360.72 280.803 360.46 280.687 360.232C280.573 360.004 280.41 359.825 280.198 359.693C279.988 359.561 279.74 359.495 279.454 359.495C279.139 359.495 278.866 359.573 278.636 359.73C278.408 359.884 278.232 360.085 278.11 360.333C277.987 360.581 277.925 360.847 277.925 361.131V361.587C277.925 361.975 277.992 362.305 278.126 362.575C278.263 362.844 278.451 363.048 278.693 363.189C278.934 363.327 279.215 363.397 279.534 363.397C279.742 363.397 279.93 363.368 280.097 363.309C280.267 363.249 280.413 363.16 280.536 363.041C280.659 362.921 280.754 362.771 280.821 362.592L281.586 362.807C281.505 363.066 281.37 363.294 281.18 363.49C280.99 363.685 280.755 363.837 280.476 363.946C280.197 364.054 279.883 364.107 279.534 364.107ZM283.66 360.903V364H282.869V358.851H283.634V359.656H283.701C283.821 359.394 284.005 359.184 284.25 359.026C284.496 358.865 284.814 358.784 285.202 358.784C285.551 358.784 285.856 358.856 286.117 358.999C286.379 359.14 286.582 359.354 286.727 359.642C286.873 359.928 286.945 360.29 286.945 360.728V364H286.154V360.782C286.154 360.378 286.049 360.063 285.839 359.837C285.629 359.609 285.341 359.495 284.974 359.495C284.722 359.495 284.496 359.55 284.297 359.659C284.101 359.769 283.945 359.928 283.831 360.139C283.717 360.349 283.66 360.603 283.66 360.903ZM290.335 364.107C289.906 364.107 289.527 363.999 289.199 363.782C288.87 363.563 288.613 363.255 288.428 362.857C288.242 362.457 288.15 361.984 288.15 361.439C288.15 360.898 288.242 360.429 288.428 360.031C288.613 359.633 288.871 359.326 289.202 359.109C289.533 358.893 289.915 358.784 290.348 358.784C290.684 358.784 290.948 358.84 291.143 358.952C291.34 359.061 291.489 359.187 291.592 359.327C291.697 359.466 291.779 359.58 291.837 359.669H291.904V357.135H292.695V364H291.931V363.209H291.837C291.779 363.303 291.696 363.421 291.589 363.564C291.481 363.705 291.328 363.831 291.129 363.943C290.931 364.053 290.666 364.107 290.335 364.107ZM290.442 363.397C290.76 363.397 291.028 363.314 291.247 363.149C291.466 362.981 291.632 362.75 291.746 362.455C291.86 362.158 291.917 361.815 291.917 361.426C291.917 361.041 291.861 360.705 291.75 360.417C291.638 360.126 291.473 359.901 291.254 359.74C291.035 359.577 290.764 359.495 290.442 359.495C290.107 359.495 289.828 359.581 289.604 359.753C289.383 359.923 289.217 360.154 289.105 360.447C288.995 360.737 288.941 361.064 288.941 361.426C288.941 361.792 288.997 362.125 289.108 362.425C289.222 362.722 289.39 362.959 289.611 363.135C289.835 363.309 290.112 363.397 290.442 363.397ZM297.9 360.004L297.19 360.206C297.145 360.087 297.079 359.972 296.992 359.86C296.907 359.746 296.791 359.652 296.643 359.579C296.496 359.505 296.307 359.468 296.077 359.468C295.762 359.468 295.499 359.541 295.289 359.686C295.081 359.829 294.978 360.011 294.978 360.232C294.978 360.429 295.049 360.584 295.192 360.698C295.335 360.812 295.559 360.907 295.862 360.983L296.627 361.171C297.087 361.283 297.43 361.454 297.656 361.684C297.881 361.912 297.994 362.206 297.994 362.565C297.994 362.86 297.909 363.124 297.74 363.356C297.572 363.589 297.337 363.772 297.036 363.906C296.734 364.04 296.383 364.107 295.983 364.107C295.458 364.107 295.023 363.993 294.679 363.765C294.335 363.537 294.117 363.204 294.026 362.766L294.776 362.579C294.848 362.856 294.983 363.064 295.182 363.202C295.383 363.341 295.646 363.41 295.97 363.41C296.338 363.41 296.631 363.332 296.848 363.175C297.067 363.017 297.176 362.827 297.176 362.606C297.176 362.427 297.114 362.277 296.989 362.156C296.864 362.034 296.671 361.942 296.412 361.882L295.554 361.68C295.083 361.569 294.736 361.396 294.515 361.161C294.296 360.924 294.186 360.628 294.186 360.273C294.186 359.982 294.268 359.725 294.431 359.502C294.597 359.278 294.821 359.103 295.105 358.975C295.391 358.848 295.715 358.784 296.077 358.784C296.586 358.784 296.986 358.896 297.277 359.12C297.57 359.343 297.778 359.638 297.9 360.004Z" fill="#141F39"/>
<path d="M182.042 337.932C182.042 339.239 181.797 340.359 181.307 341.292C180.821 342.22 180.158 342.931 179.316 343.425C178.479 343.919 177.528 344.166 176.466 344.166C175.403 344.166 174.451 343.919 173.609 343.425C172.772 342.927 172.108 342.214 171.618 341.286C171.132 340.353 170.889 339.235 170.889 337.932C170.889 336.624 171.132 335.506 171.618 334.577C172.108 333.645 172.772 332.932 173.609 332.438C174.451 331.944 175.403 331.697 176.466 331.697C177.528 331.697 178.479 331.944 179.316 332.438C180.158 332.932 180.821 333.645 181.307 334.577C181.797 335.506 182.042 336.624 182.042 337.932ZM179.832 337.932C179.832 337.011 179.687 336.235 179.399 335.602C179.115 334.966 178.72 334.486 178.214 334.162C177.708 333.834 177.125 333.671 176.466 333.671C175.806 333.671 175.223 333.834 174.717 334.162C174.212 334.486 173.815 334.966 173.526 335.602C173.242 336.235 173.099 337.011 173.099 337.932C173.099 338.852 173.242 339.63 173.526 340.266C173.815 340.899 174.212 341.379 174.717 341.707C175.223 342.031 175.806 342.192 176.466 342.192C177.125 342.192 177.708 342.031 178.214 341.707C178.72 341.379 179.115 340.899 179.399 340.266C179.687 339.63 179.832 338.852 179.832 337.932ZM186.171 338.666V344H184.026V334.897H186.076V336.444H186.183C186.393 335.934 186.726 335.529 187.185 335.229C187.647 334.929 188.218 334.779 188.897 334.779C189.526 334.779 190.073 334.913 190.539 335.182C191.009 335.45 191.373 335.84 191.629 336.349C191.89 336.859 192.019 337.477 192.015 338.204V344H189.869V338.536C189.869 337.928 189.711 337.451 189.395 337.108C189.083 336.764 188.65 336.592 188.097 336.592C187.722 336.592 187.388 336.675 187.096 336.841C186.807 337.003 186.58 337.238 186.414 337.546C186.252 337.854 186.171 338.228 186.171 338.666ZM196.341 331.863V344H194.195V331.863H196.341ZM198.547 344V334.897H200.692V344H198.547ZM199.625 333.605C199.286 333.605 198.993 333.493 198.748 333.268C198.503 333.038 198.381 332.764 198.381 332.444C198.381 332.12 198.503 331.845 198.748 331.62C198.993 331.391 199.286 331.276 199.625 331.276C199.969 331.276 200.261 331.391 200.502 331.62C200.747 331.845 200.87 332.12 200.87 332.444C200.87 332.764 200.747 333.038 200.502 333.268C200.261 333.493 199.969 333.605 199.625 333.605ZM205.043 338.666V344H202.898V334.897H204.949V336.444H205.055C205.265 335.934 205.599 335.529 206.057 335.229C206.519 334.929 207.09 334.779 207.77 334.779C208.398 334.779 208.945 334.913 209.411 335.182C209.881 335.45 210.245 335.84 210.502 336.349C210.762 336.859 210.891 337.477 210.887 338.204V344H208.741V338.536C208.741 337.928 208.583 337.451 208.267 337.108C207.955 336.764 207.523 336.592 206.969 336.592C206.594 336.592 206.26 336.675 205.968 336.841C205.68 337.003 205.452 337.238 205.286 337.546C205.124 337.854 205.043 338.228 205.043 338.666ZM217.097 344.178C216.185 344.178 215.397 343.988 214.733 343.609C214.073 343.226 213.565 342.684 213.21 341.985C212.854 341.282 212.676 340.454 212.676 339.502C212.676 338.566 212.854 337.744 213.21 337.037C213.569 336.325 214.071 335.772 214.715 335.377C215.359 334.978 216.116 334.779 216.985 334.779C217.546 334.779 218.075 334.87 218.573 335.051C219.075 335.229 219.517 335.506 219.901 335.881C220.288 336.256 220.592 336.734 220.813 337.315C221.034 337.892 221.145 338.579 221.145 339.378V340.035H213.684V338.589H219.089C219.085 338.178 218.996 337.813 218.822 337.493C218.648 337.169 218.405 336.914 218.093 336.728C217.785 336.543 217.425 336.45 217.014 336.45C216.576 336.45 216.191 336.557 215.859 336.77C215.527 336.979 215.268 337.256 215.083 337.6C214.901 337.939 214.808 338.313 214.804 338.72V339.982C214.804 340.511 214.901 340.966 215.094 341.345C215.288 341.72 215.559 342.009 215.906 342.21C216.254 342.408 216.661 342.507 217.127 342.507C217.439 342.507 217.722 342.463 217.975 342.376C218.227 342.285 218.447 342.153 218.632 341.979C218.818 341.805 218.958 341.59 219.053 341.333L221.056 341.558C220.93 342.088 220.689 342.55 220.333 342.945C219.982 343.336 219.531 343.64 218.982 343.858C218.433 344.071 217.805 344.178 217.097 344.178ZM226.661 333.706V331.863H236.344V333.706H232.593V344H230.412V333.706H226.661ZM237.171 344V334.897H239.251V336.414H239.346C239.512 335.889 239.797 335.484 240.199 335.2C240.606 334.911 241.071 334.767 241.592 334.767C241.711 334.767 241.843 334.773 241.989 334.785C242.139 334.793 242.264 334.806 242.363 334.826V336.8C242.272 336.768 242.128 336.74 241.93 336.717C241.736 336.689 241.549 336.675 241.367 336.675C240.976 336.675 240.624 336.76 240.312 336.93C240.004 337.096 239.761 337.327 239.583 337.623C239.405 337.92 239.316 338.261 239.316 338.649V344H237.171ZM246.244 344.184C245.667 344.184 245.148 344.081 244.686 343.876C244.227 343.666 243.864 343.358 243.595 342.951C243.331 342.544 243.198 342.042 243.198 341.446C243.198 340.932 243.293 340.507 243.483 340.172C243.672 339.836 243.931 339.567 244.259 339.366C244.587 339.164 244.956 339.012 245.367 338.909C245.782 338.803 246.211 338.726 246.653 338.678C247.187 338.623 247.619 338.574 247.951 338.53C248.283 338.483 248.524 338.412 248.674 338.317C248.828 338.218 248.905 338.066 248.905 337.86V337.825C248.905 337.378 248.773 337.033 248.508 336.788C248.243 336.543 247.862 336.42 247.364 336.42C246.839 336.42 246.422 336.535 246.114 336.764C245.81 336.993 245.604 337.264 245.498 337.576L243.494 337.291C243.653 336.738 243.913 336.276 244.277 335.905C244.64 335.529 245.085 335.249 245.61 335.063C246.136 334.874 246.716 334.779 247.352 334.779C247.791 334.779 248.228 334.83 248.662 334.933C249.097 335.036 249.494 335.205 249.853 335.442C250.213 335.676 250.501 335.994 250.719 336.397C250.94 336.8 251.05 337.303 251.05 337.908V344H248.988V342.75H248.917C248.787 343.002 248.603 343.239 248.366 343.461C248.133 343.678 247.838 343.854 247.483 343.988C247.131 344.119 246.718 344.184 246.244 344.184ZM246.801 342.607C247.232 342.607 247.605 342.522 247.921 342.352C248.237 342.179 248.48 341.95 248.65 341.665C248.824 341.381 248.911 341.07 248.911 340.735V339.662C248.844 339.717 248.729 339.769 248.567 339.816C248.409 339.863 248.232 339.905 248.034 339.941C247.836 339.976 247.641 340.008 247.447 340.035C247.254 340.063 247.086 340.087 246.944 340.106C246.624 340.15 246.337 340.221 246.084 340.32C245.831 340.419 245.632 340.557 245.486 340.735C245.34 340.908 245.266 341.134 245.266 341.41C245.266 341.805 245.411 342.104 245.699 342.305C245.987 342.507 246.355 342.607 246.801 342.607ZM256.586 344.16C255.871 344.16 255.23 343.976 254.665 343.609C254.101 343.241 253.654 342.708 253.326 342.009C252.998 341.309 252.834 340.46 252.834 339.46C252.834 338.449 253 337.596 253.332 336.9C253.668 336.201 254.12 335.674 254.689 335.318C255.258 334.959 255.892 334.779 256.592 334.779C257.125 334.779 257.563 334.87 257.907 335.051C258.251 335.229 258.523 335.444 258.725 335.697C258.926 335.946 259.083 336.181 259.193 336.403H259.282V331.863H261.433V344H259.324V342.566H259.193C259.083 342.787 258.923 343.022 258.713 343.271C258.504 343.516 258.227 343.725 257.883 343.899C257.54 344.073 257.107 344.16 256.586 344.16ZM257.184 342.4C257.639 342.4 258.026 342.277 258.346 342.032C258.666 341.784 258.909 341.438 259.075 340.995C259.241 340.553 259.324 340.037 259.324 339.449C259.324 338.86 259.241 338.348 259.075 337.914C258.913 337.479 258.672 337.141 258.352 336.9C258.036 336.659 257.646 336.539 257.184 336.539C256.706 336.539 256.307 336.663 255.987 336.912C255.667 337.161 255.426 337.505 255.264 337.943C255.102 338.382 255.021 338.884 255.021 339.449C255.021 340.018 255.102 340.525 255.264 340.972C255.43 341.414 255.673 341.764 255.993 342.021C256.317 342.273 256.714 342.4 257.184 342.4ZM263.719 344V334.897H265.865V344H263.719ZM264.798 333.605C264.458 333.605 264.166 333.493 263.921 333.268C263.676 333.038 263.553 332.764 263.553 332.444C263.553 332.12 263.676 331.845 263.921 331.62C264.166 331.391 264.458 331.276 264.798 331.276C265.142 331.276 265.434 331.391 265.675 331.62C265.92 331.845 266.042 332.12 266.042 332.444C266.042 332.764 265.92 333.038 265.675 333.268C265.434 333.493 265.142 333.605 264.798 333.605ZM270.216 338.666V344H268.071V334.897H270.121V336.444H270.228C270.437 335.934 270.771 335.529 271.229 335.229C271.692 334.929 272.263 334.779 272.942 334.779C273.57 334.779 274.117 334.913 274.584 335.182C275.054 335.45 275.417 335.84 275.674 336.349C275.935 336.859 276.063 337.477 276.059 338.204V344H273.914V338.536C273.914 337.928 273.756 337.451 273.44 337.108C273.128 336.764 272.695 336.592 272.142 336.592C271.767 336.592 271.433 336.675 271.141 336.841C270.852 337.003 270.625 337.238 270.459 337.546C270.297 337.854 270.216 338.228 270.216 338.666ZM282.199 347.603C281.428 347.603 280.767 347.498 280.214 347.289C279.66 347.084 279.216 346.807 278.88 346.459C278.544 346.112 278.311 345.727 278.181 345.304L280.113 344.836C280.2 345.013 280.326 345.189 280.492 345.363C280.658 345.541 280.881 345.687 281.162 345.802C281.446 345.92 281.804 345.979 282.234 345.979C282.843 345.979 283.347 345.831 283.746 345.535C284.145 345.243 284.344 344.761 284.344 344.089V342.364H284.238C284.127 342.586 283.965 342.813 283.752 343.046C283.542 343.279 283.264 343.475 282.916 343.633C282.572 343.791 282.14 343.87 281.618 343.87C280.919 343.87 280.285 343.706 279.716 343.378C279.151 343.046 278.7 342.552 278.365 341.896C278.033 341.236 277.867 340.411 277.867 339.419C277.867 338.419 278.033 337.576 278.365 336.888C278.7 336.197 279.153 335.674 279.722 335.318C280.291 334.959 280.925 334.779 281.624 334.779C282.157 334.779 282.596 334.87 282.94 335.051C283.287 335.229 283.564 335.444 283.769 335.697C283.975 335.946 284.131 336.181 284.238 336.403H284.356V334.897H286.472V344.148C286.472 344.926 286.286 345.57 285.915 346.08C285.543 346.59 285.036 346.971 284.392 347.224C283.748 347.477 283.017 347.603 282.199 347.603ZM282.217 342.187C282.671 342.187 283.058 342.076 283.378 341.855C283.698 341.633 283.941 341.315 284.107 340.901C284.273 340.486 284.356 339.988 284.356 339.407C284.356 338.834 284.273 338.333 284.107 337.902C283.945 337.471 283.704 337.137 283.384 336.9C283.068 336.659 282.679 336.539 282.217 336.539C281.739 336.539 281.34 336.663 281.02 336.912C280.7 337.161 280.459 337.503 280.297 337.937C280.135 338.368 280.054 338.858 280.054 339.407C280.054 339.964 280.135 340.452 280.297 340.871C280.463 341.286 280.705 341.61 281.025 341.843C281.349 342.072 281.747 342.187 282.217 342.187ZM292.905 344V331.863H297.456C298.388 331.863 299.171 332.037 299.803 332.385C300.439 332.732 300.919 333.21 301.243 333.819C301.571 334.423 301.735 335.111 301.735 335.881C301.735 336.659 301.571 337.351 301.243 337.955C300.915 338.56 300.431 339.036 299.791 339.383C299.151 339.727 298.363 339.899 297.426 339.899H294.41V338.092H297.13C297.675 338.092 298.122 337.997 298.469 337.807C298.817 337.617 299.074 337.357 299.24 337.025C299.41 336.693 299.495 336.312 299.495 335.881C299.495 335.45 299.41 335.071 299.24 334.743C299.074 334.415 298.815 334.16 298.464 333.979C298.116 333.793 297.667 333.7 297.118 333.7H295.103V344H292.905ZM305.695 331.863V344H303.55V331.863H305.695ZM310.52 344.184C309.944 344.184 309.424 344.081 308.962 343.876C308.504 343.666 308.14 343.358 307.871 342.951C307.607 342.544 307.474 342.042 307.474 341.446C307.474 340.932 307.569 340.507 307.759 340.172C307.948 339.836 308.207 339.567 308.535 339.366C308.863 339.164 309.233 339.012 309.643 338.909C310.058 338.803 310.487 338.726 310.929 338.678C311.463 338.623 311.895 338.574 312.227 338.53C312.559 338.483 312.8 338.412 312.95 338.317C313.104 338.218 313.181 338.066 313.181 337.86V337.825C313.181 337.378 313.049 337.033 312.784 336.788C312.52 336.543 312.138 336.42 311.641 336.42C311.115 336.42 310.698 336.535 310.39 336.764C310.086 336.993 309.88 337.264 309.774 337.576L307.771 337.291C307.929 336.738 308.189 336.276 308.553 335.905C308.916 335.529 309.361 335.249 309.886 335.063C310.412 334.874 310.993 334.779 311.629 334.779C312.067 334.779 312.504 334.83 312.938 334.933C313.373 335.036 313.77 335.205 314.13 335.442C314.489 335.676 314.778 335.994 314.995 336.397C315.216 336.8 315.327 337.303 315.327 337.908V344H313.264V342.75H313.193C313.063 343.002 312.879 343.239 312.642 343.461C312.409 343.678 312.115 343.854 311.759 343.988C311.407 344.119 310.995 344.184 310.52 344.184ZM311.078 342.607C311.508 342.607 311.882 342.522 312.198 342.352C312.514 342.179 312.757 341.95 312.927 341.665C313.1 341.381 313.187 341.07 313.187 340.735V339.662C313.12 339.717 313.006 339.769 312.844 339.816C312.686 339.863 312.508 339.905 312.31 339.941C312.113 339.976 311.917 340.008 311.724 340.035C311.53 340.063 311.362 340.087 311.22 340.106C310.9 340.15 310.613 340.221 310.36 340.32C310.108 340.419 309.908 340.557 309.762 340.735C309.616 340.908 309.543 341.134 309.543 341.41C309.543 341.805 309.687 342.104 309.975 342.305C310.264 342.507 310.631 342.607 311.078 342.607ZM322.029 334.897V336.557H316.796V334.897H322.029ZM318.088 332.716H320.234V341.262C320.234 341.55 320.277 341.772 320.364 341.926C320.455 342.076 320.573 342.179 320.72 342.234C320.866 342.289 321.028 342.317 321.206 342.317C321.34 342.317 321.462 342.307 321.573 342.287C321.688 342.268 321.774 342.25 321.834 342.234L322.195 343.911C322.081 343.951 321.917 343.994 321.703 344.041C321.494 344.089 321.237 344.117 320.933 344.124C320.396 344.14 319.912 344.059 319.481 343.881C319.05 343.7 318.709 343.419 318.456 343.04C318.207 342.661 318.084 342.187 318.088 341.618V332.716ZM328.434 334.897V336.557H323.053V334.897H328.434ZM324.398 344V334.038C324.398 333.426 324.525 332.916 324.778 332.509C325.034 332.102 325.378 331.798 325.809 331.596C326.239 331.395 326.717 331.294 327.243 331.294C327.614 331.294 327.944 331.324 328.233 331.383C328.521 331.442 328.734 331.496 328.873 331.543L328.446 333.202C328.355 333.175 328.24 333.147 328.102 333.119C327.964 333.088 327.81 333.072 327.64 333.072C327.241 333.072 326.958 333.169 326.793 333.362C326.631 333.552 326.55 333.825 326.55 334.18V344H324.398ZM333.743 344.178C332.854 344.178 332.083 343.982 331.431 343.591C330.779 343.2 330.274 342.653 329.914 341.95C329.559 341.246 329.381 340.424 329.381 339.484C329.381 338.544 329.559 337.72 329.914 337.013C330.274 336.306 330.779 335.757 331.431 335.365C332.083 334.974 332.854 334.779 333.743 334.779C334.631 334.779 335.402 334.974 336.054 335.365C336.706 335.757 337.209 336.306 337.565 337.013C337.925 337.72 338.104 338.544 338.104 339.484C338.104 340.424 337.925 341.246 337.565 341.95C337.209 342.653 336.706 343.2 336.054 343.591C335.402 343.982 334.631 344.178 333.743 344.178ZM333.754 342.459C334.236 342.459 334.639 342.327 334.963 342.062C335.287 341.793 335.528 341.434 335.686 340.984C335.848 340.533 335.929 340.031 335.929 339.478C335.929 338.921 335.848 338.417 335.686 337.967C335.528 337.513 335.287 337.151 334.963 336.883C334.639 336.614 334.236 336.48 333.754 336.48C333.261 336.48 332.85 336.614 332.522 336.883C332.198 337.151 331.955 337.513 331.793 337.967C331.635 338.417 331.556 338.921 331.556 339.478C331.556 340.031 331.635 340.533 331.793 340.984C331.955 341.434 332.198 341.793 332.522 342.062C332.85 342.327 333.261 342.459 333.754 342.459ZM339.925 344V334.897H342.005V336.414H342.1C342.266 335.889 342.55 335.484 342.953 335.2C343.36 334.911 343.825 334.767 344.346 334.767C344.465 334.767 344.597 334.773 344.743 334.785C344.893 334.793 345.018 334.806 345.117 334.826V336.8C345.026 336.768 344.881 336.74 344.684 336.717C344.49 336.689 344.303 336.675 344.121 336.675C343.73 336.675 343.378 336.76 343.066 336.93C342.758 337.096 342.515 337.327 342.337 337.623C342.159 337.92 342.07 338.261 342.07 338.649V344H339.925ZM346.542 344V334.897H348.592V336.444H348.699C348.889 335.923 349.203 335.516 349.641 335.223C350.08 334.927 350.603 334.779 351.212 334.779C351.828 334.779 352.348 334.929 352.77 335.229C353.197 335.525 353.497 335.93 353.671 336.444H353.766C353.967 335.938 354.307 335.535 354.785 335.235C355.267 334.931 355.838 334.779 356.498 334.779C357.335 334.779 358.019 335.043 358.548 335.573C359.078 336.102 359.342 336.875 359.342 337.89V344H357.191V338.222C357.191 337.657 357.041 337.244 356.741 336.983C356.441 336.719 356.073 336.586 355.639 336.586C355.121 336.586 354.716 336.748 354.424 337.072C354.135 337.392 353.991 337.809 353.991 338.323V344H351.887V338.133C351.887 337.663 351.745 337.288 351.461 337.007C351.18 336.727 350.813 336.586 350.358 336.586C350.05 336.586 349.77 336.665 349.517 336.823C349.264 336.977 349.062 337.197 348.912 337.481C348.762 337.762 348.687 338.09 348.687 338.465V344H346.542ZM368.713 337.303L366.758 337.517C366.702 337.319 366.606 337.133 366.467 336.96C366.333 336.786 366.151 336.646 365.922 336.539C365.693 336.432 365.412 336.379 365.081 336.379C364.634 336.379 364.259 336.476 363.955 336.669C363.654 336.863 363.506 337.114 363.51 337.422C363.506 337.687 363.603 337.902 363.801 338.068C364.002 338.234 364.334 338.37 364.796 338.477L366.349 338.809C367.21 338.994 367.85 339.289 368.269 339.692C368.692 340.095 368.905 340.622 368.909 341.274C368.905 341.847 368.737 342.352 368.405 342.791C368.077 343.226 367.621 343.565 367.036 343.81C366.452 344.055 365.78 344.178 365.021 344.178C363.907 344.178 363.01 343.945 362.331 343.478C361.651 343.008 361.246 342.354 361.116 341.517L363.208 341.315C363.303 341.726 363.504 342.036 363.812 342.246C364.121 342.455 364.522 342.56 365.015 342.56C365.525 342.56 365.934 342.455 366.242 342.246C366.554 342.036 366.71 341.778 366.71 341.469C366.71 341.209 366.61 340.993 366.408 340.824C366.211 340.654 365.902 340.523 365.484 340.432L363.931 340.106C363.058 339.925 362.412 339.619 361.993 339.188C361.574 338.753 361.367 338.204 361.371 337.54C361.367 336.979 361.519 336.493 361.827 336.083C362.139 335.668 362.572 335.348 363.125 335.122C363.682 334.893 364.324 334.779 365.051 334.779C366.118 334.779 366.957 335.006 367.57 335.46C368.186 335.915 368.567 336.529 368.713 337.303Z" fill="#141F39"/>
<path d="M194.585 390.851C194.545 390.512 194.382 390.248 194.096 390.06C193.81 389.873 193.459 389.779 193.043 389.779C192.74 389.779 192.474 389.828 192.246 389.926C192.02 390.025 191.843 390.16 191.716 390.332C191.591 390.504 191.528 390.699 191.528 390.918C191.528 391.102 191.572 391.259 191.659 391.391C191.748 391.521 191.862 391.629 192.001 391.716C192.14 391.801 192.285 391.871 192.437 391.927C192.589 391.981 192.728 392.025 192.856 392.058L193.553 392.246C193.732 392.293 193.931 392.358 194.15 392.44C194.371 392.523 194.582 392.636 194.783 392.779C194.986 392.92 195.154 393.101 195.286 393.322C195.418 393.543 195.484 393.815 195.484 394.136C195.484 394.507 195.387 394.842 195.192 395.142C195 395.441 194.718 395.679 194.347 395.856C193.979 396.032 193.531 396.121 193.003 396.121C192.512 396.121 192.086 396.041 191.726 395.883C191.369 395.724 191.087 395.503 190.881 395.219C190.678 394.935 190.563 394.606 190.536 394.23H191.394C191.417 394.489 191.504 394.704 191.656 394.874C191.81 395.041 192.004 395.166 192.239 395.249C192.476 395.33 192.731 395.37 193.003 395.37C193.321 395.37 193.605 395.318 193.858 395.216C194.111 395.111 194.311 394.965 194.458 394.78C194.605 394.592 194.679 394.373 194.679 394.123C194.679 393.895 194.616 393.709 194.488 393.566C194.361 393.423 194.193 393.307 193.985 393.218C193.778 393.128 193.553 393.05 193.312 392.983L192.467 392.742C191.931 392.588 191.506 392.368 191.193 392.082C190.88 391.796 190.724 391.421 190.724 390.959C190.724 390.574 190.828 390.239 191.036 389.953C191.246 389.665 191.527 389.441 191.88 389.283C192.236 389.122 192.632 389.041 193.07 389.041C193.513 389.041 193.906 389.121 194.25 389.279C194.594 389.436 194.867 389.65 195.068 389.923C195.271 390.195 195.379 390.505 195.39 390.851H194.585ZM199.988 393.895V390.851H200.779V396H199.988V395.128H199.934C199.814 395.39 199.626 395.612 199.371 395.796C199.116 395.977 198.795 396.067 198.406 396.067C198.084 396.067 197.798 395.997 197.548 395.856C197.297 395.713 197.101 395.498 196.958 395.212C196.815 394.924 196.743 394.561 196.743 394.123V390.851H197.534V394.069C197.534 394.445 197.639 394.744 197.849 394.968C198.062 395.191 198.332 395.303 198.661 395.303C198.857 395.303 199.057 395.253 199.261 395.152C199.466 395.051 199.638 394.897 199.777 394.689C199.918 394.482 199.988 394.217 199.988 393.895ZM202.228 397.931V390.851H202.992V391.669H203.086C203.144 391.58 203.225 391.466 203.327 391.327C203.432 391.187 203.582 391.061 203.776 390.952C203.973 390.84 204.239 390.784 204.574 390.784C205.008 390.784 205.39 390.893 205.721 391.109C206.051 391.326 206.309 391.633 206.495 392.031C206.68 392.429 206.773 392.898 206.773 393.439C206.773 393.984 206.68 394.457 206.495 394.857C206.309 395.255 206.052 395.563 205.724 395.782C205.395 395.999 205.017 396.107 204.588 396.107C204.257 396.107 203.992 396.053 203.793 395.943C203.594 395.831 203.441 395.705 203.334 395.564C203.227 395.421 203.144 395.303 203.086 395.209H203.019V397.931H202.228ZM203.006 393.426C203.006 393.815 203.063 394.158 203.176 394.455C203.29 394.75 203.457 394.981 203.676 395.149C203.895 395.314 204.163 395.397 204.48 395.397C204.811 395.397 205.087 395.309 205.308 395.135C205.532 394.959 205.699 394.722 205.811 394.425C205.925 394.125 205.982 393.792 205.982 393.426C205.982 393.064 205.926 392.737 205.814 392.447C205.705 392.154 205.539 391.923 205.315 391.753C205.094 391.581 204.816 391.495 204.48 391.495C204.159 391.495 203.888 391.577 203.669 391.74C203.45 391.901 203.285 392.126 203.173 392.417C203.061 392.705 203.006 393.041 203.006 393.426ZM207.98 397.931V390.851H208.744V391.669H208.838C208.896 391.58 208.977 391.466 209.079 391.327C209.184 391.187 209.334 391.061 209.528 390.952C209.725 390.84 209.991 390.784 210.326 390.784C210.76 390.784 211.142 390.893 211.473 391.109C211.803 391.326 212.061 391.633 212.247 392.031C212.432 392.429 212.525 392.898 212.525 393.439C212.525 393.984 212.432 394.457 212.247 394.857C212.061 395.255 211.804 395.563 211.476 395.782C211.147 395.999 210.769 396.107 210.34 396.107C210.009 396.107 209.744 396.053 209.545 395.943C209.346 395.831 209.193 395.705 209.086 395.564C208.979 395.421 208.896 395.303 208.838 395.209H208.771V397.931H207.98ZM208.758 393.426C208.758 393.815 208.815 394.158 208.928 394.455C209.042 394.75 209.209 394.981 209.428 395.149C209.647 395.314 209.915 395.397 210.232 395.397C210.563 395.397 210.839 395.309 211.06 395.135C211.284 394.959 211.451 394.722 211.563 394.425C211.677 394.125 211.734 393.792 211.734 393.426C211.734 393.064 211.678 392.737 211.566 392.447C211.457 392.154 211.291 391.923 211.067 391.753C210.846 391.581 210.568 391.495 210.232 391.495C209.911 391.495 209.64 391.577 209.421 391.74C209.202 391.901 209.037 392.126 208.925 392.417C208.813 392.705 208.758 393.041 208.758 393.426ZM214.523 389.135V396H213.732V389.135H214.523ZM215.972 396V390.851H216.763V396H215.972ZM216.374 389.993C216.22 389.993 216.087 389.941 215.975 389.836C215.866 389.731 215.811 389.604 215.811 389.457C215.811 389.309 215.866 389.183 215.975 389.078C216.087 388.973 216.22 388.921 216.374 388.921C216.528 388.921 216.66 388.973 216.77 389.078C216.881 389.183 216.937 389.309 216.937 389.457C216.937 389.604 216.881 389.731 216.77 389.836C216.66 389.941 216.528 389.993 216.374 389.993ZM220.37 396.107C219.874 396.107 219.446 395.998 219.087 395.779C218.729 395.558 218.453 395.249 218.259 394.854C218.067 394.456 217.97 393.993 217.97 393.466C217.97 392.939 218.067 392.474 218.259 392.071C218.453 391.667 218.724 391.352 219.07 391.126C219.418 390.898 219.825 390.784 220.29 390.784C220.558 390.784 220.823 390.829 221.084 390.918C221.346 391.008 221.584 391.153 221.798 391.354C222.013 391.553 222.184 391.817 222.311 392.145C222.439 392.474 222.502 392.878 222.502 393.359V393.694H218.534V393.01H221.698C221.698 392.72 221.64 392.46 221.524 392.232C221.41 392.004 221.246 391.825 221.034 391.693C220.824 391.561 220.576 391.495 220.29 391.495C219.975 391.495 219.702 391.573 219.472 391.73C219.244 391.884 219.069 392.085 218.946 392.333C218.823 392.581 218.761 392.847 218.761 393.131V393.587C218.761 393.975 218.829 394.305 218.963 394.575C219.099 394.844 219.288 395.048 219.529 395.189C219.77 395.327 220.051 395.397 220.37 395.397C220.578 395.397 220.766 395.368 220.934 395.309C221.103 395.249 221.25 395.16 221.373 395.041C221.496 394.921 221.591 394.771 221.658 394.592L222.422 394.807C222.341 395.066 222.206 395.294 222.016 395.49C221.826 395.685 221.592 395.837 221.312 395.946C221.033 396.054 220.719 396.107 220.37 396.107ZM223.706 396V390.851H224.47V391.629H224.524C224.617 391.374 224.787 391.168 225.033 391.009C225.279 390.85 225.556 390.771 225.864 390.771C225.922 390.771 225.995 390.772 226.082 390.774C226.169 390.777 226.235 390.78 226.28 390.784V391.589C226.253 391.582 226.192 391.572 226.096 391.559C226.002 391.543 225.902 391.535 225.797 391.535C225.547 391.535 225.324 391.588 225.127 391.693C224.932 391.796 224.778 391.939 224.664 392.122C224.553 392.303 224.497 392.509 224.497 392.742V396H223.706ZM230.865 392.004L230.154 392.206C230.109 392.087 230.043 391.972 229.956 391.86C229.871 391.746 229.755 391.652 229.608 391.579C229.46 391.505 229.271 391.468 229.041 391.468C228.726 391.468 228.464 391.541 228.253 391.686C228.046 391.829 227.942 392.011 227.942 392.232C227.942 392.429 228.013 392.584 228.156 392.698C228.299 392.812 228.523 392.907 228.827 392.983L229.591 393.171C230.051 393.283 230.394 393.454 230.62 393.684C230.846 393.912 230.958 394.206 230.958 394.565C230.958 394.86 230.874 395.124 230.704 395.356C230.536 395.589 230.302 395.772 230 395.906C229.698 396.04 229.347 396.107 228.947 396.107C228.422 396.107 227.988 395.993 227.643 395.765C227.299 395.537 227.081 395.204 226.99 394.766L227.741 394.579C227.812 394.856 227.947 395.064 228.146 395.202C228.347 395.341 228.61 395.41 228.934 395.41C229.303 395.41 229.595 395.332 229.812 395.175C230.031 395.017 230.141 394.827 230.141 394.606C230.141 394.427 230.078 394.277 229.953 394.156C229.828 394.034 229.636 393.942 229.376 393.882L228.518 393.68C228.047 393.569 227.7 393.396 227.479 393.161C227.26 392.924 227.151 392.628 227.151 392.273C227.151 391.982 227.232 391.725 227.395 391.502C227.561 391.278 227.785 391.103 228.069 390.975C228.355 390.848 228.679 390.784 229.041 390.784C229.551 390.784 229.951 390.896 230.241 391.12C230.534 391.343 230.742 391.638 230.865 392.004Z" fill="#4830E2"/>
<rect x="169.879" y="387.232" width="11.327" height="11.327" rx="5.6635" fill="#4830E2"/>
<path d="M278.768 391.083C278.728 390.744 278.564 390.48 278.278 390.292C277.992 390.105 277.641 390.011 277.226 390.011C276.922 390.011 276.656 390.06 276.428 390.158C276.202 390.256 276.026 390.392 275.898 390.564C275.773 390.736 275.711 390.931 275.711 391.15C275.711 391.334 275.754 391.491 275.841 391.623C275.931 391.753 276.045 391.861 276.183 391.948C276.322 392.033 276.467 392.103 276.619 392.159C276.771 392.213 276.911 392.256 277.038 392.29L277.735 392.478C277.914 392.525 278.113 392.589 278.332 392.672C278.553 392.755 278.764 392.868 278.966 393.011C279.169 393.151 279.336 393.332 279.468 393.554C279.6 393.775 279.666 394.046 279.666 394.368C279.666 394.739 279.569 395.074 279.374 395.374C279.182 395.673 278.901 395.911 278.53 396.088C278.161 396.264 277.713 396.353 277.186 396.353C276.694 396.353 276.268 396.273 275.909 396.115C275.551 395.956 275.269 395.735 275.064 395.451C274.86 395.167 274.745 394.838 274.719 394.462H275.577C275.599 394.721 275.686 394.936 275.838 395.106C275.992 395.273 276.187 395.398 276.421 395.481C276.658 395.562 276.913 395.602 277.186 395.602C277.503 395.602 277.788 395.55 278.04 395.448C278.293 395.343 278.493 395.197 278.64 395.012C278.788 394.824 278.862 394.605 278.862 394.355C278.862 394.127 278.798 393.941 278.671 393.798C278.543 393.655 278.376 393.539 278.168 393.45C277.96 393.36 277.735 393.282 277.494 393.215L276.649 392.974C276.113 392.82 275.688 392.6 275.376 392.313C275.063 392.027 274.906 391.653 274.906 391.191C274.906 390.806 275.01 390.471 275.218 390.185C275.428 389.897 275.71 389.673 276.063 389.515C276.418 389.354 276.815 389.273 277.253 389.273C277.695 389.273 278.088 389.353 278.433 389.511C278.777 389.668 279.049 389.882 279.25 390.155C279.454 390.427 279.561 390.737 279.572 391.083H278.768ZM283.084 396.339C282.588 396.339 282.16 396.23 281.8 396.011C281.443 395.789 281.167 395.481 280.973 395.086C280.78 394.688 280.684 394.225 280.684 393.698C280.684 393.17 280.78 392.706 280.973 392.303C281.167 391.899 281.437 391.584 281.784 391.358C282.132 391.13 282.539 391.016 283.004 391.016C283.272 391.016 283.537 391.061 283.798 391.15C284.06 391.24 284.298 391.385 284.512 391.586C284.727 391.785 284.898 392.049 285.025 392.377C285.152 392.706 285.216 393.11 285.216 393.591V393.926H281.247V393.242H284.412C284.412 392.951 284.354 392.692 284.237 392.464C284.123 392.236 283.96 392.056 283.748 391.925C283.538 391.793 283.29 391.727 283.004 391.727C282.689 391.727 282.416 391.805 282.186 391.962C281.958 392.116 281.783 392.317 281.66 392.565C281.537 392.813 281.475 393.079 281.475 393.363V393.819C281.475 394.207 281.542 394.537 281.676 394.807C281.813 395.076 282.002 395.28 282.243 395.421C282.484 395.559 282.765 395.629 283.084 395.629C283.292 395.629 283.48 395.6 283.647 395.541C283.817 395.481 283.964 395.392 284.086 395.273C284.209 395.153 284.304 395.003 284.371 394.824L285.136 395.039C285.055 395.298 284.92 395.526 284.73 395.722C284.54 395.917 284.305 396.069 284.026 396.178C283.747 396.286 283.433 396.339 283.084 396.339ZM287.211 389.367V396.232H286.419V389.367H287.211ZM289.45 389.367V396.232H288.659V389.367H289.45Z" fill="#D4767F"/>
<rect x="254.361" y="387.232" width="11.327" height="11.327" rx="5.6635" fill="#D4767F"/>
<path d="M334.109 396.232V389.367H336.509C336.987 389.367 337.382 389.45 337.692 389.615C338.003 389.778 338.234 389.998 338.386 390.275C338.538 390.55 338.614 390.855 338.614 391.191C338.614 391.486 338.562 391.729 338.457 391.921C338.354 392.113 338.217 392.265 338.048 392.377C337.88 392.489 337.698 392.572 337.501 392.625V392.692C337.711 392.706 337.922 392.779 338.135 392.913C338.347 393.048 338.525 393.24 338.668 393.49C338.811 393.74 338.882 394.046 338.882 394.408C338.882 394.753 338.804 395.062 338.648 395.337C338.491 395.612 338.244 395.83 337.907 395.991C337.569 396.151 337.13 396.232 336.589 396.232H334.109ZM334.94 395.494H336.589C337.132 395.494 337.518 395.389 337.746 395.179C337.976 394.967 338.091 394.71 338.091 394.408C338.091 394.176 338.032 393.962 337.913 393.765C337.795 393.566 337.626 393.407 337.407 393.289C337.188 393.168 336.929 393.108 336.63 393.108H334.94V395.494ZM334.94 392.384H336.482C336.732 392.384 336.958 392.335 337.159 392.236C337.363 392.138 337.524 392 337.642 391.821C337.763 391.642 337.823 391.432 337.823 391.191C337.823 390.889 337.718 390.633 337.508 390.423C337.298 390.211 336.965 390.105 336.509 390.105H334.94V392.384ZM343.386 394.127V391.083H344.177V396.232H343.386V395.36H343.332C343.211 395.622 343.024 395.844 342.769 396.027C342.514 396.208 342.192 396.299 341.803 396.299C341.482 396.299 341.196 396.229 340.945 396.088C340.695 395.945 340.498 395.73 340.355 395.444C340.212 395.156 340.141 394.793 340.141 394.355V391.083H340.932V394.301C340.932 394.677 341.037 394.976 341.247 395.2C341.459 395.423 341.73 395.535 342.058 395.535C342.255 395.535 342.455 395.484 342.658 395.384C342.864 395.283 343.036 395.129 343.174 394.921C343.315 394.713 343.386 394.449 343.386 394.127ZM346.135 398.163C346.001 398.163 345.881 398.151 345.776 398.129C345.671 398.109 345.599 398.089 345.559 398.069L345.76 397.372C345.952 397.421 346.122 397.439 346.269 397.425C346.417 397.412 346.547 397.346 346.661 397.227C346.778 397.111 346.884 396.922 346.98 396.661L347.127 396.259L345.223 391.083H346.081L347.503 395.186H347.556L348.978 391.083H349.836L347.65 396.983C347.552 397.249 347.43 397.469 347.285 397.643C347.14 397.82 346.971 397.95 346.779 398.035C346.589 398.12 346.374 398.163 346.135 398.163Z" fill="#27D692"/>
<rect x="313.457" y="387.232" width="11.327" height="11.327" rx="5.6635" fill="#27D692"/>
</g>
<g filter="url(#filter1_d_129_3018)">
<rect x="65" y="61" width="236.851" height="222.315" rx="8.55058" fill="#FAFAFA"/>
<rect x="65.4275" y="61.4275" width="235.996" height="221.46" rx="8.12305" stroke="url(#paint0_linear_129_3018)" stroke-width="0.855058"/>
</g>
<path d="M160.159 108V99.2727H165.209V99.9886H160.956V103.274H164.812V103.99H160.956V108H160.159ZM168.861 108.149C168.466 108.149 168.105 108.072 167.778 107.919C167.452 107.763 167.192 107.538 166.999 107.246C166.805 106.95 166.709 106.592 166.709 106.172C166.709 105.848 166.77 105.575 166.892 105.354C167.014 105.132 167.188 104.95 167.412 104.808C167.636 104.666 167.902 104.554 168.209 104.472C168.516 104.389 168.854 104.325 169.223 104.28C169.589 104.234 169.899 104.195 170.152 104.161C170.408 104.126 170.602 104.072 170.736 103.999C170.869 103.925 170.936 103.805 170.936 103.641V103.487C170.936 103.041 170.803 102.69 170.536 102.435C170.271 102.176 169.891 102.047 169.393 102.047C168.922 102.047 168.537 102.151 168.239 102.358C167.943 102.565 167.736 102.81 167.616 103.091L166.896 102.831C167.044 102.473 167.249 102.187 167.51 101.974C167.771 101.759 168.064 101.604 168.388 101.51C168.712 101.413 169.04 101.365 169.372 101.365C169.622 101.365 169.882 101.398 170.152 101.463C170.425 101.528 170.678 101.642 170.911 101.804C171.143 101.963 171.332 102.186 171.477 102.473C171.622 102.757 171.695 103.118 171.695 103.555V108H170.936V106.964H170.889C170.798 107.158 170.663 107.345 170.484 107.527C170.305 107.709 170.081 107.858 169.811 107.974C169.541 108.091 169.224 108.149 168.861 108.149ZM168.963 107.455C169.366 107.455 169.716 107.365 170.011 107.186C170.307 107.007 170.534 106.77 170.693 106.474C170.855 106.176 170.936 105.848 170.936 105.49V104.544C170.879 104.598 170.784 104.646 170.651 104.689C170.52 104.732 170.368 104.77 170.195 104.804C170.024 104.835 169.854 104.862 169.683 104.885C169.513 104.908 169.359 104.928 169.223 104.945C168.854 104.99 168.538 105.061 168.277 105.158C168.016 105.254 167.815 105.388 167.676 105.558C167.537 105.726 167.467 105.942 167.467 106.206C167.467 106.604 167.609 106.912 167.893 107.131C168.178 107.347 168.534 107.455 168.963 107.455ZM173.712 108V101.455H174.45V102.46H174.505C174.636 102.131 174.863 101.865 175.187 101.663C175.513 101.459 175.883 101.357 176.295 101.357C176.357 101.357 176.427 101.358 176.504 101.361C176.58 101.364 176.644 101.366 176.695 101.369V102.141C176.661 102.135 176.602 102.126 176.516 102.115C176.431 102.104 176.339 102.098 176.239 102.098C175.898 102.098 175.594 102.17 175.327 102.315C175.063 102.457 174.854 102.655 174.701 102.908C174.548 103.161 174.471 103.449 174.471 103.773V108H173.712ZM177.99 108V101.455H178.727V102.46H178.795C178.926 102.122 179.143 101.857 179.447 101.663C179.754 101.467 180.122 101.369 180.551 101.369C181.002 101.369 181.373 101.476 181.663 101.689C181.956 101.899 182.174 102.189 182.319 102.558H182.375C182.522 102.195 182.762 101.906 183.095 101.693C183.43 101.477 183.836 101.369 184.314 101.369C184.922 101.369 185.402 101.561 185.754 101.945C186.106 102.325 186.282 102.882 186.282 103.615V108H185.524V103.615C185.524 103.098 185.392 102.71 185.127 102.452C184.863 102.193 184.515 102.064 184.083 102.064C183.583 102.064 183.199 102.217 182.929 102.524C182.659 102.831 182.524 103.22 182.524 103.692V108H181.748V103.547C181.748 103.104 181.625 102.746 181.377 102.473C181.13 102.2 180.782 102.064 180.333 102.064C180.032 102.064 179.761 102.138 179.52 102.286C179.281 102.433 179.092 102.639 178.953 102.903C178.816 103.165 178.748 103.466 178.748 103.807V108H177.99ZM188.299 108V101.455H189.062V108H188.299ZM188.687 100.33C188.531 100.33 188.397 100.277 188.286 100.172C188.175 100.064 188.12 99.9347 188.12 99.7841C188.12 99.6335 188.175 99.5057 188.286 99.4006C188.397 99.2926 188.531 99.2386 188.687 99.2386C188.843 99.2386 188.977 99.2926 189.087 99.4006C189.198 99.5057 189.254 99.6335 189.254 99.7841C189.254 99.9347 189.198 100.064 189.087 100.172C188.977 100.277 188.843 100.33 188.687 100.33ZM191.826 103.909V108H191.068V101.455H191.805V102.482H191.873C192.027 102.146 192.265 101.878 192.589 101.676C192.916 101.472 193.319 101.369 193.799 101.369C194.24 101.369 194.626 101.462 194.958 101.646C195.294 101.828 195.554 102.097 195.738 102.452C195.926 102.807 196.02 103.243 196.02 103.76V108H195.261V103.807C195.261 103.27 195.11 102.845 194.809 102.533C194.511 102.22 194.11 102.064 193.608 102.064C193.264 102.064 192.958 102.138 192.691 102.286C192.424 102.433 192.213 102.646 192.056 102.925C191.903 103.2 191.826 103.528 191.826 103.909ZM200.514 110.591C200.068 110.591 199.678 110.533 199.342 110.416C199.007 110.303 198.724 110.146 198.494 109.947C198.264 109.749 198.085 109.526 197.957 109.278L198.58 108.869C198.673 109.034 198.798 109.196 198.955 109.355C199.114 109.514 199.32 109.646 199.572 109.751C199.828 109.857 200.142 109.909 200.514 109.909C201.094 109.909 201.561 109.764 201.916 109.474C202.274 109.185 202.453 108.734 202.453 108.124V106.649H202.385C202.297 106.848 202.17 107.047 202.006 107.246C201.841 107.442 201.625 107.605 201.358 107.736C201.094 107.866 200.766 107.932 200.374 107.932C199.851 107.932 199.386 107.803 198.98 107.544C198.577 107.286 198.259 106.916 198.026 106.436C197.795 105.953 197.68 105.378 197.68 104.71C197.68 104.048 197.793 103.466 198.017 102.963C198.244 102.46 198.561 102.068 198.967 101.787C199.374 101.506 199.847 101.365 200.386 101.365C200.787 101.365 201.119 101.436 201.384 101.578C201.648 101.717 201.859 101.891 202.018 102.098C202.18 102.305 202.307 102.507 202.398 102.703H202.474V101.455H203.216V108.17C203.216 108.724 203.098 109.18 202.862 109.538C202.626 109.896 202.305 110.161 201.899 110.331C201.493 110.504 201.031 110.591 200.514 110.591ZM200.463 107.237C200.884 107.237 201.243 107.136 201.541 106.935C201.839 106.73 202.068 106.437 202.227 106.057C202.386 105.676 202.466 105.223 202.466 104.697C202.466 104.186 202.388 103.733 202.232 103.338C202.075 102.94 201.848 102.628 201.55 102.401C201.254 102.17 200.892 102.055 200.463 102.055C200.026 102.055 199.656 102.173 199.355 102.409C199.054 102.645 198.827 102.963 198.673 103.364C198.52 103.761 198.443 104.206 198.443 104.697C198.443 105.197 198.521 105.639 198.678 106.023C198.834 106.403 199.063 106.702 199.364 106.918C199.665 107.131 200.031 107.237 200.463 107.237ZM208.77 108H207.934L211.109 99.2727H211.961L215.136 108H214.301L211.565 100.308H211.505L208.77 108ZM209.37 104.655H213.7V105.371H209.37V104.655ZM220.872 102.891L220.177 103.087C220.109 102.891 220.012 102.713 219.887 102.554C219.762 102.395 219.599 102.268 219.397 102.175C219.199 102.081 218.951 102.034 218.656 102.034C218.213 102.034 217.849 102.139 217.565 102.349C217.281 102.56 217.139 102.831 217.139 103.163C217.139 103.445 217.235 103.673 217.429 103.849C217.625 104.023 217.926 104.161 218.332 104.263L219.321 104.506C219.869 104.639 220.279 104.851 220.552 105.141C220.828 105.43 220.966 105.794 220.966 106.232C220.966 106.601 220.863 106.929 220.659 107.216C220.454 107.503 220.169 107.729 219.802 107.893C219.439 108.055 219.017 108.136 218.537 108.136C217.897 108.136 217.37 107.993 216.956 107.706C216.541 107.416 216.275 106.999 216.159 106.453L216.887 106.274C216.981 106.663 217.164 106.957 217.437 107.156C217.713 107.355 218.075 107.455 218.524 107.455C219.027 107.455 219.429 107.342 219.73 107.118C220.031 106.891 220.181 106.607 220.181 106.266C220.181 106.001 220.093 105.78 219.917 105.601C219.741 105.419 219.474 105.286 219.116 105.2L218.047 104.945C217.478 104.808 217.058 104.592 216.785 104.297C216.512 104.001 216.376 103.635 216.376 103.197C216.376 102.837 216.474 102.52 216.67 102.247C216.866 101.972 217.136 101.756 217.48 101.599C217.824 101.443 218.216 101.365 218.656 101.365C219.255 101.365 219.734 101.501 220.092 101.774C220.453 102.044 220.713 102.416 220.872 102.891ZM227.024 102.891L226.33 103.087C226.261 102.891 226.165 102.713 226.04 102.554C225.915 102.395 225.751 102.268 225.55 102.175C225.351 102.081 225.104 102.034 224.808 102.034C224.365 102.034 224.001 102.139 223.717 102.349C223.433 102.56 223.291 102.831 223.291 103.163C223.291 103.445 223.388 103.673 223.581 103.849C223.777 104.023 224.078 104.161 224.484 104.263L225.473 104.506C226.021 104.639 226.432 104.851 226.705 105.141C226.98 105.43 227.118 105.794 227.118 106.232C227.118 106.601 227.016 106.929 226.811 107.216C226.607 107.503 226.321 107.729 225.955 107.893C225.591 108.055 225.169 108.136 224.689 108.136C224.05 108.136 223.523 107.993 223.108 107.706C222.693 107.416 222.428 106.999 222.311 106.453L223.04 106.274C223.134 106.663 223.317 106.957 223.589 107.156C223.865 107.355 224.227 107.455 224.676 107.455C225.179 107.455 225.581 107.342 225.882 107.118C226.183 106.891 226.334 106.607 226.334 106.266C226.334 106.001 226.246 105.78 226.07 105.601C225.893 105.419 225.626 105.286 225.268 105.2L224.199 104.945C223.631 104.808 223.21 104.592 222.938 104.297C222.665 104.001 222.528 103.635 222.528 103.197C222.528 102.837 222.626 102.52 222.822 102.247C223.018 101.972 223.288 101.756 223.632 101.599C223.976 101.443 224.368 101.365 224.808 101.365C225.408 101.365 225.886 101.501 226.244 101.774C226.605 102.044 226.865 102.416 227.024 102.891ZM231.323 108.136C230.757 108.136 230.257 107.993 229.823 107.706C229.391 107.419 229.053 107.023 228.809 106.517C228.564 106.009 228.442 105.422 228.442 104.757C228.442 104.087 228.564 103.497 228.809 102.989C229.053 102.477 229.391 102.08 229.823 101.795C230.257 101.509 230.757 101.365 231.323 101.365C231.888 101.365 232.387 101.509 232.819 101.795C233.25 102.082 233.588 102.48 233.833 102.989C234.08 103.497 234.203 104.087 234.203 104.757C234.203 105.422 234.081 106.009 233.837 106.517C233.593 107.023 233.253 107.419 232.819 107.706C232.387 107.993 231.888 108.136 231.323 108.136ZM231.323 107.442C231.777 107.442 232.162 107.32 232.478 107.075C232.793 106.831 233.032 106.506 233.194 106.099C233.358 105.693 233.441 105.246 233.441 104.757C233.441 104.268 233.358 103.82 233.194 103.411C233.032 103.001 232.793 102.673 232.478 102.426C232.162 102.179 231.777 102.055 231.323 102.055C230.871 102.055 230.486 102.179 230.168 102.426C229.853 102.673 229.613 103.001 229.448 103.411C229.286 103.82 229.205 104.268 229.205 104.757C229.205 105.246 229.286 105.693 229.448 106.099C229.613 106.506 229.853 106.831 230.168 107.075C230.483 107.32 230.868 107.442 231.323 107.442ZM238.425 108.136C237.84 108.136 237.33 107.99 236.896 107.697C236.464 107.405 236.129 107.004 235.89 106.496C235.651 105.987 235.532 105.408 235.532 104.757C235.532 104.101 235.653 103.517 235.894 103.006C236.138 102.494 236.477 102.094 236.908 101.804C237.34 101.511 237.842 101.365 238.413 101.365C238.85 101.365 239.246 101.45 239.602 101.621C239.957 101.788 240.249 102.026 240.479 102.332C240.712 102.636 240.859 102.991 240.918 103.398H240.151C240.072 103.028 239.88 102.713 239.576 102.452C239.275 102.187 238.891 102.055 238.425 102.055C238.008 102.055 237.638 102.169 237.317 102.396C236.996 102.621 236.745 102.935 236.563 103.338C236.384 103.739 236.295 104.203 236.295 104.732C236.295 105.263 236.383 105.733 236.559 106.142C236.735 106.548 236.982 106.866 237.3 107.097C237.621 107.327 237.996 107.442 238.425 107.442C238.715 107.442 238.979 107.388 239.218 107.28C239.46 107.169 239.661 107.013 239.823 106.811C239.988 106.609 240.099 106.369 240.156 106.091H240.923C240.866 106.486 240.725 106.838 240.501 107.148C240.279 107.455 239.991 107.696 239.636 107.872C239.283 108.048 238.88 108.136 238.425 108.136ZM242.557 108V101.455H243.32V108H242.557ZM242.945 100.33C242.788 100.33 242.655 100.277 242.544 100.172C242.433 100.064 242.378 99.9347 242.378 99.7841C242.378 99.6335 242.433 99.5057 242.544 99.4006C242.655 99.2926 242.788 99.2386 242.945 99.2386C243.101 99.2386 243.234 99.2926 243.345 99.4006C243.456 99.5057 243.511 99.6335 243.511 99.7841C243.511 99.9347 243.456 100.064 243.345 100.172C243.234 100.277 243.101 100.33 242.945 100.33ZM247.154 108.149C246.759 108.149 246.398 108.072 246.071 107.919C245.745 107.763 245.485 107.538 245.292 107.246C245.098 106.95 245.002 106.592 245.002 106.172C245.002 105.848 245.063 105.575 245.185 105.354C245.307 105.132 245.48 104.95 245.705 104.808C245.929 104.666 246.195 104.554 246.502 104.472C246.809 104.389 247.147 104.325 247.516 104.28C247.882 104.234 248.192 104.195 248.445 104.161C248.701 104.126 248.895 104.072 249.029 103.999C249.162 103.925 249.229 103.805 249.229 103.641V103.487C249.229 103.041 249.096 102.69 248.828 102.435C248.564 102.176 248.184 102.047 247.686 102.047C247.215 102.047 246.83 102.151 246.532 102.358C246.236 102.565 246.029 102.81 245.909 103.091L245.189 102.831C245.337 102.473 245.542 102.187 245.803 101.974C246.064 101.759 246.357 101.604 246.681 101.51C247.005 101.413 247.333 101.365 247.665 101.365C247.915 101.365 248.175 101.398 248.445 101.463C248.718 101.528 248.971 101.642 249.203 101.804C249.436 101.963 249.625 102.186 249.77 102.473C249.915 102.757 249.988 103.118 249.988 103.555V108H249.229V106.964H249.182C249.091 107.158 248.956 107.345 248.777 107.527C248.598 107.709 248.374 107.858 248.104 107.974C247.834 108.091 247.517 108.149 247.154 108.149ZM247.256 107.455C247.659 107.455 248.009 107.365 248.304 107.186C248.6 107.007 248.827 106.77 248.986 106.474C249.148 106.176 249.229 105.848 249.229 105.49V104.544C249.172 104.598 249.077 104.646 248.944 104.689C248.813 104.732 248.661 104.77 248.488 104.804C248.317 104.835 248.147 104.862 247.976 104.885C247.806 104.908 247.652 104.928 247.516 104.945C247.147 104.99 246.831 105.061 246.57 105.158C246.309 105.254 246.108 105.388 245.969 105.558C245.83 105.726 245.76 105.942 245.76 106.206C245.76 106.604 245.902 106.912 246.186 107.131C246.471 107.347 246.827 107.455 247.256 107.455ZM254.583 101.455V102.115H251.46V101.455H254.583ZM252.436 99.8864H253.199V106.291C253.199 106.564 253.245 106.778 253.339 106.935C253.433 107.088 253.555 107.197 253.706 107.263C253.856 107.325 254.017 107.357 254.187 107.357C254.287 107.357 254.372 107.351 254.443 107.339C254.514 107.325 254.576 107.311 254.63 107.297L254.792 107.983C254.718 108.011 254.627 108.037 254.52 108.06C254.412 108.085 254.278 108.098 254.119 108.098C253.841 108.098 253.572 108.037 253.314 107.915C253.058 107.793 252.848 107.611 252.683 107.369C252.518 107.128 252.436 106.828 252.436 106.47V99.8864ZM256.315 108V101.455H257.077V108H256.315ZM256.702 100.33C256.546 100.33 256.413 100.277 256.302 100.172C256.191 100.064 256.136 99.9347 256.136 99.7841C256.136 99.6335 256.191 99.5057 256.302 99.4006C256.413 99.2926 256.546 99.2386 256.702 99.2386C256.859 99.2386 256.992 99.2926 257.103 99.4006C257.214 99.5057 257.269 99.6335 257.269 99.7841C257.269 99.9347 257.214 100.064 257.103 100.172C256.992 100.277 256.859 100.33 256.702 100.33ZM261.627 108.136C261.062 108.136 260.562 107.993 260.127 107.706C259.696 107.419 259.358 107.023 259.113 106.517C258.869 106.009 258.747 105.422 258.747 104.757C258.747 104.087 258.869 103.497 259.113 102.989C259.358 102.477 259.696 102.08 260.127 101.795C260.562 101.509 261.062 101.365 261.627 101.365C262.193 101.365 262.691 101.509 263.123 101.795C263.555 102.082 263.893 102.48 264.137 102.989C264.385 103.497 264.508 104.087 264.508 104.757C264.508 105.422 264.386 106.009 264.142 106.517C263.897 107.023 263.558 107.419 263.123 107.706C262.691 107.993 262.193 108.136 261.627 108.136ZM261.627 107.442C262.082 107.442 262.467 107.32 262.782 107.075C263.098 106.831 263.336 106.506 263.498 106.099C263.663 105.693 263.745 105.246 263.745 104.757C263.745 104.268 263.663 103.82 263.498 103.411C263.336 103.001 263.098 102.673 262.782 102.426C262.467 102.179 262.082 102.055 261.627 102.055C261.176 102.055 260.791 102.179 260.473 102.426C260.157 102.673 259.917 103.001 259.752 103.411C259.591 103.82 259.51 104.268 259.51 104.757C259.51 105.246 259.591 105.693 259.752 106.099C259.917 106.506 260.157 106.831 260.473 107.075C260.788 107.32 261.173 107.442 261.627 107.442ZM266.932 103.909V108H266.173V101.455H266.911V102.482H266.979C267.132 102.146 267.371 101.878 267.695 101.676C268.021 101.472 268.425 101.369 268.905 101.369C269.345 101.369 269.732 101.462 270.064 101.646C270.399 101.828 270.659 102.097 270.844 102.452C271.031 102.807 271.125 103.243 271.125 103.76V108H270.366V103.807C270.366 103.27 270.216 102.845 269.915 102.533C269.616 102.22 269.216 102.064 268.713 102.064C268.369 102.064 268.064 102.138 267.797 102.286C267.53 102.433 267.318 102.646 267.162 102.925C267.009 103.2 266.932 103.528 266.932 103.909ZM277.52 102.891L276.826 103.087C276.757 102.891 276.661 102.713 276.536 102.554C276.411 102.395 276.248 102.268 276.046 102.175C275.847 102.081 275.6 102.034 275.304 102.034C274.861 102.034 274.498 102.139 274.213 102.349C273.929 102.56 273.787 102.831 273.787 103.163C273.787 103.445 273.884 103.673 274.077 103.849C274.273 104.023 274.574 104.161 274.98 104.263L275.969 104.506C276.517 104.639 276.928 104.851 277.201 105.141C277.476 105.43 277.614 105.794 277.614 106.232C277.614 106.601 277.512 106.929 277.307 107.216C277.103 107.503 276.817 107.729 276.451 107.893C276.087 108.055 275.665 108.136 275.185 108.136C274.546 108.136 274.019 107.993 273.604 107.706C273.189 107.416 272.924 106.999 272.807 106.453L273.536 106.274C273.63 106.663 273.813 106.957 274.086 107.156C274.361 107.355 274.723 107.455 275.172 107.455C275.675 107.455 276.077 107.342 276.378 107.118C276.679 106.891 276.83 106.607 276.83 106.266C276.83 106.001 276.742 105.78 276.566 105.601C276.39 105.419 276.123 105.286 275.765 105.2L274.695 104.945C274.127 104.808 273.706 104.592 273.434 104.297C273.161 104.001 273.025 103.635 273.025 103.197C273.025 102.837 273.123 102.52 273.319 102.247C273.515 101.972 273.784 101.756 274.128 101.599C274.472 101.443 274.864 101.365 275.304 101.365C275.904 101.365 276.382 101.501 276.74 101.774C277.101 102.044 277.361 102.416 277.52 102.891Z" fill="#4F4F4F"/>
<path d="M165.631 134.341V122.273H168.682V134.341H165.631ZM161.122 129.832V126.781H173.19V129.832H161.122Z" fill="#006D33"/>
<path d="M177.423 133.932V131.026L184.71 119.545H187.216V123.568H185.733L181.139 130.838V130.974H191.494V133.932H177.423ZM185.801 137V133.045L185.869 131.759V119.545H189.329V137H185.801ZM201.288 137.239C200.083 137.239 199.009 137.017 198.066 136.574C197.129 136.131 196.384 135.52 195.833 134.741C195.282 133.963 194.995 133.071 194.973 132.065H198.552C198.592 132.741 198.876 133.29 199.404 133.71C199.933 134.131 200.561 134.341 201.288 134.341C201.867 134.341 202.379 134.213 202.822 133.957C203.271 133.696 203.62 133.335 203.87 132.875C204.126 132.409 204.254 131.875 204.254 131.273C204.254 130.659 204.123 130.119 203.862 129.653C203.606 129.187 203.251 128.824 202.796 128.562C202.342 128.301 201.822 128.168 201.237 128.162C200.725 128.162 200.228 128.267 199.745 128.477C199.268 128.687 198.896 128.974 198.629 129.338L195.348 128.75L196.174 119.545H206.845V122.562H199.217L198.765 126.935H198.867C199.174 126.503 199.637 126.145 200.257 125.861C200.876 125.577 201.569 125.435 202.336 125.435C203.387 125.435 204.325 125.682 205.149 126.176C205.973 126.67 206.623 127.349 207.1 128.213C207.578 129.071 207.813 130.06 207.808 131.179C207.813 132.355 207.541 133.401 206.99 134.315C206.444 135.224 205.68 135.94 204.697 136.463C203.72 136.98 202.583 137.239 201.288 137.239ZM214.759 134.614L214.666 135.551C214.592 136.301 214.45 137.048 214.239 137.793C214.035 138.543 213.819 139.222 213.592 139.83C213.37 140.438 213.191 140.915 213.055 141.261H210.702C210.788 140.926 210.904 140.457 211.052 139.855C211.2 139.259 211.339 138.588 211.469 137.844C211.6 137.099 211.683 136.341 211.717 135.568L211.759 134.614H214.759ZM219.039 137L226.275 122.682V122.562H217.846V119.545H230.093V122.605L222.849 137H219.039ZM239.742 137.239C238.429 137.239 237.262 137.026 236.239 136.599C235.222 136.168 234.424 135.58 233.844 134.835C233.264 134.091 232.975 133.247 232.975 132.304C232.975 131.577 233.139 130.909 233.469 130.301C233.804 129.688 234.259 129.179 234.833 128.776C235.407 128.366 236.049 128.105 236.759 127.991V127.872C235.827 127.685 235.071 127.233 234.492 126.517C233.912 125.795 233.622 124.957 233.622 124.003C233.622 123.099 233.887 122.295 234.415 121.591C234.943 120.881 235.668 120.324 236.588 119.92C237.514 119.511 238.566 119.307 239.742 119.307C240.918 119.307 241.966 119.511 242.887 119.92C243.813 120.33 244.54 120.889 245.068 121.599C245.597 122.304 245.864 123.105 245.87 124.003C245.864 124.963 245.568 125.801 244.983 126.517C244.398 127.233 243.648 127.685 242.733 127.872V127.991C243.432 128.105 244.066 128.366 244.634 128.776C245.208 129.179 245.662 129.688 245.997 130.301C246.338 130.909 246.512 131.577 246.517 132.304C246.512 133.247 246.219 134.091 245.639 134.835C245.06 135.58 244.259 136.168 243.236 136.599C242.219 137.026 241.054 137.239 239.742 137.239ZM239.742 134.528C240.327 134.528 240.838 134.423 241.276 134.213C241.713 133.997 242.054 133.702 242.299 133.327C242.549 132.946 242.674 132.509 242.674 132.014C242.674 131.509 242.546 131.062 242.29 130.676C242.034 130.284 241.688 129.977 241.25 129.756C240.813 129.528 240.31 129.415 239.742 129.415C239.179 129.415 238.676 129.528 238.233 129.756C237.79 129.977 237.441 130.284 237.185 130.676C236.935 131.062 236.81 131.509 236.81 132.014C236.81 132.509 236.932 132.946 237.176 133.327C237.421 133.702 237.764 133.997 238.208 134.213C238.651 134.423 239.162 134.528 239.742 134.528ZM239.742 126.73C240.23 126.73 240.665 126.631 241.046 126.432C241.426 126.233 241.725 125.957 241.941 125.605C242.157 125.253 242.264 124.847 242.264 124.386C242.264 123.932 242.157 123.534 241.941 123.193C241.725 122.847 241.429 122.577 241.054 122.384C240.679 122.185 240.242 122.085 239.742 122.085C239.247 122.085 238.81 122.185 238.429 122.384C238.049 122.577 237.75 122.847 237.534 123.193C237.324 123.534 237.219 123.932 237.219 124.386C237.219 124.847 237.327 125.253 237.543 125.605C237.759 125.957 238.057 126.233 238.438 126.432C238.818 126.631 239.253 126.73 239.742 126.73ZM256.901 137.384C255.435 137.378 254.174 137.017 253.117 136.301C252.066 135.585 251.256 134.548 250.688 133.19C250.126 131.832 249.847 130.199 249.853 128.29C249.853 126.386 250.134 124.764 250.697 123.423C251.265 122.082 252.075 121.062 253.126 120.364C254.183 119.659 255.441 119.307 256.901 119.307C258.362 119.307 259.617 119.659 260.668 120.364C261.725 121.068 262.538 122.091 263.106 123.432C263.674 124.767 263.955 126.386 263.95 128.29C263.95 130.205 263.666 131.841 263.097 133.199C262.535 134.557 261.728 135.594 260.677 136.31C259.626 137.026 258.367 137.384 256.901 137.384ZM256.901 134.324C257.901 134.324 258.7 133.821 259.296 132.815C259.893 131.81 260.188 130.301 260.183 128.29C260.183 126.966 260.046 125.864 259.773 124.983C259.506 124.102 259.126 123.44 258.631 122.997C258.143 122.554 257.566 122.332 256.901 122.332C255.907 122.332 255.112 122.83 254.515 123.824C253.918 124.818 253.617 126.307 253.612 128.29C253.612 129.631 253.745 130.75 254.012 131.648C254.285 132.54 254.668 133.21 255.163 133.659C255.657 134.102 256.237 134.324 256.901 134.324Z" fill="#141F39"/>
<rect x="91" y="87" width="55" height="56" rx="10.2607" fill="#006D33"/>
<path d="M116.188 222.293C104.576 223.077 89.7957 208.533 89.7957 208.533V260.228H270.213V186.603C251.796 200.54 244.425 185.155 221.323 186.603C205.057 187.622 200.816 214.937 185.845 208.533C168.837 201.257 159.577 181.757 141.714 186.603C125.115 191.105 133.354 221.134 116.188 222.293Z" fill="url(#paint1_linear_129_3018)"/>
<path d="M90.6511 208.402C90.6511 208.402 105.256 222.863 116.73 222.083C133.693 220.931 125.552 191.075 141.955 186.598C159.606 181.78 168.756 201.168 185.563 208.402C200.356 214.769 204.546 187.612 220.62 186.598C243.449 185.159 250.732 200.456 268.931 186.598" stroke="#006D33" stroke-width="1.71012" stroke-linecap="round"/>
<g clip-path="url(#clip0_129_3018)">
<path d="M113.236 109.894C114.283 109.894 115.287 109.478 116.027 108.738C116.768 107.998 117.183 106.994 117.183 105.947C117.183 104.9 116.768 103.896 116.027 103.156C115.287 102.416 114.283 102 113.236 102C112.19 102 111.186 102.416 110.445 103.156C109.705 103.896 109.289 104.9 109.289 105.947C109.289 106.994 109.705 107.998 110.445 108.738C111.186 109.478 112.19 109.894 113.236 109.894ZM106 113.536C106 112.249 107.041 111.21 108.326 111.21H114.598C114.136 112.01 113.893 112.917 113.894 113.841C113.893 114.588 114.052 115.326 114.359 116.007C114.666 116.688 115.115 117.295 115.676 117.788H114.247C113.505 117.788 112.781 118.015 112.172 118.437C111.562 118.859 111.096 119.457 110.835 120.151C108.864 119.67 107.642 118.595 106.922 117.398C106 115.862 106 114.283 106 114.008V113.536ZM124.42 113.841C124.421 112.917 124.179 112.01 123.716 111.21H129.988C131.275 111.21 132.314 112.251 132.314 113.536V114.01C132.314 114.282 132.314 115.862 131.393 117.398C130.672 118.595 129.45 119.67 127.479 120.151C127.218 119.457 126.752 118.859 126.142 118.437C125.533 118.014 124.809 117.788 124.067 117.788H122.638C123.199 117.295 123.648 116.688 123.955 116.007C124.262 115.326 124.421 114.588 124.42 113.841ZM129.025 105.947C129.025 106.994 128.609 107.998 127.869 108.738C127.128 109.478 126.124 109.894 125.078 109.894C124.031 109.894 123.027 109.478 122.287 108.738C121.546 107.998 121.131 106.994 121.131 105.947C121.131 104.9 121.546 103.896 122.287 103.156C123.027 102.416 124.031 102 125.078 102C126.124 102 127.128 102.416 127.869 103.156C128.609 103.896 129.025 104.9 129.025 105.947ZM111.921 121.43C111.921 120.144 112.961 119.104 114.247 119.104H124.067C125.353 119.104 126.393 120.145 126.393 121.43V121.904C126.393 122.176 126.393 123.756 125.472 125.292C124.495 126.915 122.595 128.314 119.157 128.314C115.719 128.314 113.818 126.915 112.842 125.292C111.921 123.756 111.921 122.178 111.921 121.903V121.43ZM119.157 117.788C119.675 117.788 120.189 117.686 120.667 117.488C121.146 117.29 121.582 116.999 121.948 116.632C122.315 116.266 122.605 115.831 122.804 115.352C123.002 114.873 123.104 114.36 123.104 113.841C123.104 113.323 123.002 112.81 122.804 112.331C122.605 111.852 122.315 111.417 121.948 111.05C121.582 110.684 121.146 110.393 120.667 110.195C120.189 109.996 119.675 109.894 119.157 109.894C118.11 109.894 117.106 110.31 116.366 111.05C115.626 111.791 115.21 112.794 115.21 113.841C115.21 114.888 115.626 115.892 116.366 116.632C117.106 117.373 118.11 117.788 119.157 117.788Z" fill="white"/>
</g>
<circle cx="256.332" cy="185.302" r="4.27529" fill="white" stroke="#006D33" stroke-width="1.71012"/>
<line x1="255.905" y1="171.621" x2="255.905" y2="256.272" stroke="url(#paint2_linear_129_3018)" stroke-width="0.855058" stroke-dasharray="1.71 1.71"/>
<g filter="url(#filter2_d_129_3018)">
<rect x="310" y="48" width="310" height="382" rx="18.1324" fill="white"/>
<g clip-path="url(#clip1_129_3018)">
<rect x="325" y="63" width="280" height="352" rx="8" fill="white"/>
<rect x="327" y="67.7407" width="275" height="218.796" rx="10" fill="#E7F1F1"/>
<path fill-rule="evenodd" clip-rule="evenodd" d="M435.425 130.98C455.107 129.269 474.9 129.269 494.581 130.98L504.019 131.805C508.406 132.187 512.538 134.034 515.747 137.05C518.957 140.066 521.058 144.074 521.712 148.43C524.547 167.282 524.547 186.452 521.712 205.305C521.462 206.955 521.012 208.536 520.387 210.017C519.975 210.998 518.7 211.148 517.975 210.361L490.344 179.961C489.733 179.289 488.94 178.809 488.061 178.579C487.182 178.349 486.255 178.38 485.394 178.667L469.575 183.942L446.631 158.13C446.207 157.652 445.689 157.266 445.11 156.996C444.532 156.726 443.904 156.577 443.265 156.558C442.626 156.539 441.991 156.651 441.397 156.887C440.803 157.123 440.264 157.478 439.812 157.93L409.1 188.642C408.891 188.857 408.625 189.006 408.333 189.071C408.041 189.136 407.736 189.114 407.456 189.009C407.176 188.903 406.933 188.718 406.756 188.477C406.58 188.235 406.478 187.947 406.462 187.648C405.723 174.545 406.335 161.401 408.287 148.423C408.942 144.068 411.043 140.06 414.253 137.044C417.462 134.028 421.594 132.18 425.981 131.798L435.425 130.98ZM477.5 158.117C477.5 155.631 478.488 153.246 480.246 151.488C482.004 149.73 484.389 148.742 486.875 148.742C489.361 148.742 491.746 149.73 493.504 151.488C495.262 153.246 496.25 155.631 496.25 158.117C496.25 160.604 495.262 162.988 493.504 164.746C491.746 166.504 489.361 167.492 486.875 167.492C484.389 167.492 482.004 166.504 480.246 164.746C478.488 162.988 477.5 160.604 477.5 158.117Z" fill="white"/>
<path d="M408.506 202.492C408.337 202.662 408.209 202.87 408.134 203.097C408.058 203.325 408.035 203.567 408.069 203.805L408.287 205.305C408.942 209.66 411.043 213.668 414.253 216.684C417.462 219.7 421.594 221.548 425.981 221.93L435.419 222.748C455.106 224.461 474.894 224.461 494.581 222.748L504.019 221.93C506.607 221.706 509.125 220.969 511.425 219.761C512.281 219.317 512.425 218.186 511.775 217.473L486.15 189.286C485.946 189.06 485.681 188.898 485.387 188.82C485.093 188.742 484.782 188.752 484.494 188.848L469.606 193.811C468.736 194.102 467.799 194.13 466.913 193.894C466.026 193.657 465.228 193.165 464.619 192.48L444.025 169.311C443.883 169.152 443.71 169.023 443.517 168.933C443.324 168.843 443.114 168.794 442.901 168.788C442.688 168.782 442.476 168.82 442.278 168.899C442.08 168.978 441.9 169.097 441.75 169.248L408.506 202.492Z" fill="white"/>
<rect x="337" y="371" width="251" height="44" rx="10" fill="#E6F1F1"/>
<g filter="url(#filter3_d_129_3018)">
<rect x="472" y="262.444" width="116" height="34.2481" rx="10" fill="white" shape-rendering="crispEdges"/>
<path d="M488.088 284.568V280.616H487.16V279.432H488.088V278.28H487.16V277.096H488.088V273.144H490.6L491.848 277.096H493.304V273.144H495.08V277.096H495.992V278.28H495.08V279.432H495.992V280.616H495.08V284.568H492.552L491.272 280.616H489.864V284.568H488.088ZM489.864 279.432H490.92L490.568 278.28H489.832L489.864 279.432ZM493.352 282.072H493.432L493.368 280.616H492.936L493.352 282.072ZM489.8 277.096H490.248L489.784 275.56H489.72L489.8 277.096ZM492.6 279.432H493.336L493.304 278.28H492.232L492.6 279.432Z" fill="#C4C4C4"/>
<rect x="507" y="271.568" width="66" height="16" rx="8" fill="#E7F1F1"/>
</g>
<path d="M342.432 355.9V354.08H337.602V352.652L342.194 346.1H344.224V352.526H345.512V354.08H344.224V355.9H342.432ZM339.52 352.526H342.544V348.074L339.52 352.526ZM347.469 355.998C347.142 355.998 346.871 355.896 346.657 355.69C346.451 355.485 346.349 355.238 346.349 354.948C346.349 354.65 346.451 354.398 346.657 354.192C346.871 353.987 347.142 353.884 347.469 353.884C347.795 353.884 348.061 353.987 348.267 354.192C348.481 354.398 348.589 354.65 348.589 354.948C348.589 355.238 348.481 355.485 348.267 355.69C348.061 355.896 347.795 355.998 347.469 355.998ZM353.438 356.068C352.719 356.068 352.098 355.942 351.576 355.69C351.062 355.438 350.656 355.093 350.358 354.654C350.068 354.206 349.9 353.702 349.854 353.142H351.604C351.688 353.544 351.893 353.88 352.22 354.15C352.546 354.412 352.952 354.542 353.438 354.542C353.96 354.542 354.385 354.351 354.712 353.968C355.048 353.586 355.216 353.11 355.216 352.54C355.216 351.952 355.048 351.486 354.712 351.14C354.385 350.795 353.97 350.622 353.466 350.622C353.046 350.622 352.682 350.725 352.374 350.93C352.066 351.136 351.846 351.392 351.716 351.7H349.994L350.834 346.1H356.266V347.668H352.178L351.73 349.936C351.935 349.712 352.215 349.53 352.57 349.39C352.924 349.241 353.321 349.166 353.76 349.166C354.46 349.166 355.043 349.325 355.51 349.642C355.976 349.95 356.331 350.361 356.574 350.874C356.816 351.378 356.938 351.929 356.938 352.526C356.938 353.208 356.788 353.814 356.49 354.346C356.2 354.878 355.79 355.298 355.258 355.606C354.735 355.914 354.128 356.068 353.438 356.068Z" fill="#006D33"/>
<path d="M373.715 344.779C373.804 344.502 374.196 344.502 374.285 344.779L375.729 349.221C375.769 349.345 375.884 349.428 376.014 349.428H380.685C380.976 349.428 381.097 349.8 380.861 349.971L377.083 352.717C376.977 352.793 376.933 352.928 376.974 353.052L378.417 357.494C378.507 357.771 378.19 358.001 377.955 357.83L374.176 355.084C374.071 355.008 373.929 355.008 373.824 355.084L370.045 357.83C369.81 358.001 369.493 357.771 369.583 357.494L371.026 353.052C371.067 352.928 371.023 352.793 370.917 352.717L367.139 349.971C366.903 349.8 367.024 349.428 367.315 349.428H371.986C372.116 349.428 372.231 349.345 372.271 349.221L373.715 344.779Z" fill="#006D33"/>
<path d="M391.715 344.779C391.804 344.502 392.196 344.502 392.285 344.779L393.729 349.221C393.769 349.345 393.884 349.428 394.014 349.428H398.685C398.976 349.428 399.097 349.8 398.861 349.971L395.083 352.717C394.977 352.793 394.933 352.928 394.974 353.052L396.417 357.494C396.507 357.771 396.19 358.001 395.955 357.83L392.176 355.084C392.071 355.008 391.929 355.008 391.824 355.084L388.045 357.83C387.81 358.001 387.493 357.771 387.583 357.494L389.026 353.052C389.067 352.928 389.023 352.793 388.917 352.717L385.139 349.971C384.903 349.8 385.024 349.428 385.315 349.428H389.986C390.116 349.428 390.231 349.345 390.271 349.221L391.715 344.779Z" fill="#006D33"/>
<path d="M409.715 344.779C409.804 344.502 410.196 344.502 410.285 344.779L411.729 349.221C411.769 349.345 411.884 349.428 412.014 349.428H416.685C416.976 349.428 417.097 349.8 416.861 349.971L413.083 352.717C412.977 352.793 412.933 352.928 412.974 353.052L414.417 357.494C414.507 357.771 414.19 358.001 413.955 357.83L410.176 355.084C410.071 355.008 409.929 355.008 409.824 355.084L406.045 357.83C405.81 358.001 405.493 357.771 405.583 357.494L407.026 353.052C407.067 352.928 407.023 352.793 406.917 352.717L403.139 349.971C402.903 349.8 403.024 349.428 403.315 349.428H407.986C408.116 349.428 408.231 349.345 408.271 349.221L409.715 344.779Z" fill="#006D33"/>
<path d="M427.715 344.779C427.804 344.502 428.196 344.502 428.285 344.779L429.729 349.221C429.769 349.345 429.884 349.428 430.014 349.428H434.685C434.976 349.428 435.097 349.8 434.861 349.971L431.083 352.717C430.977 352.793 430.933 352.928 430.974 353.052L432.417 357.494C432.507 357.771 432.19 358.001 431.955 357.83L428.176 355.084C428.071 355.008 427.929 355.008 427.824 355.084L424.045 357.83C423.81 358.001 423.493 357.771 423.583 357.494L425.026 353.052C425.067 352.928 425.023 352.793 424.917 352.717L421.139 349.971C420.903 349.8 421.024 349.428 421.315 349.428H425.986C426.116 349.428 426.231 349.345 426.271 349.221L427.715 344.779Z" fill="#006D33"/>
<path d="M445.72 344.622C445.819 344.367 446.181 344.367 446.28 344.622L447.952 348.937C447.995 349.047 448.098 349.122 448.215 349.128L452.836 349.385C453.109 349.4 453.221 349.744 453.008 349.917L449.422 352.841C449.33 352.916 449.291 353.037 449.321 353.15L450.504 357.624C450.574 357.889 450.282 358.102 450.052 357.953L446.163 355.445C446.064 355.381 445.936 355.381 445.837 355.445L441.948 357.953C441.718 358.102 441.426 357.889 441.496 357.624L442.679 353.15C442.709 353.037 442.67 352.916 442.578 352.841L438.992 349.917C438.779 349.744 438.891 349.4 439.164 349.385L443.785 349.128C443.902 349.122 444.005 349.047 444.048 348.937L445.72 344.622Z" fill="url(#paint3_linear_129_3018)"/>
<path d="M470.081 358.43C469.577 357.945 469.11 357.366 468.681 356.694C468.252 356.032 467.906 355.285 467.645 354.454C467.393 353.614 467.267 352.709 467.267 351.738C467.267 350.768 467.393 349.867 467.645 349.036C467.906 348.196 468.252 347.445 468.681 346.782C469.11 346.11 469.577 345.532 470.081 345.046H471.285V345.158C470.426 345.998 469.736 346.983 469.213 348.112C468.7 349.232 468.443 350.441 468.443 351.738C468.443 353.036 468.704 354.249 469.227 355.378C469.75 356.498 470.436 357.478 471.285 358.318V358.43H470.081ZM475.65 356.568C475.034 356.568 474.507 356.447 474.068 356.204C473.63 355.962 473.28 355.64 473.018 355.238C472.766 354.828 472.612 354.375 472.556 353.88H473.648C473.742 354.412 473.966 354.823 474.32 355.112C474.675 355.402 475.123 355.546 475.664 355.546C476.411 355.546 477.032 355.201 477.526 354.51C478.021 353.81 478.287 352.723 478.324 351.248C478.1 351.687 477.741 352.07 477.246 352.396C476.761 352.714 476.173 352.872 475.482 352.872C474.932 352.872 474.409 352.742 473.914 352.48C473.42 352.219 473.018 351.855 472.71 351.388C472.402 350.912 472.248 350.357 472.248 349.722C472.248 349.172 472.384 348.644 472.654 348.14C472.934 347.636 473.326 347.226 473.83 346.908C474.334 346.591 474.936 346.432 475.636 346.432C476.346 346.432 476.943 346.568 477.428 346.838C477.914 347.1 478.301 347.454 478.59 347.902C478.889 348.35 479.104 348.854 479.234 349.414C479.374 349.965 479.444 350.53 479.444 351.108C479.444 352.191 479.295 353.143 478.996 353.964C478.698 354.776 478.264 355.416 477.694 355.882C477.134 356.34 476.453 356.568 475.65 356.568ZM475.72 351.85C476.159 351.85 476.551 351.752 476.896 351.556C477.242 351.351 477.517 351.08 477.722 350.744C477.928 350.408 478.03 350.044 478.03 349.652C478.03 349.232 477.928 348.859 477.722 348.532C477.517 348.196 477.242 347.935 476.896 347.748C476.551 347.562 476.159 347.468 475.72 347.468C475.282 347.468 474.89 347.562 474.544 347.748C474.199 347.935 473.928 348.196 473.732 348.532C473.536 348.859 473.438 349.237 473.438 349.666C473.438 350.329 473.653 350.861 474.082 351.262C474.521 351.654 475.067 351.85 475.72 351.85ZM480.227 358.066L481.039 354.972H482.257L481.039 358.066H480.227ZM488.161 356.4V354.3H483.191V353.39L487.951 346.6H489.323V353.264H490.779V354.3H489.323V356.4H488.161ZM484.493 353.264H488.217V347.902L484.493 353.264ZM492.046 356.4V355.574C492.708 355.052 493.334 354.524 493.922 353.992C494.519 353.451 495.046 352.919 495.504 352.396C495.97 351.874 496.334 351.36 496.596 350.856C496.866 350.352 497.002 349.867 497.002 349.4C497.002 349.055 496.941 348.733 496.82 348.434C496.708 348.136 496.521 347.898 496.26 347.72C495.998 347.534 495.644 347.44 495.196 347.44C494.766 347.44 494.407 347.538 494.118 347.734C493.828 347.921 493.609 348.173 493.46 348.49C493.32 348.808 493.25 349.148 493.25 349.512H492.116C492.116 348.868 492.251 348.318 492.522 347.86C492.792 347.394 493.161 347.039 493.628 346.796C494.094 346.554 494.622 346.432 495.21 346.432C496.078 346.432 496.787 346.68 497.338 347.174C497.898 347.66 498.178 348.388 498.178 349.358C498.178 349.937 498.033 350.511 497.744 351.08C497.454 351.64 497.086 352.186 496.638 352.718C496.19 353.241 495.709 353.731 495.196 354.188C494.692 354.646 494.22 355.056 493.782 355.42H498.514V356.4H492.046ZM503.213 356.568C502.569 356.568 501.99 356.452 501.477 356.218C500.964 355.976 500.558 355.644 500.259 355.224C499.97 354.795 499.825 354.3 499.825 353.74C499.825 353.143 499.998 352.606 500.343 352.13C500.698 351.654 501.164 351.337 501.743 351.178C501.211 351.001 500.8 350.716 500.511 350.324C500.222 349.932 500.077 349.503 500.077 349.036C500.077 348.56 500.203 348.126 500.455 347.734C500.707 347.333 501.066 347.016 501.533 346.782C502 346.549 502.56 346.432 503.213 346.432C503.866 346.432 504.426 346.549 504.893 346.782C505.36 347.016 505.719 347.333 505.971 347.734C506.223 348.126 506.349 348.56 506.349 349.036C506.349 349.494 506.204 349.923 505.915 350.324C505.626 350.716 505.215 351.001 504.683 351.178C505.262 351.337 505.724 351.654 506.069 352.13C506.424 352.606 506.601 353.143 506.601 353.74C506.601 354.3 506.452 354.795 506.153 355.224C505.864 355.644 505.462 355.976 504.949 356.218C504.436 356.452 503.857 356.568 503.213 356.568ZM503.213 350.758C503.81 350.758 504.282 350.609 504.627 350.31C504.982 350.002 505.159 349.601 505.159 349.106C505.159 348.556 504.986 348.14 504.641 347.86C504.296 347.58 503.82 347.44 503.213 347.44C502.606 347.44 502.13 347.58 501.785 347.86C501.449 348.14 501.281 348.556 501.281 349.106C501.281 349.601 501.454 350.002 501.799 350.31C502.144 350.609 502.616 350.758 503.213 350.758ZM503.213 355.532C503.95 355.532 504.501 355.364 504.865 355.028C505.238 354.683 505.425 354.23 505.425 353.67C505.425 353.036 505.224 352.555 504.823 352.228C504.422 351.902 503.885 351.738 503.213 351.738C502.541 351.738 502.004 351.902 501.603 352.228C501.202 352.555 501.001 353.036 501.001 353.67C501.001 354.23 501.183 354.683 501.547 355.028C501.92 355.364 502.476 355.532 503.213 355.532ZM507.446 358.43V358.318C508.295 357.478 508.981 356.498 509.504 355.378C510.036 354.249 510.302 353.036 510.302 351.738C510.302 350.441 510.04 349.232 509.518 348.112C508.995 346.983 508.309 345.998 507.46 345.158V345.046H508.65C509.163 345.532 509.63 346.11 510.05 346.782C510.479 347.445 510.82 348.196 511.072 349.036C511.333 349.867 511.464 350.768 511.464 351.738C511.464 352.709 511.333 353.614 511.072 354.454C510.82 355.285 510.479 356.032 510.05 356.694C509.63 357.366 509.163 357.945 508.65 358.43H507.446Z" fill="#686868"/>
<rect x="337" y="316.9" width="162" height="17" rx="8.5" fill="#E7F1F1"/>
</g>
</g>
<defs>
<filter id="filter0_d_129_3018" x="134.534" y="297.395" width="386.931" height="360.931" filterUnits="userSpaceOnUse" color-interpolation-filters="sRGB">
<feFlood flood-opacity="0" result="BackgroundImageFix"/>
<feColorMatrix in="SourceAlpha" type="matrix" values="0 0 0 0 0 0 0 0 0 0 0 0 0 0 0 0 0 0 127 0" result="hardAlpha"/>
<feOffset dy="6.86069"/>
<feGaussianBlur stdDeviation="8.23283"/>
<feComposite in2="hardAlpha" operator="out"/>
<feColorMatrix type="matrix" values="0 0 0 0 0 0 0 0 0 0 0 0 0 0 0 0 0 0 0.09 0"/>
<feBlend mode="normal" in2="BackgroundImageFix" result="effect1_dropShadow_129_3018"/>
<feBlend mode="normal" in="SourceGraphic" in2="effect1_dropShadow_129_3018" result="shape"/>
</filter>
<filter id="filter1_d_129_3018" x="0.128548" y="0.453311" width="366.594" height="352.058" filterUnits="userSpaceOnUse" color-interpolation-filters="sRGB">
<feFlood flood-opacity="0" result="BackgroundImageFix"/>
<feColorMatrix in="SourceAlpha" type="matrix" values="0 0 0 0 0 0 0 0 0 0 0 0 0 0 0 0 0 0 127 0" result="hardAlpha"/>
<feOffset dy="4.32476"/>
<feGaussianBlur stdDeviation="32.4357"/>
<feComposite in2="hardAlpha" operator="out"/>
<feColorMatrix type="matrix" values="0 0 0 0 0 0 0 0 0 0 0 0 0 0 0 0 0 0 0.08 0"/>
<feBlend mode="normal" in2="BackgroundImageFix" result="effect1_dropShadow_129_3018"/>
<feBlend mode="normal" in="SourceGraphic" in2="effect1_dropShadow_129_3018" result="shape"/>
</filter>
<filter id="filter2_d_129_3018" x="240" y="33" width="450" height="522" filterUnits="userSpaceOnUse" color-interpolation-filters="sRGB">
<feFlood flood-opacity="0" result="BackgroundImageFix"/>
<feColorMatrix in="SourceAlpha" type="matrix" values="0 0 0 0 0 0 0 0 0 0 0 0 0 0 0 0 0 0 127 0" result="hardAlpha"/>
<feOffset dy="55"/>
<feGaussianBlur stdDeviation="35"/>
<feComposite in2="hardAlpha" operator="out"/>
<feColorMatrix type="matrix" values="0 0 0 0 0 0 0 0 0 0 0 0 0 0 0 0 0 0 0.08 0"/>
<feBlend mode="normal" in2="BackgroundImageFix" result="effect1_dropShadow_129_3018"/>
<feBlend mode="normal" in="SourceGraphic" in2="effect1_dropShadow_129_3018" result="shape"/>
</filter>
<filter id="filter3_d_129_3018" x="422" y="222.444" width="216" height="134.248" filterUnits="userSpaceOnUse" color-interpolation-filters="sRGB">
<feFlood flood-opacity="0" result="BackgroundImageFix"/>
<feColorMatrix in="SourceAlpha" type="matrix" values="0 0 0 0 0 0 0 0 0 0 0 0 0 0 0 0 0 0 127 0" result="hardAlpha"/>
<feOffset dy="10"/>
<feGaussianBlur stdDeviation="25"/>
<feComposite in2="hardAlpha" operator="out"/>
<feColorMatrix type="matrix" values="0 0 0 0 0.435294 0 0 0 0 0.658824 0 0 0 0 1 0 0 0 0.15 0"/>
<feBlend mode="normal" in2="BackgroundImageFix" result="effect1_dropShadow_129_3018"/>
<feBlend mode="normal" in="SourceGraphic" in2="effect1_dropShadow_129_3018" result="shape"/>
</filter>
<linearGradient id="paint0_linear_129_3018" x1="65" y1="68.5981" x2="297.604" y2="274.042" gradientUnits="userSpaceOnUse">
<stop stop-color="white" stop-opacity="0.15"/>
<stop offset="1" stop-color="white" stop-opacity="0"/>
</linearGradient>
<linearGradient id="paint1_linear_129_3018" x1="180.432" y1="148.643" x2="180.004" y2="260.228" gradientUnits="userSpaceOnUse">
<stop stop-color="#4BA2A4"/>
<stop offset="1" stop-color="white" stop-opacity="0"/>
</linearGradient>
<linearGradient id="paint2_linear_129_3018" x1="255.478" y1="165.208" x2="255.478" y2="246.438" gradientUnits="userSpaceOnUse">
<stop stop-color="white"/>
<stop offset="1" stop-color="white" stop-opacity="0"/>
</linearGradient>
<linearGradient id="paint3_linear_129_3018" x1="439.5" y1="351.695" x2="447.5" y2="351.695" gradientUnits="userSpaceOnUse">
<stop offset="0.812384" stop-color="#006D33"/>
<stop offset="0.831089" stop-color="#707070" stop-opacity="0.34"/>
</linearGradient>
<clipPath id="clip0_129_3018">
<rect width="27" height="27" fill="white" transform="translate(105 102)"/>
</clipPath>
<clipPath id="clip1_129_3018">
<rect x="325" y="63" width="280" height="352" rx="8" fill="white"/>
</clipPath>
</defs>
</svg>
