<svg width="15" height="16" viewBox="0 0 15 16" fill="none" xmlns="http://www.w3.org/2000/svg">
<path d="M9.37512 14.7188C9.20637 14.7188 9.05012 14.625 8.96887 14.4813C8.88762 14.3375 8.88762 14.1563 8.97512 14.0125L9.63137 12.9188C9.76262 12.6938 10.0501 12.625 10.2751 12.7563C10.5001 12.8875 10.5689 13.175 10.4376 13.4L10.2689 13.6813C11.9939 13.275 13.2876 11.725 13.2876 9.875C13.2876 9.61875 13.5001 9.40625 13.7564 9.40625C14.0126 9.40625 14.2251 9.61875 14.2251 9.875C14.2189 12.5438 12.0439 14.7188 9.37512 14.7188Z" fill="#006D33"/>
<path d="M1.25 6.59375C0.99375 6.59375 0.78125 6.38125 0.78125 6.125C0.78125 3.45625 2.95625 1.28125 5.625 1.28125C5.79375 1.28125 5.95 1.375 6.03125 1.51875C6.1125 1.6625 6.1125 1.84375 6.025 1.9875L5.36875 3.0875C5.2375 3.30625 4.95 3.38125 4.725 3.24375C4.50625 3.1125 4.43125 2.825 4.56875 2.6L4.7375 2.31875C3.00625 2.725 1.71875 4.275 1.71875 6.125C1.71875 6.38125 1.50625 6.59375 1.25 6.59375Z" fill="#006D33"/>
<path d="M6.66885 9.15625L4.70635 8.1C4.5001 7.9875 4.2501 7.9875 4.04385 8.1L2.08135 9.15625C1.9376 9.23125 1.8501 9.3875 1.8501 9.55625C1.8501 9.725 1.9376 9.88125 2.08135 9.95625L4.04385 11.0125C4.1501 11.0688 4.2626 11.0938 4.3751 11.0938C4.4876 11.0938 4.6001 11.0688 4.70635 11.0125L6.66885 9.95625C6.8126 9.88125 6.9001 9.725 6.9001 9.55625C6.9001 9.3875 6.80635 9.2375 6.66885 9.15625Z" fill="#006D33"/>
<path d="M3.71875 11.3813L1.89375 10.4688C1.75625 10.4 1.59375 10.4063 1.45625 10.4875C1.33125 10.5688 1.25 10.7125 1.25 10.8688V12.5938C1.25 12.8938 1.4125 13.1625 1.68125 13.2938L3.50625 14.2063C3.56875 14.2313 3.6375 14.25 3.70625 14.25C3.7875 14.25 3.86875 14.225 3.94375 14.1813C4.075 14.1 4.15625 13.9563 4.15625 13.8V12.075C4.15625 11.7813 3.9875 11.5125 3.71875 11.3813Z" fill="#006D33"/>
<path d="M7.2875 10.4875C7.15625 10.4063 6.99375 10.4 6.85 10.4688L5.025 11.3813C4.75625 11.5125 4.59375 11.7813 4.59375 12.0813V13.8063C4.59375 13.9625 4.675 14.1063 4.80625 14.1875C4.88125 14.225 4.9625 14.25 5.04375 14.25C5.1125 14.25 5.18125 14.2313 5.24375 14.2L7.06875 13.2875C7.3375 13.1563 7.5 12.8875 7.5 12.5875V10.8625C7.5 10.7125 7.41875 10.5688 7.2875 10.4875Z" fill="#006D33"/>
<path d="M12.9188 2.89374L10.9563 1.83749C10.7501 1.72499 10.5001 1.72499 10.2938 1.83749L8.33135 2.89374C8.1876 2.96874 8.1001 3.12499 8.1001 3.29374C8.1001 3.46249 8.1876 3.61874 8.33135 3.69374L10.2938 4.74999C10.4001 4.80624 10.5126 4.83124 10.6251 4.83124C10.7376 4.83124 10.8501 4.80624 10.9563 4.74999L12.9188 3.69374C13.0626 3.61874 13.1501 3.46249 13.1501 3.29374C13.1501 3.11874 13.0563 2.96874 12.9188 2.89374Z" fill="#006D33"/>
<path d="M9.96875 5.11248L8.14375 4.19998C8.00625 4.13123 7.84375 4.13748 7.70625 4.21873C7.58125 4.29998 7.5 4.44373 7.5 4.59998V6.32498C7.5 6.62498 7.6625 6.89373 7.93125 7.02498L9.75625 7.93748C9.81875 7.96873 9.8875 7.98748 9.95625 7.98748C10.0375 7.98748 10.1187 7.96248 10.1937 7.91873C10.325 7.83748 10.4062 7.69373 10.4062 7.53748V5.81248C10.4062 5.51248 10.2375 5.24373 9.96875 5.11248Z" fill="#006D33"/>
<path d="M13.5375 4.21873C13.4062 4.13748 13.2437 4.13123 13.1 4.19998L11.275 5.11248C11.0063 5.24373 10.8438 5.51248 10.8438 5.81248V7.53748C10.8438 7.69373 10.925 7.83748 11.0563 7.91873C11.1313 7.96248 11.2125 7.98748 11.2937 7.98748C11.3625 7.98748 11.4312 7.96873 11.4937 7.93748L13.3187 7.02498C13.5875 6.88748 13.75 6.61873 13.75 6.32498V4.59998C13.75 4.44373 13.6687 4.29998 13.5375 4.21873Z" fill="#006D33"/>
</svg>
