<svg width="24" height="24" viewBox="0 0 24 24" fill="none" xmlns="http://www.w3.org/2000/svg">
<path d="M20.8096 8.30496C20.7996 7.54758 20.6587 6.79773 20.3934 6.08896C20.1632 5.49111 19.8117 4.94816 19.3614 4.49479C18.911 4.04142 18.3716 3.68761 17.7777 3.45596C17.0826 3.19331 16.3483 3.0513 15.606 3.03596C14.6503 2.99296 14.3473 2.98096 11.9214 2.98096C9.49543 2.98096 9.18449 2.98096 8.23576 3.03596C7.49383 3.05141 6.75987 3.19343 6.06512 3.45596C5.47111 3.68745 4.93164 4.0412 4.48123 4.49459C4.03082 4.94798 3.67939 5.49102 3.44942 6.08896C3.18798 6.78809 3.0472 7.52707 3.03317 8.27396C2.99045 9.23696 2.97754 9.54196 2.97754 11.984C2.97754 14.426 2.97754 14.738 3.03317 15.694C3.04807 16.442 3.18815 17.18 3.44942 17.881C3.67977 18.4787 4.03146 19.0215 4.48202 19.4747C4.93258 19.9279 5.4721 20.2815 6.06611 20.513C6.75896 20.7862 7.49305 20.9383 8.23676 20.963C9.19343 21.006 9.49643 21.019 11.9224 21.019C14.3483 21.019 14.6593 21.019 15.608 20.963C16.3502 20.9482 17.0846 20.8066 17.7796 20.544C18.3734 20.312 18.9127 19.9581 19.363 19.5048C19.8134 19.0515 20.1649 18.5086 20.3953 17.911C20.6566 17.211 20.7967 16.473 20.8116 15.724C20.8543 14.762 20.8672 14.457 20.8672 12.014C20.8652 9.57196 20.8652 9.26196 20.8096 8.30496ZM11.9154 16.602C9.37821 16.602 7.3228 14.533 7.3228 11.979C7.3228 9.42496 9.37821 7.35596 11.9154 7.35596C13.1335 7.35596 14.3016 7.84302 15.1629 8.71C16.0242 9.57698 16.5081 10.7529 16.5081 11.979C16.5081 13.2051 16.0242 14.3809 15.1629 15.2479C14.3016 16.1149 13.1335 16.602 11.9154 16.602ZM16.6908 8.26296C16.0978 8.26296 15.6199 7.78096 15.6199 7.18496C15.6199 7.04346 15.6476 6.90334 15.7014 6.77262C15.7552 6.64189 15.834 6.5231 15.9334 6.42305C16.0328 6.32299 16.1508 6.24363 16.2807 6.18948C16.4106 6.13533 16.5498 6.10746 16.6903 6.10746C16.8309 6.10746 16.9701 6.13533 17.1 6.18948C17.2298 6.24363 17.3479 6.32299 17.4472 6.42305C17.5466 6.5231 17.6255 6.64189 17.6793 6.77262C17.7331 6.90334 17.7608 7.04346 17.7608 7.18496C17.7608 7.78096 17.2819 8.26296 16.6908 8.26296Z" fill="white"/>
<path d="M11.9154 14.9821C13.563 14.9821 14.8987 13.6376 14.8987 11.9791C14.8987 10.3206 13.563 8.97607 11.9154 8.97607C10.2678 8.97607 8.93213 10.3206 8.93213 11.9791C8.93213 13.6376 10.2678 14.9821 11.9154 14.9821Z" fill="white"/>
</svg>
