<svg width="25" height="24" viewBox="0 0 25 24" fill="none" xmlns="http://www.w3.org/2000/svg">
<path fill-rule="evenodd" clip-rule="evenodd" d="M1.25781 2.838C1.25781 2.35053 1.45019 1.88303 1.79261 1.53834C2.13504 1.19365 2.59947 1 3.08374 1H21.2854C21.5253 0.999608 21.763 1.04687 21.9849 1.13907C22.2067 1.23127 22.4083 1.36661 22.5781 1.53734C22.7478 1.70807 22.8825 1.91083 22.9744 2.13401C23.0662 2.3572 23.1134 2.59643 23.1133 2.838V21.16C23.1135 21.4016 23.0665 21.6409 22.9747 21.8642C22.883 22.0875 22.7485 22.2904 22.5788 22.4613C22.4091 22.6322 22.2076 22.7678 21.9859 22.8602C21.7641 22.9526 21.5264 23.0001 21.2863 23H3.08374C2.84387 23 2.60635 22.9524 2.38476 22.86C2.16316 22.7676 1.96183 22.6321 1.79226 22.4613C1.6227 22.2905 1.48822 22.0878 1.39652 21.8647C1.30481 21.6416 1.25768 21.4025 1.25781 21.161V2.838ZM9.9086 9.388H12.868V10.884C13.2952 10.024 14.388 9.25 16.0301 9.25C19.1783 9.25 19.9244 10.963 19.9244 14.106V19.928H16.7384V14.822C16.7384 13.032 16.3113 12.022 15.2264 12.022C13.7214 12.022 13.0955 13.111 13.0955 14.822V19.928H9.9086V9.388ZM4.44474 19.791H7.63166V9.25H4.44474V19.79V19.791ZM8.08764 5.812C8.09365 6.08668 8.04509 6.35979 7.94483 6.61532C7.84456 6.87084 7.69459 7.10364 7.50373 7.30003C7.31288 7.49643 7.08497 7.65248 6.83339 7.75901C6.58181 7.86554 6.31163 7.92042 6.03869 7.92042C5.76576 7.92042 5.49557 7.86554 5.24399 7.75901C4.99241 7.65248 4.76451 7.49643 4.57365 7.30003C4.38279 7.10364 4.23283 6.87084 4.13256 6.61532C4.03229 6.35979 3.98374 6.08668 3.98974 5.812C4.00154 5.27286 4.22259 4.75979 4.60556 4.38269C4.98852 4.00558 5.50296 3.79442 6.03869 3.79442C6.57443 3.79442 7.08886 4.00558 7.47183 4.38269C7.8548 4.75979 8.07585 5.27286 8.08764 5.812Z" fill="white"/>
</svg>
