<svg width="15" height="16" viewBox="0 0 15 16" fill="none" xmlns="http://www.w3.org/2000/svg">
<path d="M13.4375 10.0625C13.6125 10.0625 13.75 10.2 13.75 10.375V11C13.75 12.0375 12.9125 12.875 11.875 12.875C11.875 11.8438 11.0312 11 10 11C8.96875 11 8.125 11.8438 8.125 12.875H6.875C6.875 11.8438 6.03125 11 5 11C3.96875 11 3.125 11.8438 3.125 12.875C2.0875 12.875 1.25 12.0375 1.25 11V9.75C1.25 9.40625 1.53125 9.125 1.875 9.125H7.8125C8.675 9.125 9.375 8.425 9.375 7.5625V4.125C9.375 3.78125 9.65625 3.5 10 3.5H10.525C10.975 3.5 11.3875 3.74375 11.6125 4.13125L12.0125 4.83125C12.0687 4.93125 11.9937 5.0625 11.875 5.0625C11.0125 5.0625 10.3125 5.7625 10.3125 6.625V8.5C10.3125 9.3625 11.0125 10.0625 11.875 10.0625H13.4375Z" fill="#006D33"/>
<path d="M5 14.125C5.69036 14.125 6.25 13.5654 6.25 12.875C6.25 12.1846 5.69036 11.625 5 11.625C4.30964 11.625 3.75 12.1846 3.75 12.875C3.75 13.5654 4.30964 14.125 5 14.125Z" fill="#006D33"/>
<path d="M10 14.125C10.6904 14.125 11.25 13.5654 11.25 12.875C11.25 12.1846 10.6904 11.625 10 11.625C9.30964 11.625 8.75 12.1846 8.75 12.875C8.75 13.5654 9.30964 14.125 10 14.125Z" fill="#006D33"/>
<path d="M13.75 8.20625V9.125H11.875C11.5312 9.125 11.25 8.84375 11.25 8.5V6.625C11.25 6.28125 11.5312 6 11.875 6H12.6813L13.5875 7.5875C13.6937 7.775 13.75 7.9875 13.75 8.20625Z" fill="#006D33"/>
<path d="M8.175 1.625H3.55625C2.4375 1.625 1.5 2.425 1.29375 3.4875H4.025C4.2625 3.4875 4.45 3.68125 4.45 3.91875C4.45 4.15625 4.2625 4.34375 4.025 4.34375H1.25V5.20625H2.875C3.1125 5.20625 3.30625 5.4 3.30625 5.6375C3.30625 5.875 3.1125 6.0625 2.875 6.0625H1.25V6.925H1.73125C1.96875 6.925 2.1625 7.11875 2.1625 7.35625C2.1625 7.59375 1.96875 7.78125 1.73125 7.78125H1.25V7.925C1.25 8.26875 1.53125 8.55 1.875 8.55H7.59375C8.23125 8.55 8.75 8.03125 8.75 7.39375V2.2C8.75 1.88125 8.49375 1.625 8.175 1.625Z" fill="#006D33"/>
<path d="M1.29375 3.48752H1.2H0.5875C0.35 3.48752 0.15625 3.68127 0.15625 3.91877C0.15625 4.15627 0.35 4.34377 0.5875 4.34377H1.15625H1.25V3.93127C1.25 3.78127 1.26875 3.63127 1.29375 3.48752Z" fill="#006D33"/>
<path d="M1.15625 5.20627H0.5875C0.35 5.20627 0.15625 5.40002 0.15625 5.63752C0.15625 5.87502 0.35 6.06252 0.5875 6.06252H1.15625H1.25V5.20627H1.15625Z" fill="#006D33"/>
<path d="M1.15625 6.92502H0.5875C0.35 6.92502 0.15625 7.11877 0.15625 7.35627C0.15625 7.59377 0.35 7.78127 0.5875 7.78127H1.15625H1.25V6.92502H1.15625Z" fill="#006D33"/>
</svg>
