<svg width="21" height="16" viewBox="0 0 21 16" fill="none" xmlns="http://www.w3.org/2000/svg">
<path d="M3.46891 0H17.5314C19.3366 0 20.8118 1.35645 20.9115 3.06558L20.9168 3.25V12.75C20.9168 14.483 19.5038 15.8992 17.7235 15.9949L17.5314 16H3.46891C1.66367 16 0.188444 14.6435 0.0888503 12.9344L0.0834961 12.75V3.25C0.0834961 1.51697 1.49646 0.10075 3.27681 0.00513983L3.46891 0ZM19.3543 5.373L10.864 9.6637C10.6688 9.7623 10.4409 9.7764 10.2364 9.706L10.1363 9.6637L1.646 5.374V12.75C1.646 13.6682 2.38257 14.4212 3.3194 14.4942L3.46891 14.5H17.5314C18.4879 14.5 19.2722 13.7929 19.3483 12.8935L19.3543 12.75V5.373ZM17.5314 1.5H3.46891C2.51249 1.5 1.72809 2.20711 1.65204 3.10647L1.646 3.25V3.679L10.5002 8.1525L19.3543 3.678V3.25C19.3543 2.33183 18.6178 1.57881 17.6809 1.5058L17.5314 1.5Z" fill="white"/>
</svg>
