<svg width="15" height="16" viewBox="0 0 15 16" fill="none" xmlns="http://www.w3.org/2000/svg">
<path d="M10.9998 3.56874L7.46855 1.66874C7.09355 1.46874 6.6498 1.46874 6.2748 1.66874L2.7498 3.56874C2.49355 3.71249 2.33105 3.98749 2.33105 4.28749C2.33105 4.59374 2.4873 4.86874 2.7498 5.00624L6.28105 6.90624C6.46855 7.00624 6.6748 7.05624 6.8748 7.05624C7.0748 7.05624 7.2873 7.00624 7.46855 6.90624L10.9998 5.00624C11.2561 4.86874 11.4186 4.59374 11.4186 4.28749C11.4186 3.98749 11.2561 3.71249 10.9998 3.56874Z" fill="#006D33"/>
<path d="M5.7 7.56875L2.41875 5.93125C2.1625 5.8 1.875 5.81875 1.63125 5.9625C1.39375 6.1125 1.25 6.36875 1.25 6.65V9.75C1.25 10.2875 1.55 10.7687 2.03125 11.0125L5.3125 12.65C5.425 12.7062 5.55 12.7375 5.675 12.7375C5.81875 12.7375 5.96875 12.6937 6.1 12.6187C6.3375 12.4687 6.48125 12.2125 6.48125 11.9312V8.83125C6.475 8.29374 6.175 7.8125 5.7 7.56875Z" fill="#006D33"/>
<path d="M12.4999 6.65V8.1875C12.1999 8.1 11.8812 8.0625 11.5624 8.0625C10.7124 8.0625 9.88115 8.35625 9.2249 8.88125C8.3249 9.5875 7.8124 10.6562 7.8124 11.8125C7.8124 12.1187 7.8499 12.425 7.93115 12.7187C7.8374 12.7062 7.74365 12.6687 7.65615 12.6125C7.41865 12.4687 7.2749 12.2125 7.2749 11.9312V8.83125C7.2749 8.29374 7.5749 7.8125 8.0499 7.56875L11.3312 5.93125C11.5874 5.8 11.8749 5.81875 12.1187 5.9625C12.3562 6.1125 12.4999 6.36875 12.4999 6.65Z" fill="#006D33"/>
<path d="M13.7375 10.0437C13.225 9.41248 12.4437 9.01248 11.5625 9.01248C10.9 9.01248 10.2875 9.24373 9.80625 9.63123C9.15625 10.1437 8.75 10.9375 8.75 11.825C8.75 12.35 8.9 12.85 9.15625 13.275C9.325 13.5562 9.5375 13.8 9.7875 14H9.79375C10.275 14.4 10.8937 14.6375 11.5625 14.6375C12.275 14.6375 12.9187 14.375 13.4125 13.9375C13.6312 13.75 13.8188 13.525 13.9688 13.275C14.225 12.85 14.375 12.35 14.375 11.825C14.375 11.15 14.1375 10.525 13.7375 10.0437ZM12.975 11.475L11.475 12.8625C11.3875 12.9437 11.2688 12.9875 11.1563 12.9875C11.0375 12.9875 10.9187 12.9437 10.825 12.85L10.1312 12.1562C9.95 11.975 9.95 11.675 10.1312 11.4937C10.3125 11.3125 10.6125 11.3125 10.7938 11.4937L11.1688 11.8687L12.3375 10.7875C12.525 10.6125 12.825 10.625 13 10.8125C13.1812 11.0062 13.1688 11.3 12.975 11.475Z" fill="#006D33"/>
</svg>
