<svg width="71" height="70" viewBox="0 0 71 70" fill="none" xmlns="http://www.w3.org/2000/svg">
<path fill-rule="evenodd" clip-rule="evenodd" d="M14.5085 8.75C13.9573 8.75 13.4658 9.13208 13.2763 9.70667L9.91042 19.931C9.80414 20.2544 9.74999 20.5926 9.75 20.9329V25.0002C9.75 27.3 11.4285 29.1667 13.4994 29.1667C15.5702 29.1667 17.2502 27.3 17.2502 25.0002C17.2502 27.3015 18.9288 29.1667 20.9996 29.1667C23.0704 29.1667 24.7504 27.3 24.7504 25.0002C24.7504 27.3015 26.429 29.1667 28.4998 29.1667C30.5706 29.1667 32.2477 27.3029 32.2506 25.0031C32.2506 27.3029 33.9292 29.1667 36 29.1667C38.0708 29.1667 39.7494 27.3 39.7494 25.0002C39.7494 27.3015 41.4294 29.1667 43.5002 29.1667C45.571 29.1667 47.2481 27.3029 47.2496 25.0031C47.251 27.3029 48.9296 29.1667 51.0004 29.1667C53.0713 29.1667 54.7498 27.3 54.7498 25.0002C54.7498 27.3015 56.4283 29.1667 58.5006 29.1667C60.5715 29.1667 62.25 27.3 62.25 25.0002V20.9329C62.25 20.5926 62.1959 20.2544 62.0896 19.931L58.7238 9.70813C58.5342 9.13208 58.0427 8.75 57.4915 8.75H14.5085Z" fill="#6D9E3F"/>
<path fill-rule="evenodd" clip-rule="evenodd" d="M15.5835 30.9603V42.2916H11.9377C11.7443 42.2916 11.5588 42.3684 11.4221 42.5052C11.2853 42.6419 11.2085 42.8274 11.2085 43.0208V44.4791C11.2085 44.6725 11.2853 44.8579 11.4221 44.9947C11.5588 45.1314 11.7443 45.2083 11.9377 45.2083H60.0627C60.2561 45.2083 60.4415 45.1314 60.5783 44.9947C60.715 44.8579 60.7918 44.6725 60.7918 44.4791V43.0208C60.7918 42.8274 60.715 42.6419 60.5783 42.5052C60.4415 42.3684 60.2561 42.2916 60.0627 42.2916H56.4168V30.9603C55.8064 30.7171 55.2425 30.3702 54.75 29.9351C54.3719 30.2686 53.9517 30.551 53.5002 30.7751V42.2916H18.5002V30.7751C18.0486 30.551 17.6284 30.2686 17.2504 29.9351C16.7604 30.3653 16.2004 30.7153 15.5835 30.9603ZM53.5002 28.1064C53.6241 27.9824 53.7408 27.8497 53.8502 27.7083H53.5002V28.1064ZM55.6497 27.7083C55.8702 27.9939 56.1283 28.2485 56.4168 28.4651V27.7083H55.6497ZM15.5835 28.4651C15.8735 28.2502 16.1318 27.9954 16.3506 27.7083H15.5835V28.4651ZM18.1502 27.7083H18.5002V28.1064C18.3749 27.9815 18.258 27.8485 18.1502 27.7083ZM13.396 48.1249C13.2026 48.1249 13.0171 48.2017 12.8804 48.3385C12.7437 48.4752 12.6668 48.6607 12.6668 48.8541V59.7916C12.6668 60.1784 12.8205 60.5493 13.094 60.8228C13.3675 61.0963 13.7384 61.2499 14.1252 61.2499H57.8752C58.2619 61.2499 58.6329 61.0963 58.9064 60.8228C59.1799 60.5493 59.3335 60.1784 59.3335 59.7916V48.8541C59.3335 48.6607 59.2567 48.4752 59.1199 48.3385C58.9832 48.2017 58.7977 48.1249 58.6043 48.1249H13.396Z" fill="#6D9E3F"/>
<path d="M21.4165 38.6459C21.4165 38.4525 21.4933 38.2671 21.6301 38.1303C21.7668 37.9936 21.9523 37.9167 22.1457 37.9167H26.5207C26.7141 37.9167 26.8995 37.9936 27.0363 38.1303C27.173 38.2671 27.2498 38.4525 27.2498 38.6459V41.5626C27.2498 41.756 27.173 41.9414 27.0363 42.0782C26.8995 42.2149 26.7141 42.2917 26.5207 42.2917H22.1457C21.9523 42.2917 21.7668 42.2149 21.6301 42.0782C21.4933 41.9414 21.4165 41.756 21.4165 41.5626V38.6459Z" fill="#6D9E3F"/>
<path d="M24.3335 40.1042C24.3335 39.9109 24.4103 39.7254 24.5471 39.5886C24.6838 39.4519 24.8693 39.3751 25.0627 39.3751H29.4377C29.631 39.3751 29.8165 39.4519 29.9533 39.5886C30.09 39.7254 30.1668 39.9109 30.1668 40.1042V41.5626C30.1668 41.756 30.09 41.9414 29.9533 42.0782C29.8165 42.2149 29.631 42.2917 29.4377 42.2917H25.0627C24.8693 42.2917 24.6838 42.2149 24.5471 42.0782C24.4103 41.9414 24.3335 41.756 24.3335 41.5626V40.1042ZM36.0002 40.1042C36.0002 40.6844 35.7697 41.2408 35.3595 41.651C34.9492 42.0613 34.3928 42.2917 33.8127 42.2917C33.2325 42.2917 32.6761 42.0613 32.2659 41.651C31.8556 41.2408 31.6252 40.6844 31.6252 40.1042C31.6252 39.5241 31.8556 38.9677 32.2659 38.5575C32.6761 38.1472 33.2325 37.9167 33.8127 37.9167C34.3928 37.9167 34.9492 38.1472 35.3595 38.5575C35.7697 38.9677 36.0002 39.5241 36.0002 40.1042Z" fill="#6D9E3F"/>
</svg>
