<svg width="71" height="70" viewBox="0 0 71 70" fill="none" xmlns="http://www.w3.org/2000/svg">
<path fill-rule="evenodd" clip-rule="evenodd" d="M40.2872 53.8709C40.6974 53.4612 41.2533 53.2311 41.833 53.2311C42.4127 53.2311 42.9687 53.4612 43.3789 53.8709L50.583 61.075L63.6205 48.0375C63.8208 47.8226 64.0623 47.6502 64.3306 47.5307C64.599 47.4111 64.8886 47.3468 65.1823 47.3416C65.4761 47.3365 65.7678 47.3905 66.0402 47.5005C66.3126 47.6105 66.56 47.7743 66.7677 47.982C66.9755 48.1897 67.1392 48.4372 67.2492 48.7095C67.3592 48.9819 67.4133 49.2737 67.4081 49.5674C67.4029 49.8611 67.3386 50.1508 67.2191 50.4191C67.0995 50.6874 66.9271 50.9289 66.7122 51.1292L52.1289 65.7125C51.7187 66.1222 51.1627 66.3523 50.583 66.3523C50.0033 66.3523 49.4474 66.1222 49.0372 65.7125L40.2872 56.9625C39.8776 56.5524 39.6475 55.9964 39.6475 55.4167C39.6475 54.837 39.8776 54.281 40.2872 53.8709Z" fill="#6D9E3F"/>
<path fill-rule="evenodd" clip-rule="evenodd" d="M46.4736 50.7763C45.8642 50.1669 45.1407 49.6835 44.3445 49.3537C43.5483 49.0239 42.695 48.8541 41.8332 48.8541C40.0927 48.8541 38.4235 49.5455 37.1928 50.7763C36.5834 51.3856 36.1 52.1091 35.7702 52.9053C35.4404 53.7015 35.2706 54.5549 35.2706 55.4167C35.2706 57.1572 35.962 58.8264 37.1928 60.0571L40.1707 63.0321C38.0911 63.2946 35.7403 63.4375 33.0832 63.4375C22.6123 63.4375 16.9044 61.2004 13.7953 58.5375C12.2319 57.1958 11.389 55.7988 10.9457 54.6583C10.7096 54.0517 10.5565 53.416 10.4907 52.7683C10.4867 52.7149 10.4838 52.6615 10.4819 52.6079V52.5496L10.479 52.5204V52.5058C10.479 52.5058 10.479 52.5 12.6665 52.5H10.479V45.9375C10.479 45.3573 10.7095 44.8009 11.1197 44.3907C11.5299 43.9805 12.0863 43.75 12.6665 43.75C13.874 43.7471 15.449 44.5258 16.2744 45.4067C16.3405 45.4825 16.4127 45.5527 16.4903 45.6167C18.5028 47.0546 23.0703 48.8542 33.0832 48.8542C43.0961 48.8542 47.6636 47.0546 49.679 45.6167C49.7665 45.5525 49.8511 45.4883 49.9328 45.4213C50.9828 44.5813 52.1523 43.7471 53.4998 43.75C54.08 43.75 54.6364 43.9805 55.0466 44.3907C55.4569 44.8009 55.6873 45.3573 55.6873 45.9375V49.7817L50.5832 54.8858L46.4736 50.7763Z" fill="#6D9E3F"/>
<path fill-rule="evenodd" clip-rule="evenodd" d="M12.6665 26.25C12.0863 26.25 11.5299 26.4805 11.1197 26.8907C10.7095 27.3009 10.479 27.8573 10.479 28.4375V35H12.6665C10.479 35 10.479 35.0058 10.479 35.0058V35.1079C10.4859 35.3185 10.5093 35.5281 10.549 35.735C10.6103 36.1083 10.7269 36.5983 10.9457 37.1613C11.389 38.2988 12.2319 39.6988 13.7953 41.0375C16.9044 43.7004 22.6123 45.9375 33.0832 45.9375C43.554 45.9375 49.2619 43.7004 52.3711 41.0375C53.9344 39.6958 54.7773 38.3017 55.2207 37.1583C55.457 36.5518 55.61 35.916 55.6757 35.2683C55.6797 35.2149 55.6826 35.1614 55.6844 35.1079V35.0496L55.6873 35.0204V35.0058C55.6873 35.0058 55.6873 35 53.4998 35H55.6873V28.4375C55.6873 27.8573 55.4569 27.3009 55.0466 26.8907C54.6364 26.4805 54.08 26.25 53.4998 26.25C52.1523 26.2471 50.9828 27.0813 49.9328 27.9213C49.849 27.9887 49.7634 28.0539 49.6761 28.1167C47.6636 29.5546 43.0961 31.3542 33.0832 31.3542C23.0703 31.3542 18.5028 29.5546 16.4873 28.1167C16.4109 28.0535 16.3397 27.9842 16.2744 27.9096C15.449 27.0258 13.874 26.2471 12.6665 26.25Z" fill="#6D9E3F"/>
<path fill-rule="evenodd" clip-rule="evenodd" d="M13.7953 11.4625C16.9044 8.8025 22.6123 6.5625 33.0832 6.5625C43.554 6.5625 49.2619 8.79958 52.3711 11.4625C53.9344 12.8042 54.7773 14.2013 55.2207 15.3417C55.4569 15.9483 55.61 16.584 55.6757 17.2317C55.7055 17.5672 55.6859 17.9052 55.6173 18.235C55.5344 18.7228 55.4014 19.2007 55.2207 19.6613C54.7773 20.7988 53.9344 22.1988 52.3711 23.5346C49.2619 26.2004 43.554 28.4375 33.0832 28.4375C22.6123 28.4375 16.9044 26.2004 13.7953 23.5375C12.2319 22.1958 11.389 20.7987 10.9457 19.6583C10.7652 19.1987 10.6323 18.7217 10.549 18.235C10.5034 17.9887 10.48 17.7388 10.479 17.4883C10.479 17.2463 10.5082 17.0042 10.549 16.765C10.6103 16.3917 10.7269 15.9046 10.9457 15.3387C11.389 14.2012 12.2319 12.7983 13.7953 11.4625Z" fill="#6D9E3F"/>
</svg>
