<svg width="58" height="63" viewBox="0 0 58 63" fill="none" xmlns="http://www.w3.org/2000/svg">
<path d="M11.4998 0.375L0.562335 13.5H7.12484V24.4375H15.8748V13.5H22.4373L11.4998 0.375ZM41.0311 0.375C35.5623 0.375 35.5623 0.375 35.5623 5.83623V27.7188C35.5623 33.1875 35.5623 33.1875 41.0311 33.1875H51.9686C57.4373 33.1875 57.4373 33.1875 57.4373 27.7188V5.84375C57.4373 0.375 57.4373 0.375 51.9686 0.375H41.0311ZM18.0755 28.3892C17.3536 28.4056 16.6793 28.7197 15.7594 29.7012L14.8623 30.654L13.9308 29.7352C12.9209 28.7399 12.124 28.4651 11.3161 28.5006C10.5084 28.5362 9.55857 28.9607 8.49626 29.8205L7.64601 30.5084L6.83855 29.7735C5.62175 28.6726 4.58474 28.3466 3.59148 28.3978C2.86851 28.4353 2.11833 28.7076 1.3698 29.184L6.97103 39.2584C9.08388 40.5506 13.4013 41.0369 16.3704 39.5407L21.7837 29.5129C20.7569 29.0943 19.8341 28.6653 19.0365 28.5006C18.7477 28.4409 18.4796 28.397 18.2202 28.3892C18.1719 28.388 18.1238 28.388 18.0755 28.3892ZM42.1248 37.5625V48.5H35.5623L46.4998 61.625L57.4373 48.5H50.8748V37.5625H42.1248ZM5.77474 41.5402V41.5405C3.30901 43.2825 1.32919 46.2869 0.562335 50.6875C-0.180731 54.9526 0.989854 57.833 3.06169 59.7961C5.13366 61.7594 8.24361 62.7681 11.4015 62.7271C14.5597 62.6861 17.7092 61.591 19.8268 59.5913C21.9446 57.5915 23.1424 54.748 22.4632 50.6789C21.7608 46.4738 19.9475 43.5494 17.652 41.7795C13.7579 43.8379 8.88919 43.4004 5.77474 41.5402Z" fill="#6D9E3F"/>
</svg>
