<svg width="70" height="70" viewBox="0 0 70 70" fill="none" xmlns="http://www.w3.org/2000/svg">
<g clip-path="url(#clip0_284_734)">
<path d="M36.8218 67.6739V43.2989C36.8218 41.7597 37.4332 40.2836 38.5216 39.1952C39.61 38.1068 41.0861 37.4954 42.6253 37.4954C44.1646 37.4954 45.6407 38.1068 46.7291 39.1952C47.8175 40.2836 48.4289 41.7597 48.4289 43.2989V56.0668H57.7146C60.1774 56.0668 62.5392 57.0451 64.2806 58.7865C66.022 60.5279 67.0004 62.8898 67.0004 65.3525V67.6739" fill="#6D9E3F"/>
<path fill-rule="evenodd" clip-rule="evenodd" d="M2.14405 25.54C2.14928 22.5831 2.79301 19.6622 4.03124 16.9771C5.26946 14.2919 7.07297 11.9058 9.31843 9.98195C11.5639 8.05809 14.1983 6.64184 17.0416 5.83006C19.8849 5.01828 22.87 4.8301 25.7927 5.2784C28.7155 5.7267 31.5069 6.8009 33.9762 8.42754C36.4455 10.0542 38.5344 12.1949 40.1 14.7033C41.6656 17.2117 42.6711 20.0287 43.0476 22.9615C43.4241 25.8944 43.1628 28.8739 42.2815 31.6965C39.2639 31.7858 36.3998 33.0474 34.2969 35.2136C32.194 37.3797 31.0179 40.28 31.018 43.299V44.3158C27.8907 45.7053 24.4658 46.2913 21.0545 46.0206C17.6431 45.7498 14.3535 44.6308 11.4847 42.7652C8.61579 40.8997 6.25861 38.3468 4.62735 35.3386C2.99608 32.3303 2.14245 28.9621 2.14405 25.54ZM22.6794 10.5065C24.2858 10.5065 25.5812 11.8065 25.5812 13.4083V14.7222C26.7227 14.9837 27.7796 15.5294 28.6537 16.3086C29.5279 17.0878 30.191 18.0753 30.5815 19.1793C30.7087 19.5388 30.7638 19.9197 30.7437 20.3004C30.7236 20.6811 30.6287 21.0541 30.4644 21.3982C30.3001 21.7422 30.0697 22.0505 29.7863 22.3055C29.5029 22.5605 29.172 22.7572 28.8126 22.8843C28.4532 23.0115 28.0722 23.0665 27.6915 23.0464C27.3108 23.0263 26.9378 22.9315 26.5938 22.7672C26.2497 22.6029 25.9414 22.3725 25.6864 22.0891C25.4314 21.8057 25.2347 21.4748 25.1076 21.1154C25.0289 20.8927 24.883 20.6998 24.6901 20.5635C24.4972 20.4271 24.2667 20.3539 24.0305 20.354H20.8965C20.7233 20.357 20.5571 20.4232 20.4292 20.5403C20.3014 20.6573 20.2207 20.817 20.2025 20.9894C20.1842 21.1617 20.2296 21.3348 20.3301 21.476C20.4305 21.6172 20.5792 21.7169 20.748 21.7561L25.5162 22.7961C27.0577 23.1351 28.4379 23.9886 29.4299 25.2163C30.4218 26.444 30.9663 27.9727 30.9739 29.551C30.9815 31.1293 30.4516 32.6632 29.4715 33.9004C28.4914 35.1375 27.1194 36.0042 25.5812 36.3579V37.6765C25.5812 38.4461 25.2755 39.1842 24.7313 39.7283C24.1871 40.2725 23.449 40.5783 22.6794 40.5783C21.9098 40.5783 21.1717 40.2725 20.6275 39.7283C20.0833 39.1842 19.7776 38.4461 19.7776 37.6765V36.3625C18.6375 36.0991 17.5822 35.5527 16.709 34.7737C15.8359 33.9947 15.1731 33.0082 14.7819 31.9054C14.5252 31.1795 14.5673 30.3814 14.899 29.6865C15.2308 28.9917 15.8249 28.4571 16.5508 28.2004C17.2767 27.9437 18.0749 27.9858 18.7697 28.3175C19.4645 28.6493 19.9991 29.2434 20.2558 29.9693C20.3352 30.1917 20.4812 30.3841 20.674 30.5204C20.8667 30.6567 21.0969 30.7302 21.333 30.7308H24.0305C24.3086 30.7239 24.5747 30.6162 24.7793 30.4277C24.9839 30.2392 25.113 29.9827 25.1426 29.7061C25.1721 29.4294 25.1001 29.1515 24.9399 28.924C24.7797 28.6966 24.5423 28.5351 24.2719 28.4697L19.5083 27.425C18.0328 27.1034 16.7149 26.2791 15.7799 25.0931C14.845 23.9072 14.3513 22.4332 14.3831 20.9233C14.4149 19.4135 14.9703 17.9616 15.9543 16.8161C16.9384 15.6705 18.2898 14.9024 19.7776 14.6433V13.4083C19.7776 11.8018 21.0776 10.5065 22.6794 10.5065ZM36.8215 43.299V69.9954H67.0001V65.3525C67.0001 62.8898 66.0218 60.528 64.2804 58.7866C62.539 57.0451 60.1771 56.0668 57.7144 56.0668H48.4287V43.299C48.4287 41.7598 47.8172 40.2836 46.7289 39.1952C45.6405 38.1068 44.1643 37.4954 42.6251 37.4954C41.0859 37.4954 39.6098 38.1068 38.5214 39.1952C37.433 40.2836 36.8215 41.7598 36.8215 43.299Z" fill="#6D9E3F"/>
</g>
<defs>
<clipPath id="clip0_284_734">
<rect width="65" height="65" fill="white" transform="translate(2 5)"/>
</clipPath>
</defs>
</svg>
