<svg width="70" height="70" viewBox="0 0 70 70" fill="none" xmlns="http://www.w3.org/2000/svg">
<path d="M43.7499 66.3542C42.9624 66.3542 42.2332 65.9167 41.8541 65.2458C41.4749 64.575 41.4749 63.7292 41.8832 63.0583L44.9457 57.9542C45.5582 56.9042 46.8999 56.5833 47.9499 57.1958C48.9999 57.8083 49.3207 59.15 48.7082 60.2L47.9207 61.5125C55.9707 59.6167 62.0082 52.3833 62.0082 43.75C62.0082 42.5542 62.9999 41.5625 64.1957 41.5625C65.3916 41.5625 66.3832 42.5542 66.3832 43.75C66.3541 56.2042 56.2041 66.3542 43.7499 66.3542Z" fill="#6D9E3F"/>
<path d="M5.8335 28.4374C4.63766 28.4374 3.646 27.4458 3.646 26.2499C3.646 13.7958 13.796 3.64575 26.2502 3.64575C27.0377 3.64575 27.7668 4.08325 28.146 4.75409C28.5252 5.42492 28.5252 6.27075 28.1168 6.94159L25.0543 12.0749C24.4418 13.0958 23.1002 13.4458 22.0502 12.8041C21.0293 12.1916 20.6793 10.8499 21.321 9.79992L22.1085 8.48742C14.0293 10.3833 8.021 17.6166 8.021 26.2499C8.021 27.4458 7.02933 28.4374 5.8335 28.4374Z" fill="#6D9E3F"/>
<path d="M31.1208 40.3959L21.9625 35.4667C21 34.9417 19.8333 34.9417 18.8708 35.4667L9.71247 40.3959C9.04163 40.7459 8.6333 41.4751 8.6333 42.2626C8.6333 43.0501 9.04163 43.7793 9.71247 44.1292L18.8708 49.0584C19.3666 49.3209 19.8916 49.4376 20.4166 49.4376C20.9416 49.4376 21.4666 49.3209 21.9625 49.0584L31.1208 44.1292C31.7916 43.7793 32.2 43.0501 32.2 42.2626C32.2 41.4751 31.7625 40.7751 31.1208 40.3959Z" fill="#6D9E3F"/>
<path d="M17.3543 50.7792L8.83766 46.5209C8.196 46.2 7.43766 46.2292 6.796 46.6084C6.21266 46.9875 5.8335 47.6584 5.8335 48.3875V56.4375C5.8335 57.8375 6.59183 59.0917 7.846 59.7042L16.3627 63.9625C16.6543 64.0792 16.9752 64.1667 17.296 64.1667C17.6752 64.1667 18.0543 64.05 18.4043 63.8459C19.0168 63.4667 19.396 62.7959 19.396 62.0667V54.0167C19.396 52.6459 18.6085 51.3917 17.3543 50.7792Z" fill="#6D9E3F"/>
<path d="M34.0083 46.6084C33.3958 46.2292 32.6375 46.2 31.9667 46.5209L23.45 50.7792C22.1958 51.3917 21.4375 52.6459 21.4375 54.0459V62.0959C21.4375 62.825 21.8167 63.4959 22.4292 63.875C22.7792 64.05 23.1583 64.1667 23.5375 64.1667C23.8583 64.1667 24.1792 64.0792 24.4708 63.9334L32.9875 59.675C34.2417 59.0625 35 57.8084 35 56.4084V48.3584C35 47.6584 34.6208 46.9875 34.0083 46.6084Z" fill="#6D9E3F"/>
<path d="M60.2873 11.1708L51.129 6.24165C50.1665 5.71665 48.9998 5.71665 48.0373 6.24165L38.879 11.1708C38.2081 11.5208 37.7998 12.25 37.7998 13.0375C37.7998 13.825 38.2081 14.5542 38.879 14.9042L48.0373 19.8333C48.5331 20.0958 49.0581 20.2125 49.5831 20.2125C50.1081 20.2125 50.6331 20.0958 51.129 19.8333L60.2873 14.9042C60.9581 14.5542 61.3665 13.825 61.3665 13.0375C61.3665 12.2208 60.929 11.5208 60.2873 11.1708Z" fill="#6D9E3F"/>
<path d="M46.5208 21.525L38.0042 17.2667C37.3625 16.9459 36.6042 16.975 35.9625 17.3542C35.3792 17.7334 35 18.4042 35 19.1334V27.1834C35 28.5834 35.7583 29.8375 37.0125 30.45L45.5292 34.7084C45.8208 34.8542 46.1417 34.9417 46.4625 34.9417C46.8417 34.9417 47.2208 34.8251 47.5708 34.6209C48.1833 34.2417 48.5625 33.5709 48.5625 32.8417V24.7917C48.5625 23.3917 47.775 22.1375 46.5208 21.525Z" fill="#6D9E3F"/>
<path d="M63.1753 17.3542C62.5628 16.975 61.8045 16.9459 61.1337 17.2667L52.617 21.525C51.3628 22.1375 50.6045 23.3917 50.6045 24.7917V32.8417C50.6045 33.5709 50.9837 34.2417 51.5962 34.6209C51.9462 34.8251 52.3253 34.9417 52.7045 34.9417C53.0253 34.9417 53.3462 34.8542 53.6378 34.7084L62.1545 30.45C63.4087 29.8084 64.167 28.5542 64.167 27.1834V19.1334C64.167 18.4042 63.7878 17.7334 63.1753 17.3542Z" fill="#6D9E3F"/>
</svg>
