<svg width="20" height="22" viewBox="0 0 20 22" fill="none" xmlns="http://www.w3.org/2000/svg">
<path d="M3.71243 1.41844L5.15317 1.06668C6.7859 0.668038 8.53028 1.31227 9.22954 2.5721L10.3427 4.57782C10.9387 5.65165 10.6246 6.91366 9.56164 7.71661L7.71682 9.1101C7.66287 9.1508 7.62867 9.2058 7.62053 9.2652C7.56571 9.6623 7.89818 10.4357 8.66386 11.51C9.22077 12.2913 9.72472 12.8391 10.1537 13.1473C10.4526 13.362 10.6172 13.4084 10.6872 13.3915L13.1692 12.7769C14.5588 12.4328 16.0647 12.8431 16.915 13.7976L18.4961 15.5726C19.4913 16.6898 19.3123 18.2311 18.0774 19.1784L16.9831 20.0178C15.8024 20.9236 14.1214 21.2611 12.5551 20.907C9.15497 20.1383 6.10643 17.8141 3.37572 13.9831C0.641217 10.1467 -0.318276 6.84222 0.56623 4.07043C0.971008 2.80195 2.16376 1.79656 3.71243 1.41844ZM4.24687 2.85461C3.31767 3.08148 2.60202 3.68472 2.35916 4.44581C1.61514 6.77732 2.46559 9.7062 4.97948 13.2331C7.49003 16.7552 10.1924 18.8155 13.0529 19.4622C13.9927 19.6747 15.0013 19.4722 15.7098 18.9287L16.804 18.0893C17.3653 17.6587 17.4467 16.9581 16.9944 16.4503L15.4132 14.6753C15.0267 14.2415 14.3421 14.0549 13.7105 14.2114L11.2225 14.8275C9.77843 15.1762 8.46769 14.2347 7.06016 12.26C6.11163 10.9293 5.66954 9.9006 5.78012 9.0987C5.8374 8.68322 6.07638 8.29812 6.45381 8.01303L8.29867 6.61958C8.78189 6.2546 8.9246 5.68096 8.65374 5.19286L7.54053 3.18714C7.2227 2.61449 6.42976 2.32165 5.68761 2.50285L4.24687 2.85461Z" fill="white"/>
</svg>
