<svg width="25" height="24" viewBox="0 0 25 24" fill="none" xmlns="http://www.w3.org/2000/svg">
<g clip-path="url(#clip0_284_1471)">
<path d="M24.1198 4.93708C23.2903 5.30708 22.3992 5.55708 21.4624 5.67008C22.429 5.08787 23.1521 4.17154 23.4969 3.09208C22.5888 3.63507 21.5948 4.01727 20.5584 4.22208C19.8613 3.47294 18.9381 2.9764 17.9321 2.80955C16.926 2.6427 15.8933 2.81487 14.9944 3.29933C14.0955 3.78379 13.3806 4.55344 12.9608 5.48878C12.5409 6.42412 12.4396 7.47283 12.6725 8.47208C10.8324 8.37907 9.03222 7.89763 7.38888 7.05898C5.74555 6.22034 4.29576 5.04324 3.1336 3.60408C2.73623 4.29408 2.50774 5.09408 2.50774 5.94608C2.5073 6.71307 2.69493 7.46832 3.05401 8.14481C3.41308 8.8213 3.93248 9.39812 4.56613 9.82408C3.83126 9.80054 3.11261 9.60066 2.46999 9.24108V9.30108C2.46992 10.3768 2.83958 11.4195 3.51625 12.2521C4.19293 13.0847 5.13494 13.656 6.18244 13.8691C5.50073 14.0548 4.78601 14.0821 4.09226 13.9491C4.3878 14.8747 4.96349 15.6841 5.73874 16.264C6.51398 16.8439 7.44997 17.1653 8.41567 17.1831C6.77634 18.4785 4.75179 19.1812 2.66768 19.1781C2.2985 19.1782 1.92964 19.1565 1.56299 19.1131C3.67847 20.4823 6.14105 21.2089 8.65608 21.2061C17.1698 21.2061 21.824 14.1081 21.824 7.95208C21.824 7.75208 21.819 7.55008 21.8101 7.35008C22.7154 6.69105 23.4968 5.87497 24.1178 4.94008L24.1198 4.93708Z" fill="white"/>
</g>
<defs>
<clipPath id="clip0_284_1471">
<rect width="23.8423" height="24" fill="white" transform="translate(0.632324)"/>
</clipPath>
</defs>
</svg>
